<?xml version="1.0" encoding="UTF-8"?>
<svg width="84px" height="77px" viewBox="0 0 84 77" version="1.1" xmlns="http://www.w3.org/2000/svg" xmlns:xlink="http://www.w3.org/1999/xlink">
    <!-- Generator: sketchtool 53.2 (72643) - https://sketchapp.com -->
    <title>496C228A-8DED-4101-BFF9-6B50D1E7E7B8</title>
    <desc>Created with sketchtool.</desc>
    <g id="Page-1" stroke="none" stroke-width="1" fill="none" fill-rule="evenodd">
        <g id="State-Article-Alabama" transform="translate(-1451.000000, -3776.000000)">
            <g id="Group" transform="translate(692.000000, 3761.000000)">
                <g id="Group-3" transform="translate(747.407659, 0.000000)">
                    <polygon id="Rectangle" fill="#AFB5BE" points="41.5188637 15 54.5079004 21.3129541 47.001913 21.3129541 40.5923413 21.3129541"></polygon>
                    <polygon id="Rectangle-Copy-11" fill="#AFB5BE" points="88.5923413 63.9991161 88.5923413 55.1395577 95.0439341 66.3933163 88.5923413 72.3428916"></polygon>
                    <path d="M19.5353097,33.8925875 C30.365876,40.4803732 41.7929614,43.7742661 53.816566,43.7742661 C65.8401705,43.7742661 79.145057,40.8412672 93.7312255,34.9752693 L111.015801,53.510707 C89.9850366,65.042571 70.9664223,70.808503 53.9599579,70.808503 C36.9534934,70.808503 18.3001741,65.1971982 -2,53.9745887 L19.5353097,33.8925875 Z" id="Rectangle" fill="#D9DCE0" transform="translate(54.507900, 52.350545) rotate(43.000000) translate(-54.507900, -52.350545) "></path>
                    <path d="M23.192863,53.2495933 L21.595708,52.5335203 L20.1711798,55.7108392 L18.7382713,55.0684049 L22.4354426,46.8221012 L25.3352417,48.1222054 C26.286743,48.5488042 26.9254802,49.0913885 27.2514723,49.7499746 C27.5774644,50.4085607 27.5593256,51.1418532 27.1970551,51.9498742 C26.9498987,52.5011408 26.6098556,52.9030532 26.1769158,53.1556233 C25.743976,53.4081934 25.2447777,53.5278856 24.6793059,53.5147035 L24.9899915,57.7828913 L24.9569811,57.856519 L23.4221265,57.1683779 L23.192863,53.2495933 Z M22.111179,51.3837952 L23.5837333,52.0440044 C24.0670355,52.2606895 24.4992034,52.3082045 24.88025,52.1865509 C25.2612965,52.0648972 25.5466152,51.7926297 25.7362147,51.3697402 C25.9342784,50.9279718 25.9619358,50.5299806 25.8191877,50.1757548 C25.6764397,49.8215289 25.3575605,49.5289164 24.8625408,49.2979082 L23.3503409,48.6199242 L22.111179,51.3837952 Z M29.6968233,59.4252055 C29.6737661,59.2827052 29.6836545,59.0660875 29.7264886,58.7753459 C29.1146412,59.102043 28.4783576,59.157355 27.8176186,58.9412835 C27.1765446,58.7316427 26.713272,58.3777083 26.4277872,57.8794697 C26.1423023,57.3812311 26.0876612,56.8627111 26.2638624,56.3238943 C26.4863646,55.6434905 26.9097866,55.2040298 27.5341412,55.0054991 C28.1584958,54.8069684 28.9406512,54.8613959 29.880631,55.1687833 L30.7596453,55.4562342 L30.8966186,55.037375 C31.0046543,54.7070055 30.9987225,54.4122934 30.878823,54.1532299 C30.7589235,53.8941663 30.5101949,53.7029027 30.1326298,53.5794333 C29.8061933,53.4726837 29.5120684,53.4668354 29.2502462,53.5618882 C28.988424,53.656941 28.816359,53.8303199 28.734046,54.08203 L27.3004857,53.6132343 C27.4149521,53.2632 27.6380425,52.9737257 27.9697636,52.7448028 C28.3014847,52.5158799 28.6952326,52.3801668 29.1510192,52.3376593 C29.6068058,52.2951518 30.0805026,52.3542809 30.5721238,52.5150484 C31.3193881,52.759415 31.8538118,53.1420588 32.175411,53.6629912 C32.4970102,54.1839236 32.5524574,54.7865119 32.3417541,55.4707741 L31.4003044,58.3496936 C31.212528,58.9239072 31.1433196,59.4084568 31.1926772,59.8033569 L31.1598808,59.9036471 L29.6968233,59.4252055 Z M28.4592868,57.8777096 C28.7424606,57.9703117 29.0314225,57.9886204 29.3261809,57.9326363 C29.6209394,57.8766523 29.8691836,57.7532177 30.0709209,57.562329 L30.4644777,56.3588462 L29.691653,56.106121 C29.1607021,55.9324921 28.7312878,55.8943743 28.4033973,55.9917664 C28.0755068,56.0891584 27.8562608,56.3069689 27.7456527,56.6452043 C27.6556229,56.9205122 27.6753619,57.1696743 27.8048702,57.392698 C27.9343785,57.6157218 28.1525152,57.7773907 28.4592868,57.8777096 Z M35.2038929,53.9594586 L35.0829753,54.7270654 C35.6947467,54.2450933 36.3950214,54.0890734 37.1838206,54.2590011 C38.5510725,54.5535424 39.0782054,55.4861448 38.7652351,57.0568363 L37.8306376,61.39521 L36.3561973,61.0775776 L37.2724949,56.824151 C37.3622516,56.4075033 37.338694,56.0796783 37.2018215,55.8406663 C37.064949,55.6016543 36.792238,55.4381438 36.3836805,55.35013 C35.7890473,55.2220307 35.288164,55.3956079 34.8810157,55.8708669 L33.8745262,60.5429617 L32.4000859,60.2253293 L33.8143998,53.6601259 L35.2038929,53.9594586 Z M39.4251412,58.2203647 C39.5339725,57.1916246 39.8600269,56.3908071 40.4033141,55.8178884 C40.9466013,55.2449696 41.6194435,55.0009581 42.4218608,55.0858466 C43.1296339,55.1607225 43.6754857,55.4681258 44.0594325,56.0080655 L44.4211861,52.5885505 L45.9210816,52.7472258 L44.918097,62.2280472 L43.5601668,62.0843905 L43.5592322,61.3852448 C43.0532386,61.8809691 42.4257898,62.0892136 41.676867,62.0099843 C40.8950245,61.9272725 40.2956607,61.5455525 39.8787577,60.8648128 C39.4618546,60.1840732 39.3106506,59.3025992 39.4251412,58.2203647 Z M40.9113241,58.5086606 C40.8394954,59.187629 40.9140961,59.7312436 41.1351285,60.1395206 C41.3561609,60.5477976 41.707397,60.7773992 42.1888474,60.8283323 C42.8019765,60.8931958 43.2794491,60.6670047 43.6212797,60.1497525 L43.9229587,57.2980992 C43.7038486,56.7339875 43.2877353,56.4195047 42.6746062,56.3546412 C42.1890409,56.3032728 41.7942339,56.4560303 41.4901735,56.8129183 C41.1861131,57.1698062 40.9931653,57.735048 40.9113241,58.5086606 Z M46.2072648,58.8925186 C46.2069514,58.2345889 46.3370117,57.6417783 46.5974495,57.114069 C46.8578873,56.5863597 47.2238948,56.1806749 47.695483,55.8970025 C48.1670711,55.6133301 48.7090634,55.4713502 49.3214759,55.4710585 C50.227681,55.4706268 50.9633246,55.7619956 51.528429,56.3451737 C52.0935333,56.9283517 52.3990691,57.7019863 52.4450455,58.6661006 L52.4514209,59.0198882 C52.4517363,59.6819558 52.3247789,60.2737305 52.070545,60.79523 C51.8163111,61.3167294 51.4523716,61.7203443 50.9787155,62.0060866 C50.5050593,62.291829 49.9578953,62.4348458 49.3372069,62.4351415 C48.3896226,62.4355929 47.6312094,62.1204422 47.0619444,61.48968 C46.4926795,60.8589178 46.207801,60.0180332 46.2073003,58.9670009 L46.2072648,58.8925186 Z M47.7155922,59.0221441 C47.7159213,59.7131772 47.8589352,60.2541344 48.1446382,60.6450321 C48.4303411,61.0359298 48.8276688,61.2312545 49.3366333,61.231012 C49.8455978,61.2307696 50.2417033,61.0319636 50.5249618,60.634588 C50.8082203,60.2372124 50.9496651,59.6557755 50.9493004,58.8902598 C50.9489772,58.2116405 50.8028614,57.6737881 50.5109486,57.2766865 C50.2190358,56.8795849 49.8227411,56.6811563 49.3220524,56.6813948 C48.8296396,56.6816294 48.438705,56.8773295 48.1492366,57.2685012 C47.8597683,57.6596728 47.7152216,58.2442146 47.7155922,59.0221441 Z M54.3920811,55.4096721 L54.5110602,56.1022454 C54.9205553,55.5041528 55.5325497,55.1608473 56.3470615,55.0723186 C57.2397336,54.9752948 57.8877182,55.250331 58.2910349,55.8974354 C58.7022301,55.1618023 59.3479834,54.7461508 60.2283144,54.6504683 C60.964666,54.5704348 61.5349396,54.7144826 61.9391524,55.082616 C62.3433651,55.4507495 62.592728,56.031332 62.6872485,56.8243811 L63.1640936,61.2116162 L61.6646588,61.3745885 L61.1925084,57.0305471 C61.1464556,56.6068364 61.0201422,56.3063169 60.8135644,56.1289797 C60.6069866,55.9516424 60.2897902,55.8862247 59.8619658,55.9327246 C59.520529,55.9698351 59.2517784,56.091655 59.055706,56.298188 C58.8596335,56.504721 58.7345015,56.7607714 58.6803061,57.0663469 L59.1841125,61.6441972 L57.6846777,61.8071696 L57.2071619,57.413764 C57.1011946,56.6302836 56.6574164,56.2810246 55.8758142,56.3659763 C55.2752145,56.431255 54.8760563,56.7222919 54.6783274,57.2390957 L55.2041313,62.0767782 L53.7046966,62.2397506 L52.9790335,55.5632551 L54.3920811,55.4096721 Z M72.1596054,55.4722388 L68.6142904,56.2846937 L69.4697249,60.0175596 L67.9390685,60.3683293 L65.9204092,51.559492 L71.5166829,50.2770333 L71.7995171,51.5112386 L67.7338998,52.4429274 L68.3342291,55.0625886 L71.8795442,54.2501337 L72.1596054,55.4722388 Z M78.255043,57.7356078 C78.1559211,57.6306658 78.0424221,57.4458985 77.9145427,57.1813002 C77.5918615,57.7952751 77.0965195,58.1984532 76.4285019,58.3908467 C75.7803657,58.5775141 75.1982753,58.5449284 74.6822134,58.2930884 C74.1661514,58.0412485 73.8296793,57.6429582 73.672787,57.0982057 C73.4746676,56.4103066 73.5781178,55.8088833 73.9831408,55.2939179 C74.3881639,54.7789525 75.0658326,54.3846243 76.0161672,54.1109217 L76.9048648,53.854971 L76.7829017,53.4314976 C76.686705,53.0974888 76.5162499,52.8569987 76.2715315,52.7100202 C76.026813,52.5630416 75.7135963,52.5445222 75.3318719,52.6544613 C75.0018394,52.7495128 74.7552179,52.9098921 74.592,53.1356039 C74.4287821,53.3613157 74.3838202,53.6014095 74.457113,53.8558924 L73.0077605,54.2733155 C72.9058378,53.9194252 72.9278003,53.5546206 73.0736488,53.178891 C73.2194973,52.8031613 73.4690204,52.4697041 73.8222256,52.1785094 C74.1754309,51.8873147 74.6005456,51.6701456 75.0975825,51.5269957 C75.8530787,51.3094079 76.5101608,51.3257781 77.0688488,51.5761068 C77.6275367,51.8264355 78.0118991,52.2938246 78.2219474,52.9782881 L79.0602291,55.8889219 C79.2274282,56.469461 79.4423547,56.9092163 79.7050152,57.2082008 L79.7342176,57.3095958 L78.255043,57.7356078 Z M76.3619314,57.1504855 C76.6482246,57.0680311 76.8975739,56.9208609 77.1099867,56.7089704 C77.3223995,56.4970799 77.4584412,56.2555144 77.5181159,55.9842666 L77.1676867,54.7675262 L76.3863485,54.9925568 C75.8495486,55.1471587 75.4728725,55.3568362 75.2563088,55.6215956 C75.039745,55.8863551 74.9807076,56.1897109 75.0791947,56.5316723 C75.1593587,56.810013 75.3156501,57.0050627 75.5480736,57.1168272 C75.7804971,57.2285917 76.0517803,57.239811 76.3619314,57.1504855 Z M83.2445154,55.0006904 C83.6009152,54.8791591 83.8612146,54.6745445 84.0254215,54.3868404 C84.1896284,54.0991364 84.2274794,53.7998751 84.1389756,53.4890475 L85.4842801,53.0303025 C85.6035006,53.4312091 85.6060031,53.8423998 85.4917878,54.2638869 C85.3775724,54.685374 85.1567413,55.0634254 84.8292876,55.3980523 C84.501834,55.7326793 84.108999,55.9781163 83.6507707,56.1343709 C82.7617295,56.4375314 81.9586151,56.3900624 81.2414033,55.9919624 C80.5241915,55.5938624 79.9926452,54.8876387 79.6467483,53.8732701 L79.596667,53.7264028 C79.2667963,52.759032 79.2611872,51.8964172 79.5798396,51.1385326 C79.898492,50.380648 80.504288,49.8494657 81.3972456,49.5449696 C82.1531265,49.2872164 82.8441051,49.2975095 83.4702023,49.5758493 C84.0962995,49.854189 84.5432899,50.347703 84.8111869,51.056406 L83.4658824,51.515151 C83.3260142,51.1562603 83.0995029,50.8990558 82.7863417,50.7435297 C82.4731806,50.5880036 82.1364469,50.5716743 81.7761307,50.6945411 C81.3139859,50.8521311 81.0146836,51.1410877 80.8782149,51.5614194 C80.7417461,51.9817511 80.7877421,52.5333103 81.0162042,53.2161135 L81.094331,53.4452264 C81.3293806,54.1345271 81.62901,54.6061557 81.993228,54.8601265 C82.3574461,55.1140973 82.7745377,55.1609515 83.2445154,55.0006904 Z M86.0863111,46.2627008 L86.6662405,47.7886169 L87.7744153,47.3674514 L88.1713252,48.4118046 L87.0631504,48.8329701 L88.3950035,52.3373552 C88.4861463,52.5771708 88.599312,52.7322532 88.734504,52.8026069 C88.8696961,52.8729607 89.0591311,52.8618314 89.3028147,52.7692186 C89.4652705,52.7074768 89.6223076,52.6256611 89.7739309,52.5237693 L90.1884813,53.6145382 C89.9012488,53.8255157 89.6087191,53.9875987 89.3108836,54.1007921 C88.2278452,54.5124044 87.4592158,54.1206113 87.0049722,52.9254012 L85.6532736,49.3687984 L84.6205244,49.7612981 L84.2236145,48.716945 L85.2563637,48.3244452 L84.6764343,46.7985292 L86.0863111,46.2627008 Z" id="RandomFact" fill="#091A36" fill-rule="nonzero" transform="translate(54.463376, 54.348921) rotate(43.000000) translate(-54.463376, -54.348921) "></path>
                </g>
            </g>
        </g>
    </g>
</svg>