<svg id="Layer_1" data-name="Layer 1" xmlns="http://www.w3.org/2000/svg" viewBox="0 0 1920 756"><defs><style>.cls-1{fill:#091a36;fill-rule:evenodd;}.cls-2{opacity:0.2;isolation:isolate;}.cls-3{fill:#fff;}</style></defs><title>Auto Hill Desk</title><path id="Rectangle-4" class="cls-1" d="M-1,197.86Q459.85,11,959,11t961,186.86L1923,755H-1Z"/><g class="cls-2"><path class="cls-3" d="M0,241.27l-1.37-2.67L4,235.87l1.36,2.68Q2.65,239.9,0,241.27Z"/><path class="cls-3" d="M16.09,233.14l-1.33-2.69q5.4-2.67,10.85-5.31l1.31,2.7Q21.48,230.47,16.09,233.14Zm1887.74-1.32q-5.38-2.65-10.83-5.28l1.3-2.71q5.46,2.64,10.86,5.29Zm-1866-9.18-1.28-2.72q5.45-2.56,11-5.11l1.25,2.72Q43.22,220.08,37.79,222.64Zm1844.32-1.28q-5.43-2.55-10.93-5.07l1.25-2.73q5.5,2.53,11,5.09ZM59.68,212.53l-1.23-2.73q5.49-2.48,11-4.92l1.21,2.75Q65.16,210.06,59.68,212.53Zm1800.52-1.22q-5.48-2.46-11-4.89l1.2-2.74q5.55,2.43,11,4.89ZM81.75,202.81l-1.19-2.75q5.53-2.38,11.11-4.73l1.17,2.76Q87.26,200.45,81.75,202.81Zm1756.37-1.18q-5.53-2.35-11.11-4.69l1.16-2.77q5.6,2.34,11.13,4.71ZM104,193.47l-1.14-2.78q5.57-2.28,11.19-4.55l1.12,2.79Q109.53,191.18,104,193.47Zm1711.9-1.14q-5.56-2.27-11.18-4.51l1.12-2.79q5.63,2.25,11.2,4.53ZM126.34,184.48l-1.09-2.79q5.59-2.2,11.26-4.38l1.07,2.81Q131.94,182.28,126.34,184.48Zm1667.14-1.09q-5.6-2.19-11.25-4.34l1.07-2.8q5.67,2.16,11.27,4.34ZM148.86,175.84,147.8,173q5.64-2.11,11.33-4.2l1,2.82Q154.49,173.72,148.86,175.84ZM1771,174.79q-5.62-2.1-11.31-4.17l1-2.82q5.68,2.08,11.33,4.18ZM171.5,167.54l-1-2.83q5.67-2,11.39-4l1,2.83Q177.16,165.51,171.5,167.54Zm1576.8-1q-5.67-2-11.37-4l1-2.83q5.73,2,11.39,4Zm-1554-7-1-2.83q5.7-2,11.44-3.88l.95,2.85Q199.94,157.62,194.25,159.56Zm1531.28-1q-5.7-1.93-11.43-3.85l1-2.85q5.75,1.92,11.44,3.86ZM217.12,151.91l-.93-2.85q5.72-1.87,11.49-3.72l.91,2.86Q222.83,150,217.12,151.91ZM1702.65,151q-5.73-1.86-11.48-3.69l.91-2.86q5.76,1.83,11.49,3.7ZM240.09,144.56l-.9-2.86q5.76-1.8,11.54-3.57l.88,2.87Zm1439.57-.89c-3.82-1.19-7.67-2.37-11.52-3.54l.87-2.87q5.79,1.76,11.54,3.55ZM263.15,137.52l-.85-2.88c3.84-1.15,7.71-2.28,11.58-3.41l.84,2.88Q268.92,135.79,263.15,137.52Zm1393.44-.86q-5.76-1.71-11.57-3.39l.83-2.88q5.82,1.68,11.59,3.4ZM286.31,130.77l-.82-2.89q5.79-1.65,11.62-3.27l.81,2.89Q292.08,129.12,286.31,130.77ZM1633.43,130q-5.79-1.63-11.62-3.25l.8-2.89q5.84,1.62,11.63,3.25ZM309.54,124.3l-.78-2.89q5.81-1.57,11.66-3.13l.77,2.9Q315.34,122.73,309.54,124.3Zm1300.64-.78q-5.81-1.56-11.65-3.1l.76-2.9c3.91,1,7.79,2.06,11.67,3.11Zm-1277.32-5.4-.76-2.9q5.83-1.52,11.7-3l.74,2.91Q338.67,116.61,332.86,118.12Zm1254-.74q-5.83-1.5-11.69-3l.73-2.91q5.88,1.47,11.71,3ZM356.24,112.22l-.72-2.91q5.85-1.44,11.73-2.86l.71,2.92Q362.08,110.78,356.24,112.22Zm1207.23-.71q-5.85-1.44-11.73-2.84l.7-2.92q5.89,1.41,11.74,2.84ZM379.69,106.58l-.69-2.92q5.88-1.38,11.77-2.72l.67,2.92ZM1540,105.9q-5.87-1.37-11.76-2.7l.67-2.93,11.77,2.71ZM403.2,101.21l-.65-2.93q5.88-1.31,11.79-2.59l.64,2.93Zm1113.29-.65L1504.7,98l.64-2.93,11.79,2.57ZM426.77,96.1l-.62-2.94Q432,91.92,438,90.7l.6,2.94Q432.66,94.86,426.77,96.1Zm1066.14-.62Q1487,94.25,1481.1,93l.6-2.94q5.92,1.2,11.83,2.45ZM450.4,91.24l-.59-2.94q5.91-1.18,11.85-2.34l.57,2.94Q456.3,90.06,450.4,91.24Zm1018.88-.59q-5.91-1.17-11.84-2.31l.57-3,11.85,2.32Zm-995.21-4-.55-2.94q5.91-1.12,11.87-2.22l.54,3Zm971.53-.55-11.86-2.2.54-2.95,11.87,2.2ZM497.8,82.27l-.53-3q5.94-1.06,11.89-2.09l.51,3Zm924.07-.52L1410,79.67l.5-3q6,1,11.9,2.07Zm-900.31-3.6-.49-3q5.94-1,11.91-2l.48,3Q527.51,77.15,521.56,78.15Zm876.53-.49q-5.92-1-11.9-2l.48-3,11.92,2ZM545.37,74.28l-.47-3,11.94-1.85.45,3Q551.32,73.33,545.37,74.28Zm828.91-.47q-5.94-.93-11.92-1.83l.45-3q6,.9,11.94,1.84ZM569.22,70.63l-.44-3q6-.89,12-1.74l.42,3Zm781.22-.43c-4-.58-8-1.16-11.94-1.72l.42-3q6,.84,11.95,1.72Zm-757.35-3-.41-3c4-.55,8-1.09,12-1.62l.4,3Zm733.46-.4q-6-.82-12-1.61l.39-3,12,1.6ZM617,64.05l-.38-3,12-1.51.37,3C625,63,621,63.54,617,64.05Zm685.64-.38c-4-.51-8-1-12-1.49l.36-3,12,1.49ZM641,61.09l-.36-3,12-1.39.34,3Zm637.74-.35-12-1.37.34-3,12,1.37ZM664.91,58.37l-.32-3q6-.66,12-1.29l.31,3Q670.9,57.72,664.91,58.37Zm589.81-.32q-6-.64-12-1.27l.31-3q6,.62,12,1.26ZM688.9,55.86l-.29-3q6-.6,12-1.17l.29,3Zm541.83-.29-12-1.16.28-3q6,.55,12,1.15Zm-517.81-2-.27-3,12-1.06.25,3Zm493.79-.27-12-1,.25-3q6,.51,12,1ZM737,51.52l-.24-3c4-.33,8-.65,12-1l.23,3Q743,51,737,51.52Zm445.73-.24c-4-.32-8-.64-12-.94l.23-3q6,.45,12,.94ZM761,49.67l-.21-3,12-.85.21,3Q767,49.24,761,49.67Zm397.62-.21q-6-.43-12-.83l.2-3,12,.83ZM785.07,48l-.19-3q6-.37,12-.73l.18,3Q791.08,47.66,785.07,48Zm349.48-.19q-6-.37-12-.72l.17-3q6,.34,12,.73Zm-325.4-1.23-.16-3q6-.33,12-.63l.16,3Q815.16,46.29,809.15,46.62Zm301.32-.16q-6-.33-12-.62l.15-3,12.05.62ZM833.24,45.41l-.13-3q6-.29,12.06-.53l.12,3Q839.26,45.13,833.24,45.41Zm253.14-.13q-6-.27-12.05-.51l.12-3q6,.24,12.07.51Zm-229-.86-.11-3q6-.22,12.07-.42l.1,3Zm204.94-.11q-6-.23-12.06-.41l.1-3q6,.2,12.07.41Zm-180.83-.68-.08-3,12.07-.32.07,3Q887.48,43.46,881.45,43.63Zm156.72-.09c-4-.1-8-.21-12.06-.3l.07-3q6,.13,12.07.31Zm-132.6-.49-.06-3q6-.12,12.07-.21l0,3Q911.59,42.93,905.57,43.05ZM1014.05,43l-12.06-.2,0-3,12.07.2Zm-84.39-.31,0-3q6-.07,12-.11l0,3Q935.67,42.62,929.66,42.68Zm60.27,0c-4,0-8-.07-12.06-.09l0-3q6,0,12.07.09Zm-36.18-.13v-3h12.07v3H953.75Z"/><path class="cls-3" d="M1920,239.94q-2.65-1.37-5.34-2.72l1.36-2.68,5.35,2.73Z"/></g><g class="cls-2"><path class="cls-3" d="M0,271.27l-1.37-2.67c120.72-62.08,264.55-111,427.47-145.43C594.7,87.56,774.77,69.5,961.3,69.5c185.86,0,365.33,17.93,533.42,53.3,162.44,34.17,306,82.78,426.66,144.47l-1.37,2.67C1674.56,144.46,1325.12,72.5,961.3,72.5,596,72.5,245.64,145,0,271.27Z"/></g></svg>