<svg width="113" height="91" xmlns="http://www.w3.org/2000/svg"><g transform="translate(0 1)" fill="none" fill-rule="evenodd"><circle stroke="#D9DCE0" stroke-width="2" cx="57.109" cy="44.5" r="44.5"/><g fill-rule="nonzero"><path d="M99.712 68.663l11.61-1.033V55.81c0-4.471-15.758-10.748-33.41-11.225-7.42-7.044-19.49-13.288-26.722-13.288H37.83c-5.619 0-23.305 11.243-23.305 11.243s-11.21 3.177-11.347 3.578C1.478 51.875.518 59.49 1.35 62.812c.952 3.816 3.612 5.851 7.65 5.851h90.712z" fill="#FFF"/><path d="M9.274 68.919c-4.379 0-7.36-2.284-8.401-6.423-.983-3.903.999-12.661 2.329-17.23.152-.548.245-.843 11.755-4.08C16.575 40.208 32.921 30 38.527 30h13.314c7.114 0 19.15 5.9 26.975 13.158 16.795.523 33.793 6.516 33.793 11.945v11.563a2 2 0 0 1-2 2h-20.58c-23.206.101-77.621.253-80.755.253zm-4.54-22.81c-1.583 5.622-2.98 12.947-2.218 16.016.847 3.372 3.184 5.15 6.775 5.15 3.134 0 57.592-.152 80.78-.219h19.886a1 1 0 0 0 1-1V55.103c0-3.625-14.864-9.795-32.471-10.267h-.322l-.237-.22c-7.462-7.013-19.387-12.93-26.086-12.93H38.527c-4.387 0-17.92 7.94-22.774 10.958l-.22.101C10.951 44.07 5.92 45.578 4.735 46.11z" fill="#091A36"/><path d="M91.78 58.54h1.149a9.081 9.081 0 0 1 0 18.162H91.78a9.081 9.081 0 1 1 0-18.162z" fill="#0CF"/><path d="M92.011 78c-5.688 0-10.299-4.647-10.299-10.378 0-5.732 4.611-10.379 10.299-10.379s10.299 4.647 10.299 10.379C102.31 73.353 97.699 78 92.01 78zm0-19.051c-3.485 0-6.627 2.116-7.96 5.36a8.73 8.73 0 0 0 1.871 9.463 8.566 8.566 0 0 0 9.392 1.876c3.218-1.346 5.315-4.514 5.312-8.026-.005-4.792-3.86-8.673-8.615-8.673z" fill="#091A36"/><path d="M26.056 58.54a9.011 9.011 0 0 1 9.011 9.012v.14a9.011 9.011 0 0 1-18.023 0v-.14a9.011 9.011 0 0 1 9.012-9.011z" fill="#0CF"/><path d="M26.356 78c-5.688 0-10.299-4.647-10.299-10.378 0-5.732 4.61-10.379 10.299-10.379 5.688 0 10.299 4.647 10.299 10.379-.005 5.73-4.613 10.373-10.3 10.378zm0-19.051c-3.485 0-6.627 2.116-7.96 5.36a8.73 8.73 0 0 0 1.871 9.463 8.566 8.566 0 0 0 9.391 1.876c3.22-1.346 5.316-4.514 5.312-8.026-.004-4.792-3.86-8.673-8.614-8.673z" fill="#091A36"/><path d="M95.873 67.622c0 2.15-1.729 3.892-3.862 3.892s-3.862-1.743-3.862-3.892c0-2.15 1.729-3.892 3.862-3.892 1.024 0 2.007.41 2.73 1.14a3.907 3.907 0 0 1 1.132 2.752zM30.218 67.622c0 2.15-1.73 3.892-3.862 3.892-2.133 0-3.862-1.743-3.862-3.892 0-2.15 1.729-3.892 3.862-3.892 1.024 0 2.006.41 2.73 1.14a3.907 3.907 0 0 1 1.132 2.752z" fill="#FFF"/><path d="M55.53 35.19h-8.576v11.675H72.7c1.095-.649-7.724-8.097-17.17-11.676zM44.379 35.19h-7.724c-5.543 2.676-10.28 6.67-14.161 11.675h21.885V35.189z" fill="#D9DCE0"/></g><g fill="#5F6A7C"><path d="M67.15 9h2.029v9.644h-2.03z"/><path d="M62.911 12.985h10.561v1.907H62.911z"/></g><circle stroke="#D9DCE0" fill="#FFF" fill-rule="nonzero" cx="85.609" cy="10" r="5"/><path d="M79.609 30a4 4 0 1 1 4-4 4 4 0 0 1-4 4z" fill="#D9DCE0" fill-rule="nonzero"/><g fill="#D9DCE0"><path d="M1.626 38.812l7.885-3.604.687 1.496-7.885 3.605zM1.698 27.873l.653-1.511 7.962 3.447-.653 1.51zM7.547 20.049l1.267-1.05 5.32 6.426-1.268 1.05z"/></g></g></svg>