<svg id="Layer_1" data-name="Layer 1" xmlns="http://www.w3.org/2000/svg" viewBox="0 0 375 847"><defs><style>.cls-1{fill:#091a36;}.cls-2{opacity:0.2;isolation:isolate;}.cls-3{fill:#fff;}</style></defs><title>Untitled-1</title><path class="cls-1" d="M375.21,847H0V51.36C49.18,18.78,107.32,4.63,169.94,1.45h.13q4.29-.21,8.61-.33h.1C181.65,1,184.52,1,187.41,1h.27c69,0,134,14.64,187.53,50"/><g class="cls-2"><path class="cls-3" d="M.55,91.19l-1.1-1.66C45,59.35,100.74,43,169.83,39.45h.24c2.8-.14,5.7-.25,8.58-.33h.13c3-.07,5.85-.11,8.63-.11h.27C261.57,39,324.59,55.91,375,89.15l-1.1,1.66C323.82,57.8,261.17,41,187.68,41h-.27c-2.76,0-5.58,0-8.61.11h-.12c-2.84.08-5.73.19-8.56.33H170C101.23,44.94,45.81,61.21.55,91.19Z"/></g><g class="cls-2"><path class="cls-3" d="M.55,72.19l-1.1-1.66c2.49-1.65,5.05-3.29,7.62-4.86l1,1.7C5.57,68.93,3,70.55.55,72.19Zm368.2-3.68c-2.52-1.57-5.1-3.13-7.67-4.63l1-1.73c2.59,1.51,5.19,3.08,7.73,4.67ZM15.84,62.82l-1-1.74c2.59-1.47,5.26-2.93,7.93-4.32l.93,1.77C21.06,59.91,18.41,61.36,15.84,62.82ZM353.25,59.5c-2.61-1.41-5.29-2.79-8-4.12l.89-1.79c2.69,1.34,5.39,2.73,8,4.15Zm-321.53-5-.86-1.81c2.68-1.29,5.44-2.56,8.2-3.78l.8,1.83C37.13,52,34.39,53.22,31.72,54.51Zm305.48-3c-2.69-1.23-5.46-2.44-8.21-3.6l.77-1.84c2.78,1.16,5.56,2.38,8.27,3.63ZM48.12,47.26l-.75-1.86c2.76-1.12,5.6-2.21,8.42-3.25L56.48,44C53.68,45.06,50.87,46.15,48.12,47.26Zm272.54-2.68c-2.76-1.07-5.6-2.11-8.42-3.1l.66-1.88c2.84,1,5.7,2,8.48,3.11ZM64.94,41l-.64-1.89c2.83-.95,5.72-1.88,8.6-2.75l.58,1.91C70.62,39.18,67.75,40.1,64.94,41Zm238.79-2.4c-2.83-.9-5.72-1.77-8.59-2.59l.55-1.93c2.89.83,5.8,1.71,8.64,2.62ZM82.09,35.82l-.53-1.93c2.87-.79,5.8-1.55,8.73-2.27l.48,1.94C87.86,34.28,84.94,35,82.09,35.82Zm204.38-2.13c-2.88-.74-5.81-1.45-8.72-2.12l.44-1.94c2.93.66,5.89,1.38,8.78,2.12Zm-187-2.16-.43-2c2.9-.63,5.87-1.25,8.83-1.82l.38,2C105.35,30.28,102.4,30.89,99.51,31.53ZM269,29.69c-2.91-.59-5.88-1.15-8.83-1.67l.34-2c3,.53,6,1.09,8.88,1.68ZM117.11,28.11l-.33-2c2.94-.5,5.93-1,8.9-1.41l.29,2C123,27.14,120,27.61,117.11,28.11Zm134.16-1.53c-2.94-.45-5.93-.86-8.9-1.24l.25-2c3,.38,6,.79,8.95,1.24ZM134.86,25.5l-.25-2c2.94-.37,5.95-.71,9-1l.21,2C140.78,24.78,137.78,25.13,134.86,25.5Zm98.58-1.19c-2.95-.3-6-.58-8.95-.83l.17-2c3,.24,6,.52,9,.83Zm-80.73-.69-.17-2c3-.26,6-.49,9-.69l.14,2C158.67,23.14,155.66,23.37,152.71,23.62Zm62.82-.78c-3-.18-6-.33-9-.46l.08-2c3,.12,6,.27,9,.45Zm-44.91-.43-.09-2c2.67-.13,5.4-.23,8.12-.31l.9,0,0,2-.91,0C176,22.18,173.28,22.29,170.62,22.41Zm26.94-.3c-3-.07-6-.1-9-.11V20c3,0,6.05,0,9,.11Z"/></g></svg>