<?xml version="1.0" encoding="UTF-8"?>
<svg width="10px" height="7px" viewBox="0 0 10 7" version="1.1" xmlns="http://www.w3.org/2000/svg" xmlns:xlink="http://www.w3.org/1999/xlink">
    <!-- Generator: Sketch 49.3 (51167) - http://www.bohemiancoding.com/sketch -->
    <title>Check - FontAwesome</title>
    <desc>Created with Sketch.</desc>
    <defs></defs>
    <g id="desk-top" stroke="none" stroke-width="1" fill="none" fill-rule="evenodd">
        <g id="listing-desk" transform="translate(-681.000000, -490.000000)" fill="#000000">
            <g id="Group-3" transform="translate(681.000000, 449.000000)">
                <path d="M9.16852679,42.2075893 C9.27269397,42.3117565 9.32477679,42.4382433 9.32477679,42.5870536 C9.32477679,42.7358638 9.27269397,42.8623507 9.16852679,42.9665179 L4.36941964,47.765625 C4.26525246,47.8697922 4.13876562,47.921875 3.98995536,47.921875 C3.84114509,47.921875 3.71465826,47.8697922 3.61049107,47.765625 L0.831473214,44.9866071 C0.727306027,44.88244 0.675223214,44.7559531 0.675223214,44.6071429 C0.675223214,44.4583326 0.727306027,44.3318458 0.831473214,44.2276786 L1.59040179,43.46875 C1.69456897,43.3645828 1.8210558,43.3125 1.96986607,43.3125 C2.11867634,43.3125 2.24516317,43.3645828 2.34933036,43.46875 L3.98995536,45.1149554 L7.65066964,41.4486607 C7.75483683,41.3444935 7.88132366,41.2924107 8.03013393,41.2924107 C8.1789442,41.2924107 8.30543103,41.3444935 8.40959821,41.4486607 L9.16852679,42.2075893 Z" id="Check---FontAwesome"></path>
            </g>
        </g>
    </g>
</svg>