<?xml version="1.0" encoding="UTF-8"?>
<svg width="22px" height="23px" viewBox="0 0 22 23" version="1.1" xmlns="http://www.w3.org/2000/svg" xmlns:xlink="http://www.w3.org/1999/xlink">
    <!-- Generator: Sketch 49.3 (51167) - http://www.bohemiancoding.com/sketch -->
    <title></title>
    <desc>Created with Sketch.</desc>
    <defs></defs>
    <g id="Page-1" stroke="none" stroke-width="1" fill="none" fill-rule="evenodd">
        <g id="contact" transform="translate(-1182.000000, -1743.000000)" fill="#C8C8C8">
            <g id="Group-4-Copy" transform="translate(1182.000000, 1742.000000)">
                <path d="M16.0273438,19.3144531 L16.6074219,19.6367188 C16.9941426,19.8515636 17.1875,20.1308577 17.1875,20.4746094 L17.1875,22.2148438 C17.1875,22.5442725 17.0729178,22.8199859 16.84375,23.0419922 C16.6145822,23.2639985 16.3424495,23.375 16.0273438,23.375 L1.16015625,23.375 C0.845050508,23.375 0.572917812,23.2639985 0.34375,23.0419922 C0.114582188,22.8199859 0,22.5442725 0,22.2148438 L0,20.4746094 C0,20.1595036 0.193357441,19.8873709 0.580078125,19.6582031 L1.16015625,19.3144531 L5.60742188,16.9082031 C4.79101154,16.2636687 4.22526199,15.4043022 3.91015625,14.3300781 C3.59505051,13.255854 3.4375,12.403649 3.4375,11.7734375 L3.4375,8.87304688 C3.4375,8.38606527 3.58788912,7.90267167 3.88867188,7.42285156 C4.18945463,6.94303146 4.5833309,6.50976756 5.0703125,6.12304688 C5.5572941,5.73632619 6.11230157,5.42122518 6.73535156,5.17773438 C7.35840155,4.93424357 7.98502289,4.8125 8.61523438,4.8125 C9.25976885,4.8125 9.88997088,4.93424357 10.5058594,5.17773438 C11.1217479,5.42122518 11.669594,5.73632619 12.1494141,6.12304688 C12.6292342,6.50976756 13.0159491,6.94303146 13.3095703,7.42285156 C13.6031916,7.90267167 13.75,8.38606527 13.75,8.87304688 L13.75,11.7734375 C13.75,12.4752639 13.610353,13.3489531 13.3310547,14.3945312 C13.0517564,15.4401094 12.5110717,16.285153 11.7089844,16.9296875 L16.0273438,19.3144531 Z M15.8125,22 L15.8125,20.7753906 C15.769531,20.7324217 15.7194013,20.6966147 15.6621094,20.6679688 L15.4902344,20.5820312 C15.4759114,20.5820312 15.4580079,20.5748699 15.4365234,20.5605469 C15.415039,20.5462239 15.3899741,20.5319011 15.3613281,20.5175781 L11.0429688,18.1328125 C10.8424469,18.0182286 10.677735,17.8642588 10.5488281,17.6708984 C10.4199212,17.4775381 10.3483074,17.2662772 10.3339844,17.0371094 C10.3053384,16.8079416 10.3375646,16.5859386 10.4306641,16.3710938 C10.5237635,16.1562489 10.6634105,15.9772143 10.8496094,15.8339844 C11.4368519,15.3756487 11.8378896,14.7203819 12.0527344,13.8681641 C12.2675792,13.0159463 12.375,12.3177111 12.375,11.7734375 L12.375,8.87304688 C12.375,8.37174229 11.9990272,7.79883135 11.2470703,7.15429688 C10.4951134,6.5097624 9.61784355,6.1875 8.61523438,6.1875 C7.64127117,6.1875 6.7640013,6.5097624 5.98339844,7.15429688 C5.20279558,7.79883135 4.8125,8.37174229 4.8125,8.87304688 L4.8125,11.7734375 C4.8125,12.3177111 4.94140496,13.0159463 5.19921875,13.8681641 C5.45703254,14.7203819 5.87955436,15.3756487 6.46679688,15.8339844 C6.63867273,15.9772143 6.77115839,16.1562489 6.86425781,16.3710938 C6.95735724,16.5859386 6.98958348,16.8079416 6.9609375,17.0371094 C6.94661451,17.2662772 6.87500064,17.4775381 6.74609375,17.6708984 C6.61718686,17.8642588 6.45247496,18.0110672 6.25195312,18.1113281 L1.8046875,20.5390625 C1.79036451,20.5390625 1.77604174,20.5426432 1.76171875,20.5498047 C1.74739576,20.5569662 1.73307299,20.5677083 1.71875,20.5820312 C1.66145805,20.5963542 1.60058626,20.6249998 1.53613281,20.6679688 L1.375,20.7753906 L1.375,22 L15.8125,22 Z M20.8398438,15.8984375 L21.4199219,16.2207031 C21.8066426,16.4355479 22,16.714842 22,17.0585938 L22,18.7773438 C22,19.1067725 21.8854178,19.3824859 21.65625,19.6044922 C21.4270822,19.8264985 21.1549495,19.9375 20.8398438,19.9375 L18.5625,19.9375 C18.4765621,19.6367172 18.3870447,19.3717459 18.2939453,19.1425781 C18.2008459,18.9134103 18.0540375,18.7200529 17.8535156,18.5625 L20.625,18.5625 L20.625,17.3378906 C20.582031,17.3092446 20.5319013,17.2770184 20.4746094,17.2412109 C20.4173174,17.2054035 20.3600263,17.1803386 20.3027344,17.1660156 C20.2884114,17.1516926 20.2705079,17.1409506 20.2490234,17.1337891 C20.227539,17.1266276 20.2024741,17.1158855 20.1738281,17.1015625 L15.7910156,14.7167969 C15.5904938,14.602213 15.4257819,14.4482432 15.296875,14.2548828 C15.1679681,14.0615225 15.0963542,13.8502616 15.0820312,13.6210937 C15.0533853,13.3919259 15.0856115,13.1699229 15.1787109,12.9550781 C15.2718104,12.7402333 15.4114574,12.5611986 15.5976562,12.4179688 C16.1848988,11.9453101 16.5966785,11.2828819 16.8330078,10.4306641 C17.0693371,9.57844626 17.1875,8.88737244 17.1875,8.35742188 L17.1875,5.45703125 C17.1875,4.94140367 16.8007851,4.36133135 16.0273438,3.71679688 C15.2539024,3.0722624 14.3658904,2.75 13.3632812,2.75 C12.8762996,2.75 12.4072288,2.82877525 11.9560547,2.98632812 C11.5048806,3.143881 11.1002622,3.3587226 10.7421875,3.63085938 C10.4700507,3.54492145 10.1835953,3.49479174 9.8828125,3.48046875 C9.58202975,3.46614576 9.28841289,3.45182299 9.00195312,3.4375 C9.50325771,2.85025748 10.1477825,2.3561218 10.9355469,1.95507812 C11.7233112,1.55403445 12.5325479,1.35351562 13.3632812,1.35351562 C14.0078157,1.35351562 14.6415984,1.47883989 15.2646484,1.72949219 C15.8876984,1.98014448 16.4427059,2.29882619 16.9296875,2.68554688 C17.4166691,3.07226756 17.8105454,3.50911215 18.1113281,3.99609375 C18.4121109,4.48307535 18.5625,4.97004965 18.5625,5.45703125 L18.5625,8.35742188 C18.5625,9.04492531 18.4121109,9.9150338 18.1113281,10.9677734 C17.8105454,12.0205131 17.2591186,12.861976 16.4570312,13.4921875 L20.8398438,15.8984375 Z" id=""></path>
            </g>
        </g>
    </g>
</svg>