<svg xmlns="http://www.w3.org/2000/svg" width="219" height="219" viewBox="0 0 219 219">
    <g fill="none" fill-rule="evenodd">
        <g transform="translate(1 1)">
            <circle cx="108.5" cy="108.5" r="108.5" fill="#091A36" stroke="#0CF" stroke-width="2"/>
            <circle cx="109" cy="109" r="88" fill="#FFF" stroke="#979797"/>
            <path stroke="#091A36" stroke-dasharray="7" stroke-width="2" d="M108.5 190c45.011 0 81.5-36.489 81.5-81.5S153.511 27 108.5 27 27 63.489 27 108.5 63.489 190 108.5 190z"/>
        </g>
        <g fill-rule="nonzero" transform="translate(63 53)">
            <path fill="#091A36" d="M12.82 82.37h68v2h-68z"/>
            <path fill="#BCC0C4" d="M31.3 23.7a4.53 4.53 0 1 1 4.52-4.53 4.52 4.52 0 0 1-4.52 4.53zm0-7a2.53 2.53 0 1 0 2.52 2.52 2.52 2.52 0 0 0-2.52-2.57v.05z"/>
            <path fill="#E9EAEB" d="M3.4 65.15c-6.536-18.118-1.153-38.39 13.51-50.88C32.544.934 55.128-.415 72.239 10.965c17.11 11.381 24.597 32.73 18.341 52.305l-1.91-.6c5.72-18.3-1.068-38.197-16.78-49.185C56.178 2.497 35.16 2.948 19.934 14.6 4.708 26.252-1.22 46.423 5.28 64.46l-1.88.69z"/>
            <circle cx="8.039" cy="27.564" r="6.53" fill="#FFF" transform="rotate(-85.18 8.039 27.564)"/>
            <path fill="#BCC0C4" d="M8.05 34.59a7 7 0 1 1 0-14 7 7 0 0 1 0 14zm0-13.05a6 6 0 1 0 0 12 6 6 0 0 0 0-12zM7.23 0h2v12.15h-2z"/>
            <path fill="#BCC0C4" d="M2.15 5.08H14.3v2H2.15z"/>
            <path fill="#FFF" d="M60.55 23.2h12.56v23.02H60.55z"/>
            <path fill="#091A36" d="M74.11 47.22H59.55v-25h14.56v25zm-12.56-2h10.56v-21H61.55v21z"/>
            <path fill="#FFF" d="M83.33 102.37H10.08v-40c14.65-14.17 22.17-22.4 36.33-37.05h.33C60.9 39.94 68.68 48.17 83.33 62.34v40.03z"/>
            <path fill="#091A36" d="M84.33 103.37H9.08V61.91l.31-.29c10.88-10.53 17.77-17.72 26.5-26.83 3-3.11 6.17-6.44 9.8-10.2l.3-.3h1.17l6 6.24c10.63 11 18.3 19 30.85 31.09l.3.29.02 41.46zm-73.25-2h71.25V62.76c-12.39-12-20-19.91-30.59-30.84l-5.17-5.36c-3.39 3.52-6.41 6.66-9.24 9.62-8.66 9-15.51 16.19-26.25 26.58v38.61z"/>
            <path fill="#0CF" d="M46.92 23.38L1.46 63.17l6.8 6.79 38.66-32.99 38.61 32.94 6.79-6.79z"/>
            <path fill="#091A36" d="M8.2 71.32L0 63.12l46.92-41.07 46.86 41-8.2 8.2-38.66-33L8.2 71.32zm-5.27-8.1l5.38 5.38 38.61-32.95 38.55 32.9 5.39-5.38-43.94-38.46L2.93 63.22z"/>
            <path fill="#E9EAEB" d="M37.2 67.15h18.54v27.21H37.2z"/>
            <path fill="#091A36" d="M56.74 95.35H36.2v-29.2h20.54v29.2zm-18.54-2h16.54v-25.2H38.2v25.2z"/>
            <path fill="#FFF" d="M72.82 108.07h12v2h-12zM61.82 108.07h7v2h-7zM92.82 110.07h-4v-2h2v-10h2z"/>
        </g>
    </g>
</svg>
