<svg width="77" height="79" xmlns="http://www.w3.org/2000/svg"><g transform="translate(0 -1)" fill="none" fill-rule="evenodd"><circle stroke="#D9DCE0" stroke-width="2" cx="41.5" cy="44.44" r="34.5"/><g fill-rule="nonzero"><path fill="#FFF" d="M51 11.94h8v15h-8z"/><path d="M60 27.94H50v-17h10v17zm-8.626-1.36h7.252V12.3h-7.252v14.28z" fill="#091A36"/><path d="M66 63.94H17V37.464c9.8-9.38 14.83-14.827 24.303-24.524h.22C50.996 22.618 56.2 28.065 66 37.444V63.94z" fill="#FFF"/><path d="M67 64.94H17V37.154l.206-.195c7.23-7.057 11.807-11.876 17.608-17.981 1.993-2.085 4.1-4.317 6.512-6.836l.199-.202h.777l3.987 4.183c7.063 7.372 12.16 12.733 20.498 20.836l.2.195L67 64.94zM18.329 63.6H65.67V37.723C57.44 29.681 52.382 24.38 45.346 17.054l-3.436-3.592c-2.252 2.359-4.259 4.463-6.14 6.447-5.753 6.032-10.305 10.85-17.441 17.814V63.6z" fill="#091A36"/><path fill="#0CF" d="M41.52 11.94L11 38.422l4.565 4.518L41.52 20.985l25.921 21.922L72 38.388z"/><path d="M15.509 43.94L10 38.448 41.52 10.94 73 38.401l-5.509 5.493-25.97-22.103-26.012 22.15zm-3.54-5.425l3.614 3.604 25.937-22.07 25.897 22.036 3.621-3.603-29.518-25.76-29.552 25.793z" fill="#091A36"/><path fill="#E9EAEB" d="M36 40.94h12v18H36z"/><path d="M49 58.94H35v-19h14v19zm-12.637-1.3h11.274V41.241H36.363v16.397z" fill="#091A36"/></g><path d="M18.051 75.845C11.852 71.871 7.575 66.923 5.221 61" stroke="#D9DCE0" stroke-width="2" stroke-linecap="round"/><g fill="#D9DCE0"><path d="M56.892 1.707l1.233 6.607-1.255.237-1.233-6.608zM65.108 3.813l1.014.774-4.086 5.344-1.014-.775zM69.897 9.68l.551 1.15-5.831 2.796-.552-1.15z"/></g><circle stroke="#D9DCE0" fill="#FFF" fill-rule="nonzero" cx="18" cy="19" r="4"/><path d="M2.5 57A2.5 2.5 0 1 1 5 54.5 2.5 2.5 0 0 1 2.5 57z" fill="#D9DCE0" fill-rule="nonzero"/></g></svg>