<svg width="88" height="71" xmlns="http://www.w3.org/2000/svg"><g transform="translate(0 1)" fill="none" fill-rule="evenodd"><circle stroke="#D9DCE0" stroke-width="2" cx="45.344" cy="34.5" r="34.5"/><g fill-rule="nonzero"><path d="M77.825 52.803l9.019-.796v-9.111c0-3.447-12.24-8.286-25.953-8.654C55.128 28.812 45.753 24 40.134 24H29.756c-4.364 0-18.103 8.667-18.103 8.667s-8.708 2.448-8.813 2.757C1.52 39.862.384 45.929 1.03 48.489 1.77 51.431 3.838 53 6.974 53c3.136 0 70.628-.197 70.852-.197z" fill="#FFF"/><path d="M7.575 53c-3.401 0-5.717-1.76-6.526-4.951-.764-3.009.776-9.76 1.809-13.282.118-.422.19-.65 9.131-3.145C13.246 30.87 25.943 23 30.3 23H40.64c5.527 0 14.875 4.548 20.954 10.143 13.046.403 26.25 5.023 26.25 9.207v8.455a2 2 0 0 1-2 2h-15.54C52.278 52.883 10.01 53 7.574 53zM4.049 35.417c-1.23 4.334-2.316 9.98-1.724 12.346.658 2.599 2.474 3.97 5.263 3.97 2.434 0 44.736-.117 62.75-.169H85.56a1 1 0 0 0 1-1V42.35c0-2.794-11.546-7.55-25.224-7.914h-.25l-.184-.169C55.107 28.861 45.844 24.3 40.64 24.3H30.298c-3.408 0-13.92 6.12-17.69 8.447l-.171.078c-3.56 1.02-7.467 2.183-8.388 2.592z" fill="#091A36"/><path d="M71.61 45h1a7 7 0 0 1 0 14h-1a7 7 0 1 1 0-14z" fill="#0CF"/><path d="M71.844 60a8 8 0 1 1 0-16 8 8 0 0 1 0 16zm0-14.685a6.692 6.692 0 1 0 0 13.383 6.692 6.692 0 0 0 0-13.383z" fill="#091A36"/><path d="M20.61 45a7 7 0 0 1 0 14 7 7 0 1 1 0-14z" fill="#0CF"/><path d="M20.844 60a8 8 0 1 1 8-8 8.007 8.007 0 0 1-8 8zm0-14.685a6.692 6.692 0 1 0 0 13.383 6.692 6.692 0 0 0 0-13.383z" fill="#091A36"/><path d="M74.844 52a3 3 0 1 1-6 0 3 3 0 0 1 6 0zM23.844 52a3 3 0 1 1-6 0 3 3 0 0 1 6 0z" fill="#FFF"/><path d="M43.506 27h-6.662v9h20c.85-.5-6-6.241-13.338-9zM34.844 27h-6c-4.306 2.063-7.986 5.141-11 9h17v-9z" fill="#D9DCE0"/></g><g fill="#5F6A7C"><path d="M53.25 7h1.521v7.715H53.25z"/><path d="M50.07 10.188h7.921v1.526h-7.92z"/></g><ellipse stroke="#D9DCE0" fill="#FFF" fill-rule="nonzero" cx="66.833" cy="8" rx="3.989" ry="4"/><path d="M62.868 23.066a3.029 3.029 0 0 1-3.024-3.033A3.029 3.029 0 0 1 62.868 17a3.029 3.029 0 0 1 3.025 3.033c0 .805-.318 1.576-.886 2.145a3.02 3.02 0 0 1-2.139.888z" fill="#D9DCE0" fill-rule="nonzero"/><g fill="#D9DCE0"><path d="M2.26 30.09l6.114-2.794.533 1.16-6.113 2.795zM2.316 21.61l.507-1.172 6.173 2.672-.506 1.171zM6.85 15.544l.983-.814 4.124 4.982-.982.813z"/></g></g></svg>