<svg width="80" height="71" xmlns="http://www.w3.org/2000/svg"><g transform="translate(0 1)" fill="none" fill-rule="evenodd"><path d="M41.5 58.205C57.2 48.51 65.366 39.151 66 30.13c.48-6.83-5.932-12.833-12.966-12.063-4.69.513-8.534 4.03-11.535 10.55-4.078-7.034-8.494-10.55-13.248-10.55-7.131 0-11.656 6.064-11.251 12.063.608 9.021 8.775 18.38 24.5 28.075z" stroke="#091A36" stroke-width="1.5" fill="#FFF"/><path stroke="#0CF" stroke-width="2" d="M7 36.658h20.153L30.655 28l8.09 19.864 4.906-11.314h3.647L49 30.588l4.93 13.145 2.297-7.183H76"/><circle stroke="#D9DCE0" stroke-width="2" cx="41.5" cy="34.5" r="34.5"/><ellipse stroke="#D9DCE0" fill="#FFF" fill-rule="nonzero" cx="15.989" cy="13" rx="3.989" ry="4"/><g fill="#5F6A7C"><path d="M3.406 13h1.522v7.715H3.406z"/><path d="M.227 16.188h7.92v1.526H.228z"/></g><path d="M7.025 9.066A3.029 3.029 0 0 1 4 6.033 3.029 3.029 0 0 1 7.025 3a3.029 3.029 0 0 1 3.025 3.033c0 .805-.32 1.576-.886 2.145a3.02 3.02 0 0 1-2.14.888z" fill="#D9DCE0" fill-rule="nonzero"/><path d="M78.734 47.558c-2.112 7.055-5.69 12.53-10.734 16.426" stroke="#D9DCE0" stroke-width="2" stroke-linecap="round"/><path d="M63.5 70a2.5 2.5 0 1 1 2.5-2.5 2.5 2.5 0 0 1-2.5 2.5z" fill="#D9DCE0" fill-rule="nonzero"/></g></svg>