<svg width="71" height="71" xmlns="http://www.w3.org/2000/svg"><g transform="translate(1 1)" fill="none" fill-rule="evenodd"><circle stroke="#D9DCE0" stroke-width="2" cx="34.5" cy="34.5" r="34.5"/><path d="M21.75 13v9.75H6c-.69 0-1.25.56-1.25 1.25v37c0 .69.56 1.25 1.25 1.25h57c.69 0 1.25-.56 1.25-1.25V24c0-.69-.56-1.25-1.25-1.25H48.25V13c0-.69-.56-1.25-1.25-1.25H23c-.69 0-1.25.56-1.25 1.25zm4.5 9.75V18c0-.966.784-1.75 1.75-1.75h14c.966 0 1.75.784 1.75 1.75v4.75h-17.5z" stroke="#091A36" stroke-width="1.5" fill="#FFF"/><circle stroke="#D9DCE0" fill="#F6F8FA" cx="35" cy="43" r="15"/><path stroke="#091A36" fill="#0CF" fill-rule="nonzero" d="M32.723 45.476H26v-4.843h6.723V34h4.861v6.633h6.723v4.843h-6.723V52h-4.861z"/><ellipse stroke="#D9DCE0" fill="#FFF" fill-rule="nonzero" cx="50.989" cy="4" rx="3.989" ry="4"/><g fill="#5F6A7C"><path d="M60.406 10h1.522v7.715h-1.522z"/><path d="M57.227 13.188h7.92v1.526h-7.92z"/></g><path d="M63.025 6.066A3.029 3.029 0 0 1 60 3.033 3.029 3.029 0 0 1 63.025 0a3.029 3.029 0 0 1 3.025 3.033c0 .805-.32 1.576-.886 2.145a3.02 3.02 0 0 1-2.14.888z" fill="#D9DCE0" fill-rule="nonzero"/><path d="M8.293 66.177c-2.959.05-4.976-.388-6.052-1.312-1.613-1.386-2.2-3.04-1.843-6.42" stroke="#D9DCE0" stroke-width="2" stroke-linecap="round"/></g></svg>