<?xml version="1.0" encoding="UTF-8"?>
<svg width="35px" height="44px" viewBox="0 0 35 44" version="1.1" xmlns="http://www.w3.org/2000/svg" xmlns:xlink="http://www.w3.org/1999/xlink">
    <!-- Generator: sketchtool 53.2 (72643) - https://sketchapp.com -->
    <title>A4F79A1A-2AFD-4B33-BEC7-626E2E9F7474</title>
    <desc>Created with sketchtool.</desc>
    <g id="Page-1" stroke="none" stroke-width="1" fill="none" fill-rule="evenodd">
        <g id="Auto-Insurance" transform="translate(-1215.000000, -1666.000000)" fill="#091A36">
            <path d="M1231.63731,1687.4787 C1231.77951,1693.32225 1233.8537,1698.49387 1237.85986,1702.99356 C1241.25779,1706.8101 1245.89225,1708.85477 1251.76324,1709.12759 C1252.22129,1709.14887 1252.60616,1709.47896 1252.69699,1709.92842 C1252.80638,1710.46975 1252.45623,1710.99726 1251.9149,1711.10666 L1251.9149,1711.10668 C1250.27978,1711.4371 1248.34463,1711.62946 1246.10947,1711.68375 C1237.23056,1711.28446 1230.84497,1707.12279 1226.51699,1701.21012 C1223.74022,1697.41663 1222.06517,1692.83949 1221.49186,1687.4787 L1215.28688,1687.4787 C1214.73459,1687.4787 1214.28688,1687.03098 1214.28688,1686.4787 C1214.28688,1686.23957 1214.37257,1686.00836 1214.52841,1685.82699 L1225.99759,1672.47901 C1226.35752,1672.06012 1226.98888,1672.01233 1227.40777,1672.37225 C1227.44661,1672.40563 1227.48283,1672.44193 1227.51611,1672.48085 L1238.92916,1685.82883 C1239.28807,1686.24859 1239.23875,1686.87983 1238.81898,1687.23874 C1238.63787,1687.3936 1238.40741,1687.4787 1238.16912,1687.4787 L1231.63731,1687.4787 Z" id="Combined-Shape-Copy" transform="translate(1231.500000, 1691.841873) scale(-1, 1) rotate(-105.000000) translate(-1231.500000, -1691.841873) "></path>
        </g>
    </g>
</svg>