<?xml version="1.0" encoding="UTF-8"?>
<svg width="103px" height="89px" viewBox="0 0 103 89" version="1.1" xmlns="http://www.w3.org/2000/svg" xmlns:xlink="http://www.w3.org/1999/xlink">
    <!-- Generator: Sketch 49.3 (51167) - http://www.bohemiancoding.com/sketch -->
    <title>“</title>
    <desc>Created with Sketch.</desc>
    <defs></defs>
    <g id="Page-1" stroke="none" stroke-width="1" fill="none" fill-rule="evenodd" opacity="0.176897321">
        <g id="about-us" transform="translate(-908.000000, -2142.000000)" fill="#FFFFFF">
            <g id="Group-3" transform="translate(0.000000, 2028.000000)">
                <path d="M1005.86914,114.151367 L1005.86914,126.797852 C1001.88149,128.962576 998.890798,132.864718 996.896973,138.504395 C994.903148,144.144071 993.90625,151.578079 993.90625,160.806641 L993.90625,164.737305 L1010.1416,164.737305 L1010.1416,202.676758 L972.202148,202.676758 L972.202148,174.307617 C972.202148,157.103755 974.993462,143.488982 980.576172,133.462891 C986.158882,123.436799 994.589787,116.999689 1005.86914,114.151367 Z M942.636719,114.151367 L942.636719,126.797852 C938.649069,128.962576 935.658376,132.864718 933.664551,138.504395 C931.670726,144.144071 930.673828,151.578079 930.673828,160.806641 L930.673828,164.737305 L946.90918,164.737305 L946.90918,202.676758 L908.969727,202.676758 L908.969727,174.307617 C908.969727,157.103755 911.76104,143.488982 917.34375,133.462891 C922.92646,123.436799 931.357365,116.999689 942.636719,114.151367 Z" id="“"></path>
            </g>
        </g>
    </g>
</svg>