<svg id="Layer_1" data-name="Layer 1" xmlns="http://www.w3.org/2000/svg" viewBox="0 0 375 847"><defs><style>.cls-1{fill:#091a36;}.cls-2{opacity:0.2;isolation:isolate;}.cls-3{fill:#fff;}</style></defs><title>Untitled-1</title><path class="cls-1" d="M375.21,847H0V51.36C49.18,18.78,107.32,4.63,169.94,1.45h.13q4.29-.21,8.61-.33h.1C181.65,1,184.52,1,187.41,1h.27c69,0,134,14.64,187.53,50"/><g class="cls-2"><path class="cls-3" d="M.55,77.19l-1.1-1.66C45,45.35,100.74,29,169.83,25.45h.24c2.8-.14,5.7-.25,8.58-.33h.13c3-.07,5.85-.11,8.63-.11h.27C261.57,25,324.59,41.91,375,75.15l-1.1,1.66C323.82,43.8,261.17,27,187.68,27h-.27c-2.76,0-5.58,0-8.61.11h-.12c-2.84.08-5.73.19-8.56.33H170C101.23,30.94,45.81,47.21.55,77.19Z"/></g></svg>