<svg width="98" height="100" xmlns="http://www.w3.org/2000/svg"><g transform="translate(-4 -2)" fill="none" fill-rule="evenodd"><circle stroke="#D9DCE0" stroke-width="2" cx="55.915" cy="56.384" r="44.5"/><circle stroke="#D9DCE0" fill="#FFF" fill-rule="nonzero" cx="12.415" cy="46.884" r="5"/><g fill="#D9DCE0"><path d="M84.517 2.345l.237 8.666-1.647.048-.237-8.666zM94.558 6.686l1.136 1.191-6.284 5.983-1.136-1.192zM99.475 15.126l.47 1.577-7.993 2.385-.47-1.576z"/></g><g transform="translate(23.415 14.884)"><rect stroke="#091A36" stroke-width="1.5" fill="#FFF" x=".75" y=".75" width="63.5" height="80.5" rx="7"/><rect stroke="#091A36" stroke-width="1.5" fill="#FFF" x="8.75" y="8.75" width="47.5" height="65.5" rx="2"/><rect stroke="#091A36" fill="#0CF" x="13.5" y="13.5" width="38" height="11" rx="1"/><rect stroke="#D9DCE0" fill="#F6F8FA" x="13.5" y="28.5" width="38" height="11" rx="1"/><rect stroke="#D9DCE0" fill="#F6F8FA" x="13.5" y="43.5" width="38" height="11" rx="1"/><rect stroke="#D9DCE0" fill="#F6F8FA" x="13.5" y="58.5" width="38" height="11" rx="1"/></g><path d="M10.78 77.852c-3.83-6.29-5.505-12.612-5.025-18.968" stroke="#D9DCE0" stroke-width="2" stroke-linecap="round"/><path d="M13.915 85.884a2.5 2.5 0 1 1 2.5-2.5 2.5 2.5 0 0 1-2.5 2.5z" fill="#D9DCE0" fill-rule="nonzero"/></g></svg>