<svg width="23" height="19" xmlns="http://www.w3.org/2000/svg"><path d="M22.125 2.531c-.563.875-1.312 1.656-2.25 2.344v.563c0 3.28-1.18 6.257-3.54 8.93-2.358 2.671-5.491 4.007-9.398 4.007-2.5 0-4.812-.687-6.937-2.063.5.063.86.094 1.078.094 2.094 0 3.969-.656 5.625-1.968a4.563 4.563 0 0 1-2.625-.915 4.294 4.294 0 0 1-1.594-2.226c.375.062.657.094.844.094.313 0 .719-.063 1.219-.188-1.031-.219-1.899-.742-2.602-1.57A4.32 4.32 0 0 1 .891 6.75v-.047c.687.375 1.375.563 2.062.563C1.61 6.39.938 5.125.938 3.469c0-.782.203-1.531.609-2.25 2.406 2.969 5.515 4.547 9.328 4.734-.063-.219-.094-.562-.094-1.031 0-1.281.438-2.36 1.313-3.234.875-.876 1.953-1.313 3.234-1.313s2.375.484 3.281 1.453c.938-.156 1.907-.531 2.907-1.125-.313 1.094-.985 1.938-2.016 2.531.969-.093 1.844-.328 2.625-.703z" fill="#5F6A7C" fill-rule="nonzero"/></svg>