<svg width="100" height="103" xmlns="http://www.w3.org/2000/svg"><g transform="translate(1.415 -3)" fill="none" fill-rule="evenodd"><circle stroke="#D9DCE0" stroke-width="2" cx="44.5" cy="56.384" r="44.5"/><circle stroke="#D9DCE0" fill="#FFF" fill-rule="nonzero" cx="22.585" cy="93" r="5"/><g fill="#D9DCE0"><path d="M98.441 77.444l-8.494 1.738-.333-1.613 8.494-1.738zM95.91 88.087l-.976 1.325-6.983-5.15.976-1.325zM88.451 94.394l-1.47.738-3.738-7.458 1.47-.737z"/></g><path d="M15.585 12.16c5.776-4.568 11.847-7 18.214-7.299" stroke="#D9DCE0" stroke-width="2" stroke-linecap="round"/><path d="M15.085 106a2.5 2.5 0 1 1 2.5-2.5 2.5 2.5 0 0 1-2.5 2.5z" fill="#D9DCE0" fill-rule="nonzero"/><g fill="#5F6A7C"><path d="M6.331 90h2v8h-2z"/><path d="M3.331 93h8v2h-8z"/></g><g fill-rule="nonzero"><path d="M15.587 30.025H12.43a4.64 4.64 0 0 1-3.448-1.438A5.044 5.044 0 0 1 7.588 25v50.007a5.043 5.043 0 0 0 1.39 3.55A4.642 4.642 0 0 0 12.39 80h3.159l.04-49.975z" fill="#E9EAEB"/><path d="M7.588 24.971a5.002 5.002 0 0 0 1.438 3.573A4.881 4.881 0 0 0 12.556 30h63.031V20h-63.03a4.881 4.881 0 0 0-3.51 1.436 5 5 0 0 0-1.46 3.535z" fill="#E9EAEB"/><path d="M76.563 30h-1.646v-9.322H12.38c-1.097-.009-1.8-.156-3.024.581-1.223.737-1.123 3.496-1.123 4.615H6.587c0-1.568.312-4.859 1.64-5.874 1.327-1.015 2.64-1.015 4.178-1h64.182l-.024 11z" fill="#091A36"/><path d="M33.362 17.304L44.24 5.792l10.012 9.836 13.64 13.98H20.587z" fill="#0CF"/><path fill="#091A36" d="M20.743 30l-1.156-1.158L43.637 5l23.95 23.842L66.424 30 43.637 7.308z"/><path d="M55.587 30l-7.993-8c-2.324 2.317-4.648 2.317-6.972 0l-8.035 7.992" fill="#E9EAEB"/><path d="M32.78 30l-1.193-1.18L40.5 20l.596.59c2.08 2.06 3.944 2.06 6.025 0l.596-.59 8.87 8.829L55.396 30l-7.704-7.674c-2.358 1.968-4.809 1.968-7.167 0L32.779 30z" fill="#091A36"/><path d="M84.587 80H12.613a4.971 4.971 0 0 1-3.57-1.443 4.923 4.923 0 0 1-1.455-3.55V25a4.926 4.926 0 0 0 1.455 3.55 4.971 4.971 0 0 0 3.57 1.442h71.974V80z" fill="#FFF"/><path d="M84.587 81H12.39a5.717 5.717 0 0 1-4.12-1.689 5.796 5.796 0 0 1-1.682-4.145V25h1.639a4.14 4.14 0 0 0 1.203 2.978 4.084 4.084 0 0 0 2.96 1.205h72.197V81zM8.227 29.126v46.04a4.14 4.14 0 0 0 1.203 2.978 4.084 4.084 0 0 0 2.96 1.205h70.558V30.866H12.39a5.785 5.785 0 0 1-4.164-1.74z" fill="#091A36"/><path d="M59.943 45.28h28.054c.545 1.36.818 3.188.818 5.485 0 1.631.84 5.76.564 9.42-.074.995-.535 2.162-1.382 3.501H59.943c-2.978-1.306-4.855-2.473-5.63-3.502-.776-1.028-1.42-3.204-1.933-6.528.39-1.693.797-2.892 1.223-3.597.426-.706 2.54-2.298 6.34-4.778z" fill="#0CF"/><path d="M85.502 64H61.506c-5.478 0-9.919-4.477-9.919-10s4.441-10 9.92-10h23.995c2.245.027 4.059 1.855 4.085 4.119V59.84c-.004 2.28-1.824 4.133-4.085 4.16zM61.506 45.647c-4.575 0-8.285 3.74-8.285 8.353 0 4.613 3.71 8.353 8.285 8.353h23.996a2.51 2.51 0 0 0 2.451-2.513V48.16a2.51 2.51 0 0 0-2.45-2.471l-23.997-.042z" fill="#091A36"/><path d="M59.638 54.635a4 4 0 1 1 7.898-1.27 4 4 0 0 1-7.898 1.27z" fill="#FFF"/><path d="M63.63 59a5.112 5.112 0 0 1-.825-.058 4.998 4.998 0 0 1-2.746-8.482 4.997 4.997 0 0 1 8.359 4.83 4.998 4.998 0 0 1-4.82 3.71h.032zm0-8.35a3.298 3.298 0 0 0-2.375.982 3.359 3.359 0 0 0-.94 2.904 3.39 3.39 0 0 0 2.78 2.772 3.356 3.356 0 0 0 3.842-3.844 3.399 3.399 0 0 0-2.779-2.78 3.776 3.776 0 0 0-.528-.034z" fill="#091A36"/></g></g></svg>