<svg width="21" height="17" xmlns="http://www.w3.org/2000/svg"><path d="M20.877 4.111a79.109 79.109 0 0 1 0 8.778c0 .93-.294 1.715-.882 2.358-.588.643-1.306.964-2.153.964-2.106.11-4.553.164-7.342.164-2.79 0-5.236-.055-7.342-.164-.847 0-1.565-.321-2.153-.964-.588-.643-.882-1.429-.882-2.358A79.109 79.109 0 0 1 0 8.5c0-.957.055-2.42.164-4.389 0-.93.287-1.715.861-2.358C1.6 1.11 2.311.789 3.158.789 5.154.68 7.478.625 10.131.625h.738c2.652 0 4.977.055 6.973.164.847 0 1.565.321 2.153.964.588.643.882 1.429.882 2.358zM8.49 12.52l5.947-4.02L8.49 4.44v8.08z" fill="#5F6A7C" fill-rule="nonzero"/></svg>