<?xml version="1.0" encoding="UTF-8"?>
<svg width="41px" height="66px" viewBox="0 0 41 66" version="1.1" xmlns="http://www.w3.org/2000/svg" xmlns:xlink="http://www.w3.org/1999/xlink">
    <!-- Generator: sketchtool 53.2 (72643) - https://sketchapp.com -->
    <title>CF95174E-06C0-4ADF-B7FD-67AEF7B99D03</title>
    <desc>Created with sketchtool.</desc>
    <g id="Page-1" stroke="none" stroke-width="1" fill="none" fill-rule="evenodd">
        <g id="Main-State" transform="translate(-448.000000, -1636.000000)" fill="#D9DCE0">
            <g id="Group-18" transform="translate(391.000000, 1559.000000)">
                <path d="M89.521,77 L60.021,77 L60.657,78.034 L61.214,78.272 L57,119.143 L57.795,139.896 C59.544,139.418 60.578,141.804 60.896,140.611 C61.214,139.418 61.214,135.443 62.327,135.999 C63.44,136.556 63.838,137.51 63.202,138.306 C62.566,139.101 64.236,140.214 64.236,140.214 C65.11,141.089 65.11,141.804 63.599,141.804 C62.089,141.804 63.122,142.758 65.588,141.963 C68.052,141.167 69.722,139.418 69.007,138.464 C68.291,137.51 70.278,136.795 68.449,135.443 C66.621,134.091 66.223,133.534 66.78,133.137 C67.337,132.739 67.496,131.686 67.178,131.686 L96.597,131.686 C96.597,130.514 94.927,128.843 95.484,127.252 C96.041,125.663 96.678,124.232 95.643,122.721 C94.61,121.21 94.61,119.858 95.405,118.904 C96.199,117.95 95.882,116.598 96.28,115.882 C96.678,115.167 98.566,115.195 96.915,113.338 C96.28,112.623 97.949,112.384 96.28,110.476 C95.354,109.417 94.689,106.341 94.689,106.341 L89.521,77" id="Fill-433"></path>
            </g>
        </g>
    </g>
</svg>