<?xml version="1.0" encoding="UTF-8"?>
<svg width="71px" height="56px" viewBox="0 0 71 56" version="1.1" xmlns="http://www.w3.org/2000/svg" xmlns:xlink="http://www.w3.org/1999/xlink">
    <!-- Generator: sketchtool 53.2 (72643) - https://sketchapp.com -->
    <title>83DA3953-CBF7-4078-BBE8-A84F2C9AEC8C</title>
    <desc>Created with sketchtool.</desc>
    <g id="Page-1" stroke="none" stroke-width="1" fill="none" fill-rule="evenodd">
        <g id="Main-State" transform="translate(-556.000000, -1641.000000)" fill="#D9DCE0">
            <g id="Group-18" transform="translate(391.000000, 1559.000000)">
                <path d="M216.3924,114.428115 L216.3924,87.0201154 C215.3064,86.1211154 211.8304,85.5121154 209.7474,85.9711154 C209.0694,86.1211154 204.5964,83.8751154 202.6974,84.0251154 C200.7994,84.1751154 197.2724,84.7731154 197.1384,83.7251154 C197.0014,82.6761154 194.0194,84.0251154 193.4774,82.8271154 C192.9344,81.6291154 190.7654,81.7791154 189.0024,82.9761154 C187.2404,84.1751154 184.9344,82.6761154 183.3084,84.4741154 C181.6814,86.2711154 181.5634,84.0251154 178.9694,87.1701154 C176.3744,90.3151154 173.8164,88.2181154 173.8164,89.7161154 C173.8164,91.2141154 175.4074,91.0641154 176.3744,91.9631154 C177.3424,92.8611154 177.6134,94.9591154 180.7324,94.8071154 C183.8504,94.6571154 183.4434,96.6061154 182.0874,97.2041154 C180.7324,97.8021154 176.3924,97.5051154 178.1554,96.6051154 C179.9184,95.7071154 176.3924,95.2571154 175.0374,96.3051154 C173.6814,97.3541154 173.5464,97.5051154 172.1894,97.9541154 C170.8334,98.4021154 169.6524,98.7631154 173.0024,99.7501154 C175.0374,100.349115 172.3434,101.248115 174.3584,101.697115 C176.3744,102.147115 179.2394,101.249115 179.7824,102.297115 C180.3254,103.344115 181.5454,100.050115 182.7654,100.948115 C183.9854,101.848115 183.3084,105.592115 182.4954,105.292115 C181.6814,104.992115 180.0534,104.692115 179.7824,105.592115 C179.5124,106.490115 177.1704,104.993115 176.3744,106.940115 C175.5794,108.887115 173.1794,110.080115 175.4444,112.630115 C176.3744,113.679115 174.5934,112.632115 176.3744,114.578115 C178.1554,116.525115 179.3754,117.274115 180.4614,115.476115 C181.5454,113.679115 181.1384,117.572115 181.8164,119.220115 C182.4954,120.867115 181.8154,119.053115 183.4434,118.921115 C187.1044,118.621115 184.5274,121.167115 187.5114,119.520115 C190.4944,117.872115 190.0874,119.520115 188.4604,121.617115 C186.8334,123.713115 184.2574,126.707115 182.4954,127.607115 C180.7324,128.506115 175.4444,132.100115 172.0534,133.598115 C168.6644,135.096115 159.0704,140.005115 170.2904,135.994115 C174.9004,134.347115 178.4264,130.303115 183.1724,130.303115 C187.9184,130.303115 183.7144,129.404115 186.1554,127.907115 C188.5954,126.409115 190.4944,123.562115 192.2574,122.514115 C194.0194,121.467115 196.1894,118.022115 194.9694,117.872115 C193.7484,117.722115 196.4604,113.530115 198.9014,112.481115 C201.3424,111.432115 200.3934,112.632115 198.9014,115.476115 C197.4094,118.322115 199.3074,118.022115 202.9684,116.375115 C206.6294,114.727115 203.7824,110.982115 206.6294,112.780115 C209.4754,114.577115 210.8314,115.775115 213.6804,115.775115 C216.5264,115.775115 220.0534,115.775115 224.6624,122.964115 C229.2734,130.154115 230.2224,131.651115 231.5784,130.902115 C232.9344,130.154115 236.0524,131.501115 235.2384,128.056115 C234.4254,124.612115 234.1544,127.308115 231.7134,124.012115 C229.2734,120.717115 225.6124,114.878115 224.6624,116.075115 C223.7134,117.274115 222.9084,119.515115 221.8164,117.274115 C220.8654,115.325115 220.1874,114.577115 216.3924,114.428115" id="Fill-434"></path>
            </g>
        </g>
    </g>
</svg>