<?xml version="1.0" encoding="UTF-8"?>
<svg width="47px" height="54px" viewBox="0 0 47 54" version="1.1" xmlns="http://www.w3.org/2000/svg" xmlns:xlink="http://www.w3.org/1999/xlink">
    <!-- Generator: sketchtool 53.2 (72643) - https://sketchapp.com -->
    <title>F758778B-D333-4D3B-B2DE-092CCBDF893C</title>
    <desc>Created with sketchtool.</desc>
    <g id="Page-1" stroke="none" stroke-width="1" fill="none" fill-rule="evenodd">
        <g id="Main-State" transform="translate(-691.000000, -1642.000000)" fill="#D9DCE0">
            <g id="Group-18" transform="translate(391.000000, 1559.000000)">
                <path d="M307.45,83 L344.952,83 L346.608,136.231 L330.217,136.231 L300,125.303 C300,125.303 300.331,121.494 301.49,122.074 C302.649,122.654 303.726,120.336 302.318,119.922 C300.911,119.508 300.249,116.362 301.325,115.782 C302.401,115.203 302.887,113.548 302.732,111.229 C302.649,109.988 304.123,108.636 304.636,109.491 C304.884,109.904 307.45,108.332 304.636,107.173 C303.448,106.683 303.891,106.511 302.815,104.276 C301.738,102.04 301.407,99.805 302.235,99.557 C303.064,99.309 302.069,96.577 301.987,94.755 C301.904,92.934 299.586,90.533 301.325,90.285 C303.064,90.037 304.884,89.539 305.298,90.699 C305.712,91.858 306.623,92.106 306.954,90.202 L307.45,83" id="Fill-448"></path>
            </g>
        </g>
    </g>
</svg>