<?xml version="1.0" encoding="UTF-8"?>
<svg width="56px" height="48px" viewBox="0 0 56 48" version="1.1" xmlns="http://www.w3.org/2000/svg" xmlns:xlink="http://www.w3.org/1999/xlink">
    <!-- Generator: sketchtool 53.2 (72643) - https://sketchapp.com -->
    <title>FB1E2C1C-FC27-4030-B3AC-21A30F9753A5</title>
    <desc>Created with sketchtool.</desc>
    <g id="Page-1" stroke="none" stroke-width="1" fill="none" fill-rule="evenodd">
        <g id="Main-State" transform="translate(-810.000000, -1645.000000)" fill="#D9DCE0">
            <g id="Group-18" transform="translate(391.000000, 1559.000000)">
                <path d="M419,86 L460.977,86 C462.998,86 464.604,86.34 467.581,86.34 C470.504,86.34 469.742,88.619 469.283,89.46 C468.432,91.019 466.305,92.721 466.305,92.721 C467.866,93.146 474.158,92.368 474.247,93.856 C474.388,96.267 469.567,98.535 469.567,104.917 C469.567,107.365 464.745,109.172 463.61,114.276 C463.195,116.153 460.374,118.353 460.349,119.665 C460.329,120.677 456.746,124.927 457.655,126.614 C458.174,127.58 459.049,128.829 458.931,130.018 C458.811,131.206 459.356,133.032 455.982,133.032 C454.198,133.032 425.537,133.032 425.537,133.032 L425.537,125.71 L420.661,125.71 L421.022,100.268 L419,86" id="Fill-449"></path>
            </g>
        </g>
    </g>
</svg>