<?xml version="1.0" encoding="UTF-8"?>
<svg width="59px" height="64px" viewBox="0 0 59 64" version="1.1" xmlns="http://www.w3.org/2000/svg" xmlns:xlink="http://www.w3.org/1999/xlink">
    <!-- Generator: sketchtool 53.2 (72643) - https://sketchapp.com -->
    <title>3201CF4C-A01C-4C39-A6CF-663D190841FA</title>
    <desc>Created with sketchtool.</desc>
    <g id="Page-1" stroke="none" stroke-width="1" fill="none" fill-rule="evenodd">
        <g id="Main-State" transform="translate(-931.000000, -1637.000000)" fill="#D9DCE0">
            <g id="Group-18" transform="translate(391.000000, 1559.000000)">
                <path d="M595.2485,125.315071 L564.85543,98.2601344 L564.85543,78 L541.136715,78 C541.019135,78.9521135 540.184601,79.4291262 541.019135,79.9061389 C541.852712,80.3831516 542.92623,83.1238237 540.779194,86.4610007 C538.635027,89.7991337 541.494236,90.2761464 542.449217,91.943301 C543.402286,93.6133234 543.760763,96.5920239 543.760763,98.1415982 C543.760763,99.6911725 546.408709,101.388917 547.216476,102.311397 C548.884587,104.219447 546.739463,103.860971 549.004079,105.292009 C551.268694,106.722091 551.149202,107.913189 551.149202,109.583211 C551.149202,111.251322 553.175789,112.681404 553.771338,112.322928 C554.366887,111.966363 555.081928,114.230978 554.366887,114.349515 C553.651846,114.469007 553.651846,115.422076 554.366887,116.733622 C555.081928,118.044212 560.445692,123.407976 561.280225,125.315071 C562.049755,127.075907 559.969635,128.293771 561.875774,128.890276 C563.782869,129.485825 567.00151,128.652248 568.42968,130.320358 C569.861674,131.987513 572.005841,132.584974 572.959867,131.987513 C573.91198,131.391964 573.532473,134.980553 575.46251,134.015056 C576.41558,133.538043 580.22977,137.233697 580.945767,142 L595.604109,140.68941 C596.558134,140.213353 596.081121,138.425751 595.36608,138.544287 C594.651995,138.662823 593.875774,136.379089 595.604109,135.802659 C596.321062,135.56463 595.963541,134.372577 596.081121,132.941538 C596.198702,131.512412 599.059822,130.439851 598.346693,130.201822 C597.630696,129.962838 595.724557,127.817715 595.36608,126.983181 C595.009516,126.149604 595.2485,125.315071 595.2485,125.315071" id="Fill-450"></path>
            </g>
        </g>
    </g>
</svg>