<?xml version="1.0" encoding="UTF-8"?>
<svg width="77px" height="50px" viewBox="0 0 77 50" version="1.1" xmlns="http://www.w3.org/2000/svg" xmlns:xlink="http://www.w3.org/1999/xlink">
    <!-- Generator: sketchtool 53.2 (72643) - https://sketchapp.com -->
    <title>990E2094-1E81-4F64-A6C3-46DB9A7AD5EB</title>
    <desc>Created with sketchtool.</desc>
    <g id="Page-1" stroke="none" stroke-width="1" fill="none" fill-rule="evenodd">
        <g id="Main-State" transform="translate(-1168.000000, -1644.000000)" fill="#D9DCE0">
            <g id="Group-18" transform="translate(391.000000, 1559.000000)">
                <path d="M779.58,134.448 L777,130.363 L786.46,124.343 L783.665,120.903 L786.245,85 C786.245,85 811.829,85.646 812.903,85.646 L812.903,87.581 L814.623,87.581 L815.268,85.646 L822.148,86.29 C825.372,85.431 846.656,86.505 852.461,86.505 L853.106,114.669 C851.816,114.884 851.172,116.818 852.031,118.754 C852.891,120.689 849.021,118.969 844.076,120.044 C839.132,121.118 830.747,121.979 827.308,122.624 C823.868,123.269 817.418,121.763 813.334,123.053 C809.249,124.343 809.033,122.839 809.893,120.903 C810.754,118.969 806.669,124.343 803.874,125.418 C801.078,126.494 802.584,128.644 801.078,127.998 C799.573,127.353 796.779,128.429 791.188,130.578 C787.772,131.893 782.16,134.879 779.58,134.448" id="Fill-452"></path>
            </g>
        </g>
    </g>
</svg>