<?xml version="1.0" encoding="UTF-8"?>
<svg width="28px" height="68px" viewBox="0 0 28 68" version="1.1" xmlns="http://www.w3.org/2000/svg" xmlns:xlink="http://www.w3.org/1999/xlink">
    <!-- Generator: sketchtool 53.2 (72643) - https://sketchapp.com -->
    <title>B3CEE298-3431-4603-BDBA-260E999A18E0</title>
    <desc>Created with sketchtool.</desc>
    <g id="Page-1" stroke="none" stroke-width="1" fill="none" fill-rule="evenodd">
        <g id="Main-State" transform="translate(-1316.000000, -1635.000000)" fill="#D9DCE0">
            <g id="Group-18" transform="translate(391.000000, 1559.000000)">
                <path d="M948.219782,133.940293 C948.761793,134.223081 949.284446,134.88797 949.672438,134.909011 C951.540861,135.013373 951.160444,136.051105 948.926753,135.936643 C948.545493,135.917286 948.213049,136.564501 947.863772,137.024032 C947.711436,137.22939 943.968699,136.875063 944.033505,137.129236 C944.187523,137.749519 947.554051,136.973534 947.389933,137.850514 C947.337752,138.11647 947.006149,137.976759 946.937976,138.161918 C946.317694,139.856965 947.076846,139.719779 947.452214,138.656798 C947.719852,137.892596 948.282063,138.03399 948.633865,137.608124 C949.292862,136.812782 950.482088,136.726094 950.482088,137.645998 C950.482088,139.04479 951.594726,138.346236 951.594726,137.180575 C951.594726,136.014915 952.110646,135.004957 952.268031,136.714311 C952.422891,138.423666 952.655182,142.695789 952.734295,143.862291 C951.024099,144.326872 928.651841,143.473457 928.263007,143.395185 C928.263007,143.395185 925.07743,83.9658752 925,82.1790907 C925.855098,80.9351588 930.058208,72.9312397 937.895484,77.2850014 C939.293434,78.060986 936.887209,78.1384161 936.031269,80.0034723 C935.177013,81.8685286 933.854809,84.8975617 933.312798,85.0524219 C932.768262,85.2081238 930.670916,86.7617763 931.914006,87.9274364 C933.156255,89.0922549 933.779062,89.4810889 932.923122,92.1995598 C932.069708,94.919714 932.768262,94.5308801 933.467658,95.3842948 C934.166213,96.2402345 934.71159,97.6390266 935.565005,99.3466977 C936.420945,101.056052 936.962955,100.124366 937.972914,102.066852 C938.98203,104.008497 939.83797,105.173315 939.449978,107.815198 C939.061985,110.456238 938.789297,112.902021 939.83797,113.951536 C940.459094,114.57266 943.488127,117.137112 942.946116,119.933855 C942.401581,122.730598 943.488127,119.778153 945.431455,123.507424 C947.371417,127.236695 950.246431,128.557215 950.636107,127.469827 C951.024099,126.381597 951.335503,126.693001 951.490363,128.247495 C951.647748,129.800305 952.268031,134.150701 952.346303,135.004957 C952.422891,135.860055 951.412092,135.004957 951.490363,133.917569 C951.568635,132.831022 951.552644,131.786557 949.222165,132.175391 C948.829965,132.241038 950.631057,134.86188 949.776801,134.355217 C947.146701,132.798198 947.353743,133.490861 948.219782,133.940293" id="Fill-453"></path>
            </g>
        </g>
    </g>
</svg>