<?xml version="1.0" encoding="UTF-8"?>
<svg width="59px" height="60px" viewBox="0 0 59 60" version="1.1" xmlns="http://www.w3.org/2000/svg" xmlns:xlink="http://www.w3.org/1999/xlink">
    <!-- Generator: sketchtool 53.2 (72643) - https://sketchapp.com -->
    <title>2B05A7A1-61FC-4BDF-8F43-6ECD9C44536E</title>
    <desc>Created with sketchtool.</desc>
    <g id="Page-1" stroke="none" stroke-width="1" fill="none" fill-rule="evenodd">
        <g id="Main-State" transform="translate(-1423.000000, -1639.000000)" fill="#D9DCE0">
            <g id="Group-18" transform="translate(391.000000, 1559.000000)">
                <g id="Group-22" transform="translate(1032.000000, 80.000000)">
                    <path d="M55.7955932,51.9543154 C56.2645678,50.7861004 55.8741972,50.0844671 56.6549384,48.5271406 C57.4365628,46.9689337 58.7657659,39.4129507 57.7500958,36.6874092 C56.7335425,33.9609873 52.8271868,25.5484307 54.3895524,23.4452916 C53.8419737,22.2779569 49.3880394,14.4103326 48.685019,10.2040543 C47.9811154,5.99777604 47.1217702,4.59627018 47.4344199,3.03806328 C45.8720543,2.49225069 43.3708562,1.24656552 43.1359273,1.71402759 C42.9018815,2.18060931 42.5892318,2.95971276 42.9804856,3.73881621 C43.3708562,4.51791966 42.8232775,6.38776794 42.1193739,6.07524621 C41.4172368,5.76448518 41.4958408,5.45196346 41.3395159,4.05045759 L21.2548597,2.80389207 L20.0051438,0 L0.313507793,0 C0.313507793,0 0.391228638,0.467462069 0.15718291,0.779103449 C-0.0777460091,1.09074483 0.781599248,2.49225069 1.48550281,2.7264219 C2.18852319,2.95971276 1.48550281,4.12792776 1.48550281,4.43956914 C1.48550281,4.75121052 2.38900764,4.74768915 2.26624404,5.29702311 C2.10991915,5.9968957 0.0794620647,7.18271756 1.48461962,6.69852897 C3.51684309,5.9968957 4.92376704,5.84195535 6.1743661,5.91942552 C7.42408196,5.99777604 11.8788995,5.0628519 14.4569353,8.02344501 C17.0367374,10.9822774 17.1921791,9.34660036 17.8960827,12.2288429 L20.5527225,12.0730223 C21.9587633,11.6839107 24.7726111,8.80166811 25.943723,8.64584742 C27.1166012,8.49002673 30.3985405,8.9574888 31.1024441,11.2164486 C31.8054645,13.4745281 32.2744391,11.0606279 32.5084848,12.7746555 C32.7425306,14.4878028 34.2271754,14.2545119 34.9310789,16.2793005 C35.6340993,18.3049695 35.7913074,15.2669062 36.8069775,17.4475155 C37.8226477,19.6290052 38.631651,21.8747599 37.1187441,25.8600721 C36.0244699,28.7414343 37.6654396,30.6896331 38.447064,32.948593 C39.2295716,35.2075528 41.9639323,41.1269783 42.1988612,41.7502611 C42.5062118,42.5654586 43.683506,40.6595163 44.2310846,42.8401256 C44.7777801,45.0216152 45.1672676,48.292089 45.7148462,46.8122326 C46.3904877,44.9855212 48.2937652,47.9029775 48.8413439,49.4611844 C49.3880394,51.0193913 48.7627398,54.2916257 50.1687806,53.979104 C51.5765877,53.668343 55.3275017,53.1225304 55.7955932,51.9543154" id="Fill-454"></path>
                    <path d="M49.4451105,58 C49.2854158,58 49.1523368,57.8864042 49.1231453,57.7225957 C49.0930952,57.5513788 49.1883969,57.3925093 49.3558188,57.3357113 C50.0821725,57.0887639 50.6866087,56.6854164 51.3279635,56.2573741 C51.6739689,56.0260667 52.0328529,55.7873508 52.4097669,55.5774455 L52.7025406,55.4185759 C52.8201653,55.3551928 52.9420828,55.2909864 53.0622832,55.2226643 C53.0674346,55.1140074 53.129252,55.0176979 53.2357152,54.9609 C53.4546515,54.8448347 53.5284889,54.6250514 53.6134878,54.3706956 C53.7070723,54.0932913 53.8126769,53.7788448 54.1406522,53.58211 C54.1930253,53.5491837 54.253984,53.5327205 54.3183771,53.5327205 C54.3759015,53.5327205 54.4299917,53.5458911 54.4789304,53.5681163 C54.4909505,53.5146111 54.5003948,53.4545205 54.5089805,53.3911373 C54.5295863,53.2421457 54.5536264,53.0725751 54.653221,52.9062972 C54.7571084,52.7334339 54.9348333,52.6305392 55.0928109,52.5391686 C55.151194,52.5054191 55.2087184,52.4716696 55.26195,52.4354507 C55.3134645,52.3490191 55.4061905,52.2280148 55.5075022,52.1119495 C55.5701781,52.0395116 55.6586112,52 55.753913,52 C55.8663862,52 55.979718,52.0567979 56.0492625,52.1465222 C56.1145141,52.2313074 56.1342613,52.3366717 56.1033526,52.4338044 C56.0312324,52.6585265 55.8835577,52.7943476 55.7624987,52.8881877 C55.6028039,53.1153793 55.435382,53.3870215 55.26796,53.6586637 L55.0807909,53.9599396 C55.0515994,54.0249691 55.0069535,54.0974071 54.9511462,54.164906 C54.7794314,54.8991631 54.1500966,55.3609549 53.5542461,55.715736 C53.3997028,55.8499108 53.2236951,55.9700919 53.0511217,56.0581698 C52.9987487,56.0836877 52.9446585,56.0968583 52.8897098,56.0968583 L52.8794069,56.0968583 C52.5136543,56.3051173 52.1573461,56.5388942 51.8121993,56.7660859 C51.1167543,57.2237618 50.3981278,57.6962546 49.5653109,57.979421 C49.5249579,57.9925916 49.4854635,58 49.4451105,58" id="Fill-455"></path>
                    <path d="M43.467547,60 C43.2698318,60 43.123111,59.8275499 43.1177432,59.5888538 C43.11327,59.3427971 43.2653586,59.1493165 43.4711255,59.1377497 C44.1555242,59.1030494 44.7808767,58.8664564 45.2809798,58.4542587 C45.4518558,58.3133544 45.5645803,58.1209253 45.6862511,57.9169295 C45.7945024,57.7329127 45.9072269,57.5436383 46.0673673,57.382755 C46.2659771,57.1829653 46.459219,57.0820189 46.6587235,57.0746583 C46.7642909,57.0294427 46.9280098,57 47.0881501,57 C47.5336802,57 47.8915357,57.2134595 48.0695688,57.5867508 C48.118774,57.6876972 48.1304043,57.8107256 48.1035651,57.9242902 C48.0767259,58.0336488 48.0158905,58.1230284 47.9326891,58.1756046 C47.7090294,58.320715 47.5086303,58.3396425 47.3413329,58.3396425 C47.2643939,58.3396425 47.1829818,58.3343849 47.0970965,58.3291272 L47.0308932,58.3249211 C46.9512704,58.320715 46.87791,58.2870662 46.8188638,58.2313354 C46.6998769,58.2092534 46.6023612,58.1566772 46.5200545,58.0715037 C46.4091193,58.1861199 46.300868,58.3838065 46.2176666,58.5362776 C46.1747239,58.615142 46.1344652,58.6876972 46.0995742,58.7423764 C45.9134894,59.0325973 45.6442031,59.2229232 45.4294898,59.3564669 C44.7790874,59.7602524 44.1617867,59.9652997 43.4854398,60 L43.467547,60" id="Fill-456"></path>
                    <path d="M41.526609,60 C41.3936449,60 41.2750554,59.8953245 41.2499,59.764829 C41.1672467,59.7159805 41.1169359,59.6301465 41.1176547,59.5268667 C41.1212483,59.2526169 41.2527749,59.0551291 41.4590489,59.0111654 C41.492829,59.0034892 41.526609,59 41.5611078,59 C41.7012591,59 41.8414104,59.060014 41.947063,59.1653873 C42.0620589,59.2791347 42.1684302,59.4801117 42.0915266,59.6692254 C41.9729371,59.9567341 41.6566982,59.9881368 41.5524831,59.9986043 L41.526609,60" id="Fill-457"></path>
                    <path d="M36.517299,59 C36.3144166,59 36.1427469,58.8698413 36.1203128,58.6984127 C36.0978787,58.5349206 36.2188278,58.3968254 36.4158578,58.3611111 C36.6089862,58.3246032 36.7933361,58.2611111 36.9884153,58.1928571 C37.1893469,58.1230159 37.3971063,58.0515873 37.6233982,58.0095238 L37.6429061,58.0055556 L37.7180116,58 C37.920894,58 38.0915884,58.1301587 38.1149979,58.3015873 C38.137432,58.4642857 38.0155075,58.6031746 37.8204282,58.6396825 C37.6243736,58.6753968 37.4400237,58.7396825 37.2459199,58.8071429 C37.0459637,58.8769841 36.8372289,58.9492063 36.6119124,58.9912698 L36.5924045,58.9944444 L36.517299,59" id="Fill-458"></path>
                </g>
            </g>
        </g>
    </g>
</svg>