<?xml version="1.0" encoding="UTF-8"?>
<svg width="49px" height="57px" viewBox="0 0 49 57" version="1.1" xmlns="http://www.w3.org/2000/svg" xmlns:xlink="http://www.w3.org/1999/xlink">
    <!-- Generator: sketchtool 53.2 (72643) - https://sketchapp.com -->
    <title>264946A3-637A-4E65-AE20-45370B3EF053</title>
    <desc>Created with sketchtool.</desc>
    <g id="Page-1" stroke="none" stroke-width="1" fill="none" fill-rule="evenodd">
        <g id="Main-State" transform="translate(-444.000000, -1780.000000)" fill="#D9DCE0">
            <g id="Group-18" transform="translate(391.000000, 1559.000000)">
                <path d="M78.2531073,221.000376 L53,221 C53,221 56.8783178,243.622792 57.3418653,247.285017 L59.3909055,252.214003 L59.3615445,254.440922 C58.9300271,255.65479 56.945937,259.473007 58.6435352,263.838091 C58.5705776,264.842177 58.084787,266.136731 58.2013411,267.330876 C58.4300008,269.668065 59.5457179,271.988221 60.6160589,273.597448 L84.4420449,275.389563 C85.5203934,275.659411 87.3719143,274.90276 87.4813506,276.521849 C87.6174788,278.579329 90.5224358,279.251708 89.6620703,273.392149 C89.3266434,271.099784 95.4657562,275.717683 95.7433509,272.726045 C96.6028267,263.469627 102.2864,258.208038 101.757012,257.674617 C98.9027697,254.800421 99.8396517,258.940483 98.1883193,252.147662 C97.9596596,251.210813 96.3412471,251.65548 96.205119,250.216589 C95.8074112,246.020048 95.4791021,245.688341 92.834835,243.622792 C91.244004,242.381132 91.3196307,240.508333 89.8604793,238.56202 C88.3426059,236.536814 85.2997412,234.437199 84.2418564,233.101406 C82.2301848,230.55533 81.3680398,228.027185 81.4009597,227.573554 C81.5086166,226.088941 79.3519196,228.70584 76.5092434,224.711012 C76.0012095,223.994704 76.5466119,222.580915 78.2531073,221.315946 C78.2531073,220.976171 78.2531073,221.000376 78.2531073,221.000376" id="Fill-459"></path>
            </g>
        </g>
    </g>
</svg>