<?xml version="1.0" encoding="UTF-8"?>
<svg width="78px" height="52px" viewBox="0 0 78 52" version="1.1" xmlns="http://www.w3.org/2000/svg" xmlns:xlink="http://www.w3.org/1999/xlink">
    <!-- Generator: sketchtool 53.2 (72643) - https://sketchapp.com -->
    <title>3F46E5AB-847B-4BFF-8584-3C5196172F6C</title>
    <desc>Created with sketchtool.</desc>
    <g id="Page-1" stroke="none" stroke-width="1" fill="none" fill-rule="evenodd">
        <g id="Main-State" transform="translate(-552.000000, -1782.000000)" fill="#D9DCE0">
            <g id="Group-18" transform="translate(391.000000, 1559.000000)">
                <g id="Group-23" transform="translate(161.000000, 223.000000)">
                    <path d="M77.9993318,42.048856 C77.8863017,41.1664224 75.4964002,40.6951795 75.4964002,40.1080025 C75.4964002,39.5216595 75.3122982,38.3931787 74.3849376,38.5733353 C73.457577,38.7543259 73.8754459,37.9411191 73.5971521,36.6775209 C73.3197145,35.4139227 68.4534263,32.7958138 67.6185449,32.7507747 C66.7853761,32.7049015 65.9975906,32.7057355 65.9051114,32.25451 C65.8126322,31.8024505 63.1247423,30.3586957 62.6143943,30.3586957 C62.1049025,30.3586957 61.0285477,30.4329268 61.2708774,32.0284803 C61.4558358,33.2470393 61.4558358,33.3829908 62.4294359,33.9242946 C63.4030361,34.4655984 62.1511421,35.4589618 61.68789,35.5940792 C61.2246378,35.7300307 61.2708774,36.1812562 61.0388232,36.4973643 C60.8076253,36.8126383 59,38.0770706 59,38.6183744 C59,39.1596782 60.2047981,40.5141888 60.5293315,41.461679 C60.8538649,42.4100032 61.5491712,44.2607784 61.2246378,45.7954456 C60.9001044,47.3301128 60.3906127,48.9548582 61.7341296,49.5870744 C63.0785027,50.2184565 64.2824445,50.083339 64.4211632,50.5796037 C64.5607383,51.0767024 64.7003133,51.8432019 65.3956197,50.9407509 C66.0900698,50.0382999 67.0174303,49.4069178 66.7853761,48.8647799 C66.5533219,48.3226421 70.0289974,46.2466711 70.4460099,46.201632 C70.8630225,46.1565928 72.5773123,46.201632 72.9951812,45.7954456 C73.4121937,45.3892592 74.9526569,44.9155142 75.3576815,44.7570431 C75.5888794,44.6669648 78.0464277,42.4100032 77.9993318,42.048856" id="Fill-460"></path>
                    <path d="M60.9943985,22.9244617 C61.1013287,22.3661308 59.651356,21.2656057 58.8652056,21.2212297 C58.0773444,21.1784673 57.0824664,19.4316661 56.1329268,19.5623736 C55.1842426,19.6930812 53.4956019,20.8718694 53.3091157,20.1303866 C53.1243404,19.3880969 51.3655535,17.9470868 50.7171292,18.4707237 C50.0687048,18.9943607 49.5597174,20.4353708 50.5776923,21.4398824 C51.5965226,22.4443939 52.5229653,22.8365165 52.7539344,22.182172 C52.9849035,21.5270207 53.726571,22.0950337 53.7727648,23.1866836 C53.8189586,24.2783335 53.5828569,24.8479601 54.3741399,25.1948999 C55.6701331,25.7629128 56.3647513,24.6712629 57.1517571,24.6712629 C57.9387629,24.6712629 60.6701863,24.6268869 60.9943985,22.9244617" id="Fill-461"></path>
                    <path d="M52.1864958,25.4447316 C52.7270591,25.0280873 53.1597096,26.2356626 52.9428848,26.6954346 C52.7270591,27.1536664 50.2940245,27.6118981 50.0232432,27.1952538 C49.7534612,26.7786095 51.9157145,25.6526687 52.1864958,25.4447316" id="Fill-462"></path>
                    <path d="M45.3351979,20.5695166 C46.0173265,20.4193925 47.3470017,20.0337946 48.0490149,20.9406356 C48.7501635,21.8482387 49.3588055,22.1370561 48.7501635,22.6735402 C48.1423861,23.2085002 46.3640103,23.5803813 46.1764034,23.2085002 C45.9905255,22.8381433 46.7850453,22.2193577 46.2239535,21.971691 C45.6628617,21.7247864 44.3988922,20.7760325 45.3351979,20.5695166" id="Fill-463"></path>
                    <path d="M49.9868935,16.4743027 C49.8728382,17.0573937 48.1251071,18.7841163 46.9459757,18.2614283 C45.7660056,17.737935 44.812469,16.9969906 44.0409179,17.2152471 C43.2693667,17.4335035 41,17.9561915 41,17.5639742 C41,17.1717569 41.2272721,16.4743027 41.7262644,16.4308125 C42.2260954,16.3873223 41.3631322,15.1671802 42.1808087,15.3846312 C42.9976465,15.6020823 43.5419256,15.863829 44.0409179,15.7768485 C44.5407488,15.6898681 45.3123,16.1255756 45.6754322,15.9073192 C46.0377258,15.6898681 46.400858,15.3846312 46.7639902,15.995105 C47.1271225,16.6047733 48.080659,16.2560463 48.624938,16.1255756 C49.1700557,15.995105 50.1227536,15.7768485 49.9868935,16.4743027" id="Fill-464"></path>
                    <path d="M36.9886703,14.2217376 C36.8842785,13.7794355 35.713238,12.8310121 35.7586989,12.3984602 C35.803318,11.9667946 34.9378761,11.9667946 35.2114837,12.6386683 C35.4850913,13.3105421 34.4824247,12.5429396 34.3005809,11.7753371 C34.1178952,11.0077347 35.2106419,11.3436715 34.2542781,10.4803404 C33.2979143,9.6170092 33.3433752,8.22539734 32.3415505,8.36899041 C31.3388839,8.51346986 31.1561982,9.23320796 30.8371297,9.71273791 C30.518903,10.1922679 28.7417164,10.1922679 28.1953431,10.1922679 C27.6481279,10.1922679 28.3771869,10.8162772 28.8334802,11.488151 C29.2889316,12.158252 30.0171487,12.6386683 30.0171487,13.3584064 C30.0171487,14.0772581 30.2452954,15.0372044 30.9288934,14.7491319 C31.6124915,14.4610594 31.8852572,13.5977282 32.6606191,14.1738732 C33.4342972,14.7491319 34.4824247,15.7081918 34.9833371,15.2286618 C35.4850913,14.7491319 35.8950818,14.7012675 35.9405427,15.1816839 C35.9860037,15.6603274 37.1250532,14.7969963 36.9886703,14.2217376" id="Fill-465"></path>
                    <path d="M9.63865522,0.574303927 C10.0962081,0.615513673 11.3287305,0.194648179 11.8318698,0.431385019 C12.3350091,0.668998663 13.1564093,1.80796591 12.9740636,2.61462477 C12.7908736,3.42128363 12.2885785,3.56332574 12.4253378,4.03855302 C12.5629413,4.51290351 12.3797514,5.08194873 11.8774563,5.4142571 C11.374317,5.74568868 11.0543676,6.55322435 10.5064861,6.3156107 C9.95860454,6.07887386 8.90758369,5.79391285 8.49646148,5.88860759 C8.08533927,5.98417913 7.94857993,5.03460136 7.17107776,4.84521188 C6.39526398,4.65494561 5.52743311,3.42128363 6.30324689,2.94693315 C7.07990487,2.47170586 6.57760976,1.61857643 7.35511193,1.42918696 C8.13092571,1.23892069 8.58763437,0.479609191 9.63865522,0.574303927" id="Fill-466"></path>
                    <path d="M2.30782954,3.3929499 C1.91992928,3.45234968 2.0622198,3.91492547 1.18038114,4.31661649 C0.296729863,4.7183075 -0.341311673,5.92412304 0.198848491,6.24562435 C0.739008656,6.56712566 1.08249977,6.16469215 1.3272032,5.52168953 C1.57190663,4.87868691 2.20994817,5.60262173 2.70026133,4.51709074 C3.1905745,3.43230226 3.09269313,3.27192285 2.30782954,3.3929499" id="Fill-467"></path>
                </g>
            </g>
        </g>
    </g>
</svg>