<?xml version="1.0" encoding="UTF-8"?>
<svg width="44px" height="64px" viewBox="0 0 44 64" version="1.1" xmlns="http://www.w3.org/2000/svg" xmlns:xlink="http://www.w3.org/1999/xlink">
    <!-- Generator: sketchtool 53.2 (72643) - https://sketchapp.com -->
    <title>F6CDBBE7-8D71-426F-BCD0-36F6E80091D1</title>
    <desc>Created with sketchtool.</desc>
    <g id="Page-1" stroke="none" stroke-width="1" fill="none" fill-rule="evenodd">
        <g id="Main-State" transform="translate(-693.000000, -1774.000000)" fill="#D9DCE0">
            <g id="Group-18" transform="translate(391.000000, 1559.000000)">
                <path d="M343.254457,253.936592 C341.699466,254.257551 342.583948,255.356929 342.101587,255.759972 C341.876546,255.946276 341.668107,255.857736 341.407098,255.767351 C341.128564,255.672354 340.788237,255.57828 340.305876,255.813466 C339.601241,256.154715 339.749731,255.696334 339.58095,255.517408 C339.371589,255.29329 339.336542,255.480516 339.141015,255.66682 C338.963012,255.837445 338.649431,256.007148 337.945719,255.866959 C337.310256,255.73876 336.91828,255.593959 336.739355,255.571824 C336.406406,255.53032 336.381504,255.779341 336.308642,256.027438 C336.209957,256.371455 336.021808,256.715472 334.809911,256.295827 C334.336772,256.131658 333.276131,256.033894 333.199581,256.456306 C332.878622,258.279686 332.048555,257.233802 331.458285,255.571824 C330.612539,253.18861 330.130178,253.868342 329.072304,253.158174 C328.011663,252.448928 329.582334,251.522942 327.919433,250.236338 C326.442837,249.092691 326.56089,247.961033 325.80184,246.053724 C325.071382,244.218354 324.090058,245.813004 323.334697,246.804473 C322.577492,247.797786 321.973388,247.070095 321.214338,246.220659 C320.459899,245.367535 321.243851,245.330643 321.726212,243.640996 C322.273134,241.725386 320.56873,241.12036 321.780628,238.707632 C322.992525,236.294904 321.822131,236.14457 320.762412,236.285681 C319.701771,236.427715 320.157386,235.85958 318.794232,235.151257 C317.432,234.442011 316.221024,230.750058 315.008204,230.893014 C312.415629,231.197371 312.73751,226.493659 312.73751,226.493659 L310.313715,223.940742 L310.313715,215 L303.341153,215 L303.340231,239.150334 C304.285585,239.592114 305.194969,240.543924 304.411017,240.543924 C303.501633,240.543924 304.260683,244.090154 305.168223,243.949965 C306.075763,243.807009 307.439839,244.941434 307.439839,246.786027 C306.682634,246.220659 304.865709,251.965644 304.260683,253.241181 C304.024575,253.734609 304.175832,253.480978 303.340231,253.937514 C302.503708,254.393129 301.758493,257.50219 302.073918,258.091538 C302.214107,258.352548 302.231631,258.291676 302.337695,258.229882 C302.473272,258.152409 302.751806,258.074937 303.603086,258.655983 C304.702463,259.40581 303.708227,261.317731 303.340231,261.916302 L303.341153,279 L345.336081,279 L345.336081,256.63062 C345.336081,256.63062 343.611386,253.861886 343.254457,253.936592" id="Fill-468"></path>
            </g>
        </g>
    </g>
</svg>