<?xml version="1.0" encoding="UTF-8"?>
<svg width="39px" height="63px" viewBox="0 0 39 63" version="1.1" xmlns="http://www.w3.org/2000/svg" xmlns:xlink="http://www.w3.org/1999/xlink">
    <!-- Generator: sketchtool 53.2 (72643) - https://sketchapp.com -->
    <title>6059DF1D-A4C9-40B2-8465-533FDA5446D7</title>
    <desc>Created with sketchtool.</desc>
    <g id="Page-1" stroke="none" stroke-width="1" fill="none" fill-rule="evenodd">
        <g id="Main-State" transform="translate(-818.000000, -1777.000000)" fill="#D9DCE0">
            <g id="Group-18" transform="translate(391.000000, 1559.000000)">
                <path d="M435.740009,218.10206 L462.709006,218.10206 L462.123191,221.728928 C462.123191,221.728928 465.040244,225.211303 465.186268,227.388108 L465.186268,254.086031 C465.186268,254.086031 464.018932,255.246253 464.311839,256.116633 C464.603029,256.987868 466.060697,260.905433 465.186268,261.776668 C464.311839,262.647048 461.978884,265.548884 461.249621,267.724834 C460.520358,269.901639 461.249621,272.078444 460.375192,272.658127 C459.500763,273.238666 459.063549,274.109901 459.938837,275.270122 C460.812407,276.431199 457.022643,275.995154 456.29252,276.866389 C455.564116,277.736769 457.751906,280.058067 456.439404,280.348764 C455.12862,280.638606 452.211567,278.171959 451.483162,278.753352 C450.755617,279.333036 448.567827,281.945031 447.40135,280.638606 C446.235731,279.333036 445.506468,276.576547 446.964135,276.866389 C448.422662,277.156231 447.11016,276.576547 446.672945,274.834932 C446.235731,273.093317 443.568637,271.721913 442.153918,270.917367 C440.113012,269.756291 437.197677,266.854454 438.21813,265.984074 C439.238583,265.112839 440.69625,260.905433 440.258177,260.324894 C439.820963,259.744356 437.488866,258.148089 437.343701,258.873976 C437.197677,259.599863 435.302795,260.470243 435.010746,258.438786 C434.718697,256.407329 435.15677,255.827646 431.949386,253.215651 C428.742861,250.603656 426.110126,244.57854 427.285193,243.929603 C429.90848,242.47783 427.722408,239.86669 428.742861,239.86669 C429.763314,239.86669 431.367006,239.575993 431.220982,237.979726 C431.074957,236.38346 432.678649,237.400043 432.532625,235.07789 C432.3866,232.756591 430.054504,233.77232 431.074957,231.740008 C432.095411,229.709406 434.615621,230.951707 435.44796,229.709406 C435.740009,229.273361 437.634891,231.160325 438.21813,228.258488 C438.80051,225.356651 439.529773,227.823298 440.113012,226.227031 C440.69625,224.630765 439.417248,222.881455 438.946534,222.309466 C437.634891,220.7132 433.115864,217.375318 435.740009,218.10206" id="Fill-469"></path>
            </g>
        </g>
    </g>
</svg>