<?xml version="1.0" encoding="UTF-8"?>
<svg width="41px" height="59px" viewBox="0 0 41 59" version="1.1" xmlns="http://www.w3.org/2000/svg" xmlns:xlink="http://www.w3.org/1999/xlink">
    <!-- Generator: sketchtool 53.2 (72643) - https://sketchapp.com -->
    <title>C8A638B0-F72E-4507-A7AE-0EAA0A913846</title>
    <desc>Created with sketchtool.</desc>
    <g id="Page-1" stroke="none" stroke-width="1" fill="none" fill-rule="evenodd">
        <g id="Main-State" transform="translate(-940.000000, -1779.000000)" fill="#D9DCE0">
            <g id="Group-18" transform="translate(391.000000, 1559.000000)">
                <path d="M555.914404,255.398763 L555.914404,220.685688 C557.01275,221.920994 560.16905,223.155411 564.284068,220 L589.818171,220 L589.818171,259.102902 C589.818171,259.102902 587.882947,259.51467 588.431676,260.200359 C588.980404,260.886047 589.457985,261.929253 588.76696,262.27521 C588.46636,262.42551 589.498005,261.955934 589.919557,262.447744 C590.469174,263.090743 589.05422,262.678085 589.515792,263.658148 C590.189919,265.09 587.902513,262.735893 585.654238,265.330124 C584.66795,266.469381 584.099656,264.925471 583.868425,264.695129 C583.638084,264.464788 581.677958,264.464788 581.735766,265.386153 C581.793574,266.309298 582.485487,267.692236 581.677958,268.268534 C580.872208,268.843943 579.661804,268.787024 579.603996,269.247707 C579.547078,269.709279 578.996571,271.984234 577.530034,271.495982 C577.010654,271.322559 576.262712,272.014472 576.088399,273.455218 C575.916755,274.895074 576.091957,275.435798 574.129163,276.221094 C573.554644,276.451435 574.417312,275.52918 572.804033,275.52918 C571.191643,275.52918 571.249451,274.434391 571.306369,273.972819 C571.364177,273.512136 571.132946,273.166179 570.615345,273.569944 C570.095965,273.972819 570.153773,274.49131 569.290215,274.895074 C568.424878,275.298839 568.36707,275.471372 568.481796,276.33582 C568.598301,277.200267 567.502623,276.451435 567.560431,276.912118 C567.618238,277.372801 566.350916,278.352863 566.350916,277.604031 C566.350916,276.85431 566.407834,276.85431 565.544276,277.085541 C564.679829,277.315882 565.313045,276.393627 564.967978,275.932055 C564.622021,275.471372 563.757574,276.451435 562.720593,276.623969 C561.270954,276.865872 562.373747,279.620186 560.933001,278.871354 C560.10146,278.43913 557.716225,275.888477 556.785077,276.566161 C555.516865,277.488416 555.862822,276.681776 555.285634,276.278012 C554.342035,275.617226 555.977548,277.834373 555.344331,278.006907 C554.709336,278.18033 553.845778,278.064714 554.248653,277.315882 C554.652418,276.566161 552.527763,277.964218 552.289417,277.488416 C551.770037,276.451435 550.61833,276.913007 551.079013,277.488416 C551.541474,278.064714 551.598393,279.389844 550.099839,278.69882 C548.602176,278.006907 548.890325,276.796502 549.466623,276.566161 C550.042032,276.33582 551.252436,273.627752 550.676138,272.705497 C550.099839,271.783242 551.770037,271.380366 552.405032,271.092217 C553.038249,270.804068 552.807908,268.384149 554.191735,268.037303 C555.574673,267.692236 554.07523,266.021149 555.748096,265.272317 C557.418293,264.522595 555.91974,260.95008 555.285634,259.970017 C554.652418,258.990844 554.479884,258.530161 555.343442,257.838247 C556.208779,257.146334 553.661683,256.070221 555.914404,255.398763" id="Fill-470"></path>
            </g>
        </g>
    </g>
</svg>