<?xml version="1.0" encoding="UTF-8"?>
<svg width="74px" height="43px" viewBox="0 0 74 43" version="1.1" xmlns="http://www.w3.org/2000/svg" xmlns:xlink="http://www.w3.org/1999/xlink">
    <!-- Generator: sketchtool 53.2 (72643) - https://sketchapp.com -->
    <title>A24698F4-C82C-46E2-9277-AC1A9DD13483</title>
    <desc>Created with sketchtool.</desc>
    <g id="Page-1" stroke="none" stroke-width="1" fill="none" fill-rule="evenodd">
        <g id="Main-State" transform="translate(-1047.000000, -1787.000000)" fill="#D9DCE0">
            <g id="Group-18" transform="translate(391.000000, 1559.000000)">
                <path d="M717.720353,228 L656.027353,228 C656.403353,228.339 657.788353,229.909 657.288353,230.326 C654.754353,232.438 657.862353,231.35 658.063353,232.015 C658.388353,233.103 658.042353,233.264 657.756353,234.054 C656.866353,236.521 654.543353,237.507 657.325353,239.821 C659.441353,241.581 664.602353,260.261 664.891353,262.568 C665.178353,264.875 663.378353,265.767 665.973353,267.207 C668.423353,267.64 707.769353,267.721 710.509353,267.144 C713.246353,266.567 715.587353,273.198 715.930353,269.466 C716.003353,268.654 715.743353,268.029 715.930353,267.637 C716.715353,265.98 719.057353,267.495 719.018353,266.054 C718.955353,263.834 721.000353,262.792 720.856353,262.216 C720.712353,261.64 720.315353,259.424 719.594353,259.568 C718.873353,259.712 719.018353,255.821 720.171353,255.964 C721.324353,256.109 724.079353,256.33 724.798353,255.177 C725.519353,254.024 726.700353,256.091 727.811353,252.937 C728.701353,250.409 727.911353,251.782 729.093353,251.093 C729.938353,250.6 730.150353,245.814 728.100353,245.874 C726.508353,245.921 726.225353,244.577 726.370353,243.568 C726.512353,242.559 725.505353,242.848 724.639353,242.271 C723.774353,241.694 723.774353,238.956 722.477353,239.099 C721.179353,239.244 718.961353,238.039 718.441353,235.64 C717.548353,231.523 720.171353,231.46 719.450353,230.739 C718.729353,230.019 717.548353,230.679 717.720353,228" id="Fill-471"></path>
            </g>
        </g>
    </g>
</svg>