<?xml version="1.0" encoding="UTF-8"?>
<svg width="86px" height="37px" viewBox="0 0 86 37" version="1.1" xmlns="http://www.w3.org/2000/svg" xmlns:xlink="http://www.w3.org/1999/xlink">
    <!-- Generator: sketchtool 53.2 (72643) - https://sketchapp.com -->
    <title>544F1E25-03E7-45F1-AC2E-AA48BEEB965E</title>
    <desc>Created with sketchtool.</desc>
    <g id="Page-1" stroke="none" stroke-width="1" fill="none" fill-rule="evenodd">
        <g id="Main-State" transform="translate(-1287.000000, -1790.000000)" fill="#D9DCE0">
            <g id="Group-18" transform="translate(391.000000, 1559.000000)">
                <path d="M896.916663,267.273333 C896.181663,267.110333 895.659663,266.591333 896.265663,266.072333 C897.054663,265.396333 896.829663,267.538333 897.617663,266.523333 C898.407663,265.509333 898.294663,264.494333 899.195663,265.509333 C900.097663,266.523333 901.225663,265.396333 900.661663,264.382333 C900.097663,263.367333 900.323663,262.352333 901.000663,262.014333 C901.675663,261.676333 901.675663,260.324333 901.112663,260.098333 C900.547663,259.872333 899.984663,259.872333 901.562663,258.182333 C903.141663,256.491333 903.909663,256.587333 905.907663,258.208333 C908.332663,260.174333 910.374663,258.722333 908.665663,257.392333 C907.650663,256.603333 907.725663,256.947333 908.514663,255.144333 C909.303663,253.341333 908.922663,254.310333 912.356663,253.680333 C915.100663,253.178333 911.219663,251.754333 911.990663,250.982333 C914.047663,248.925333 914.963663,247.050333 916.443663,247.810333 C917.431663,248.318333 918.910663,249.518333 918.347663,247.827333 C917.782663,246.136333 921.065663,247.472333 922.079663,248.262333 C923.094663,249.050333 924.672663,250.178333 924.672663,248.712333 C924.672663,247.247333 927.490663,246.232333 927.830663,246.909333 C928.167663,247.585333 928.091663,248.641333 930.008663,247.964333 C931.925663,247.288333 929.864663,245.998333 930.878663,245.998333 C931.892663,245.998333 931.999663,243.301333 933.014663,243.977333 C934.029663,244.654333 933.690663,246.006333 934.818663,246.345333 C935.945663,246.682333 937.410663,247.585333 937.523663,245.782333 C937.635663,243.977333 938.763663,241.836333 939.213663,242.625333 C939.666663,243.414333 940.678663,241.836333 940.904663,240.709333 C941.132663,239.581333 943.773663,240.739333 943.133663,238.498333 C942.490663,236.245333 943.722663,235.741333 945.192663,236.395333 C945.602663,236.576333 946.140663,238.089333 946.929663,236.623333 C947.718663,235.157333 949.501663,236.695333 950.175663,235.343333 C950.853663,233.990333 948.713663,234.747333 949.720663,233.330333 C950.302663,232.508333 948.683663,232.367333 949.698663,231.578333 C950.713663,230.789333 951.163663,230.789333 951.840663,231.691333 C952.515663,232.592333 954.207663,230.676333 954.658663,231.803333 C955.108663,232.930333 955.619663,231.665333 956.799663,234.959333 C957.493663,236.897333 959.571663,235.468333 960.924663,236.257333 C962.275663,237.046333 963.028663,238.681333 963.346663,237.812333 C963.905663,236.298333 966.168663,236.976333 966.731663,237.766333 C967.295663,238.555333 968.051663,238.560333 970.024663,237.126333 C971.533663,236.028333 972.695663,235.862333 972.468663,238.003333 C972.243663,240.145333 975.512663,237.665333 975.512663,241.159333 C975.512663,244.654333 974.949663,244.203333 976.301663,246.120333 C977.654663,248.035333 977.037663,251.663333 981.148663,252.432333 C984.155663,252.995333 977.615663,256.607333 975.738663,257.505333 C973.580663,258.536333 973.958663,257.841333 973.958663,259.306333 C973.958663,260.771333 969.876663,262.465333 967.621663,264.156333 C965.937663,265.419333 963.902663,264.832333 963.225663,265.847333 C960.632663,265.959333 918.360663,264.720333 915.880663,265.170333 L915.767663,264.720333 L913.286663,264.607333 C913.625663,265.509333 914.527663,267.312333 912.836663,267.312333 L897.617663,267.312333 C897.382663,267.338333 897.138663,267.322333 896.916663,267.273333" id="Fill-473"></path>
            </g>
        </g>
    </g>
</svg>