<?xml version="1.0" encoding="UTF-8"?>
<svg width="59px" height="56px" viewBox="0 0 59 56" version="1.1" xmlns="http://www.w3.org/2000/svg" xmlns:xlink="http://www.w3.org/1999/xlink">
    <!-- Generator: sketchtool 53.2 (72643) - https://sketchapp.com -->
    <title>2DDDE8DD-DBDC-4151-BFB0-251577EFB127</title>
    <desc>Created with sketchtool.</desc>
    <g id="Page-1" stroke="none" stroke-width="1" fill="none" fill-rule="evenodd">
        <g id="Main-State" transform="translate(-1423.000000, -1780.000000)" fill="#D9DCE0">
            <g id="Group-18" transform="translate(391.000000, 1559.000000)">
                <path d="M1065.4902,221 L1032,221 L1032,235.001669 C1033.6034,235.760294 1034.79311,237.869437 1034.79311,240.146236 C1034.79311,242.423962 1035.47294,241.327245 1036.40864,244.279304 C1037.34435,247.232289 1038.36503,246.219863 1037.85516,249.509089 C1037.34435,252.798314 1034.964,255.160331 1035.55885,257.775224 C1036.15371,260.390116 1036.23775,262.498333 1034.53817,264.100799 C1032.83765,265.703266 1033.43251,264.775132 1033.8574,265.619901 C1034.2823,266.463743 1034.36821,266.884275 1035.47294,266.294234 C1036.5786,265.703266 1041.17121,265.19659 1042.27594,265.534683 C1043.38161,265.871849 1051.03347,269.161075 1052.56496,269.076783 C1054.09645,268.992491 1054.52135,267.643826 1055.71106,268.655325 C1056.9017,269.667751 1059.96375,270.342083 1059.28298,268.992491 C1058.60128,267.643826 1057.32659,267.475242 1056.22187,267.643826 C1055.1162,267.812409 1054.01054,266.547109 1054.69131,265.957067 C1055.37114,265.3661 1058.09141,263.59505 1057.75149,264.86035 C1057.41157,266.124724 1056.13689,266.968567 1059.53792,265.871849 C1062.93896,264.776059 1056.19759,266.196048 1063.53474,269.246292 C1066.17097,270.342083 1064.97939,271.94455 1063.87373,271.775967 C1062.769,271.607384 1067.44565,274.981827 1069.57107,275.234702 C1071.69741,275.487577 1071.78333,270.933051 1074.16368,272.197425 C1076.54403,273.463652 1076.37407,276.161909 1078.1605,274.476077 C1079.94506,272.789319 1078.1605,272.789319 1078.24454,272.197425 C1078.33046,271.607384 1079.01029,270.426375 1077.56471,269.836334 C1076.12006,269.246292 1077.47973,267.812409 1078.84033,269.584385 C1080.20187,271.354509 1081.73149,268.165322 1081.73149,271.607384 C1081.73149,272.618883 1081.90145,271.691675 1084.11184,272.957902 C1086.32317,274.22135 1086.57904,274.728026 1086.49406,275.234702 C1086.40908,275.741378 1084.93829,278.672132 1087.59972,275.65616 C1088.78943,274.306568 1090.16684,277.430915 1090.49088,274.390859 C1090.65991,272.788393 1088.61947,271.945476 1086.66402,271.185926 C1084.70856,270.426375 1081.22162,267.475242 1083.43294,267.305733 C1085.64334,267.13715 1087.59972,266.714765 1087.17483,265.19659 C1086.749,263.679341 1086.3241,260.980157 1085.30342,261.65449 C1084.28273,262.329749 1084.45363,264.607475 1083.09209,264.353674 C1081.73149,264.100799 1080.45587,263.004082 1081.3066,261.991657 C1082.47202,260.60594 1084.96257,260.220607 1083.94375,258.871015 C1082.92213,257.522349 1080.11595,253.389281 1081.05166,251.871106 C1081.98736,250.352005 1083.00711,248.496663 1081.73149,248.496663 C1080.4568,248.496663 1060.5586,248.496663 1060.5586,248.496663 C1061.15346,247.82233 1059.11396,245.376021 1060.47363,245.12222 C1061.83423,244.870271 1062.25912,242.84542 1062.08823,241.495828 C1061.91921,240.146236 1062.85398,237.699927 1064.21551,237.025594 C1065.57518,236.350335 1068.46634,231.542935 1068.55225,230.277634 C1068.63723,229.012334 1066.95352,227.570114 1066.34092,226.398368 C1065.14935,224.120642 1067.61654,221.169509 1065.4902,221" id="Fill-474"></path>
            </g>
        </g>
    </g>
</svg>