<?xml version="1.0" encoding="UTF-8"?>
<svg width="50px" height="63px" viewBox="0 0 50 63" version="1.1" xmlns="http://www.w3.org/2000/svg" xmlns:xlink="http://www.w3.org/1999/xlink">
    <!-- Generator: sketchtool 53.2 (72643) - https://sketchapp.com -->
    <title>C73D9589-6587-44FD-8A05-632B408BAC6F</title>
    <desc>Created with sketchtool.</desc>
    <g id="Page-1" stroke="none" stroke-width="1" fill="none" fill-rule="evenodd">
        <g id="Main-State" transform="translate(-443.000000, -1914.000000)" fill="#D9DCE0">
            <g id="Group-18" transform="translate(391.000000, 1559.000000)">
                <g id="Group-24" transform="translate(52.000000, 355.000000)">
                    <path d="M0.3,30.8612118 C0.446371089,33.2028072 1.64097737,54.9450275 1.64097737,56.4067122 C1.64097737,57.8702093 1.04640164,57.9635469 1.78007536,58.9875418 C2.51283994,60.0106304 3.6947183,59.5965015 3.08832378,62.162832 C3.03195728,62.4002539 5.03933221,63.5764887 5.56390437,62.64855 C6.78942132,60.4854741 5.83755467,58.9522003 7.01125079,59.098097 C8.18585605,59.2439936 8.5340556,58.0695711 8.81134244,56.6042617 C9.01589831,55.519552 11.0450925,56.8706816 10.7414407,54.9087799 C10.6296168,54.1883587 14.5198149,51.7697372 14.6652769,52.9396287 C14.8125571,54.1104264 15.0589333,54.3415048 16.8817533,52.9486906 C18.9236755,51.3864188 18.4845622,52.6179312 19.11914,51.9681928 C20.3082914,50.7529918 21.041056,48.9288311 21.1365154,50.1684992 C21.2837957,52.0705923 24.3912266,49.2324048 24.685787,48.5011093 C24.9785292,47.7698139 22.7084136,50.0271335 25.3921867,45.4880271 C25.5585588,45.2089205 25.8540283,44.2302351 25.3249105,43.6747406 C24.9139805,43.2415817 26.9113549,44.0906818 27.5513875,42.342641 C27.6286642,42.1314987 27.8577667,42.7585823 27.4122895,43.619463 C27.1431849,44.1387099 28.6132597,44.8962849 28.303244,45.9764636 C27.5304773,48.6687545 29.9178716,47.6964125 30.6406357,46.2818496 C30.8915576,45.7906946 32.0334339,45.7553532 32.6716482,46.1712944 C33.6744265,46.821939 34.108085,45.9837131 35.1499562,45.1173953 C35.3717857,44.9325325 33.1462178,42.5646576 35.5672502,42.8147661 C35.7218035,42.8301713 35.5290664,45.1853595 36.2627401,44.7286397 C38.2673876,43.4808159 42.8539848,41.2470571 44.4686125,41.1002543 C46.0814219,40.9543577 48.4079039,39.0033303 49.2879488,38.1261383 C49.435229,35.3477593 48.1988024,35.4873125 47.4233084,33.659527 C47.1178383,32.9381996 45.9786894,32.1842494 45.3913867,33.3550471 C44.8049932,34.5249386 42.7148868,30.8249642 43.5885677,30.7153152 C44.8904521,30.552201 42.4421457,28.2223861 43.610387,28.0284614 C44.3340602,27.9079381 44.2149632,26.6619267 42.7476158,26.8069171 C41.2811775,26.9546261 40.9020672,25.3633562 39.3792624,25.5319075 C40.1129362,22.3131201 39.4792675,5.85036362 39.4792675,5.85036362 C38.5983136,4.53457552 32.7980183,0.151333755 32.6180091,1.9510274 C32.478002,3.33749833 30.7397316,1.89393742 30.0569696,2.67235476 C29.2769299,3.56042111 28.0341393,3.36468403 27.3004656,3.94917668 C26.5667919,4.53457552 24.0012067,3.53595397 24.4348652,2.28359918 C25.2412699,-0.0462156978 23.9612047,0.702297368 22.7511431,0 L13.2133848,10.9694318 C13.2133848,10.9694318 13.2133848,14.0414164 12.7724532,14.7727119 C12.3324308,15.5040073 10.425061,15.9435095 10.425061,16.9665982 C10.425061,17.9896869 8.95771353,20.6239817 9.10408462,21.3552771 C9.25136485,22.0865726 11.0114545,21.5011737 9.39773594,22.6710652 C7.78401741,23.8409567 7.78401741,23.9877595 8.22403981,24.719055 C8.66406222,25.4494442 6.60941215,25.596247 5.87573843,26.3275425 C5.14206471,27.0597441 3.8219975,27.2047346 5.43571603,28.9609311 C7.05034369,30.7153152 4.70204231,30.423522 4.26201991,29.6913203 C3.8219975,28.9609311 3.23469487,28.6682316 3.38106596,29.9840197 C3.52834619,31.300714 1.91462766,32.4706055 2.06008961,31.1548174 C2.20736984,29.8381231 1.91462766,30.1308226 0.3,30.8612118" id="Fill-475"></path>
                    <path d="M27.5917755,49 C27.4963784,49 27.4084471,48.9675793 27.3387658,48.9070605 C27.2740616,48.8508646 27.2383914,48.787464 27.2168234,48.7298271 C26.9870408,48.5987032 26.8020534,48.4027378 26.6676679,48.1455331 C26.6643497,48.1412104 26.6626906,48.1361671 26.660202,48.1318444 C26.6096001,48.1210375 26.5598277,48.1087896 26.5100553,48.0943804 C26.4171468,48.0662824 26.3399995,47.9956772 26.3117952,47.9142651 C26.286909,47.8436599 26.3018407,47.7694524 26.3524426,47.7118156 C26.5241574,47.518732 26.7879512,47.3681556 27.0202224,47.2348703 L27.1264035,47.1736311 C27.3246636,47.0576369 27.5079919,47 27.6705818,47 C27.7659789,47 27.8555692,47.0194524 27.9343755,47.0590778 C28.0330908,47.1087896 28.1036017,47.1988473 28.1326356,47.315562 C28.1641581,47.4445245 28.1392719,47.5778098 28.0671019,47.6642651 C28.0239659,47.7255043 27.9559436,48.0446686 27.9484777,48.1700288 C27.9584322,48.1729107 27.9675571,48.1757925 27.9775116,48.1793948 C28.0861814,48.2168588 28.2338395,48.2680115 28.2844414,48.3782421 C28.3010322,48.4149856 28.3126458,48.4740634 28.2744869,48.5439481 C28.1848966,48.7074928 27.8804554,49 27.592605,49 L27.5917755,49" id="Fill-476"></path>
                    <path d="M25.7299548,47 C25.5600999,47 25.4010104,46.9126959 25.3328292,46.7822194 C25.2670404,46.6565398 25.301729,46.5231852 25.4225413,46.4253278 C25.7299548,46.1758874 25.8077053,45.7950112 25.8890443,45.3911097 C25.9333023,45.1714103 25.9799525,44.9449952 26.0672723,44.740646 L26.0959802,44.6706108 C26.1880846,44.4365206 26.3591357,44 26.7885576,44 C26.8316195,44 26.8758774,44.0047969 26.9201354,44.0143908 C27.1210905,44.0585225 27.2119988,44.1525424 27.2526683,44.2244963 C27.3746767,44.4307643 27.2311374,44.6850016 27.154583,44.8212344 C27.0481247,45.0092741 26.9703742,45.2088264 26.887839,45.4189319 C26.7897538,45.6760473 26.6856878,45.9398785 26.5265983,46.1816437 C26.4452593,46.4502718 26.2789929,46.6891589 26.0182297,46.9002239 C25.9392831,46.9645027 25.835217,47 25.7299548,47" id="Fill-477"></path>
                    <path d="M29.7804821,49 C29.711757,49 29.6445939,48.9830721 29.5805546,48.9504702 C29.432952,48.8739812 29.3829701,48.737931 29.3665698,48.6633229 C29.3587601,48.6244514 29.3579792,48.584953 29.3579792,48.5442006 C29.3587601,48.4965517 29.3595411,48.4557994 29.339236,48.4282132 C29.292378,48.3642633 29.2869112,48.2909091 29.3259595,48.2275862 C29.3595411,48.1730408 29.4235804,48.1310345 29.4977722,48.1128527 C29.5438492,48.0808777 29.6024217,48.062069 29.6672419,48.0595611 C29.6844232,48.0583072 29.711757,48.0489028 29.7390908,48.0388715 C29.7851679,48.0219436 29.8429594,48.0018809 29.9124654,48 L29.9132464,48 C30.0608491,48 30.1818989,48.0658307 30.2482811,48.1749216 C30.3302825,48.3097179 30.3146632,48.4871473 30.202204,48.7172414 C30.1389457,48.8470219 29.9897811,49 29.7804821,49" id="Fill-478"></path>
                    <path d="M32.6981696,47 C32.4939635,47 32.3169061,46.9178295 32.2271971,46.7775194 C32.1693583,46.7790698 32.0831904,46.7829457 31.9911206,46.7852713 C31.9179369,46.827907 31.8223259,46.8511628 31.7184523,46.8511628 C31.5779868,46.8511628 31.4481447,46.8093023 31.3714199,46.7395349 C31.2982361,46.6736434 31.2805304,46.5922481 31.3218438,46.5085271 C31.4599485,46.2232558 31.7042877,46.0627907 32.0678455,46.0193798 C32.1646368,46.0077519 32.2767731,46 32.3900898,46 C32.7465653,46 33.0121514,46.0767442 33.1573384,46.2209302 C33.3107881,46.375969 33.3438388,46.5968992 33.2399652,46.7589147 C33.156158,46.8852713 32.9979868,46.9697674 32.7926002,46.9945736 L32.6981696,47" id="Fill-479"></path>
                </g>
            </g>
        </g>
    </g>
</svg>