<?xml version="1.0" encoding="UTF-8"?>
<svg width="84px" height="46px" viewBox="0 0 84 46" version="1.1" xmlns="http://www.w3.org/2000/svg" xmlns:xlink="http://www.w3.org/1999/xlink">
    <!-- Generator: sketchtool 53.2 (72643) - https://sketchapp.com -->
    <title>58F77D1F-2D90-4C41-B42E-2239F35A9C99</title>
    <desc>Created with sketchtool.</desc>
    <g id="Page-1" stroke="none" stroke-width="1" fill="none" fill-rule="evenodd">
        <g id="Main-State" transform="translate(-549.000000, -1923.000000)" fill="#D9DCE0">
            <g id="Group-18" transform="translate(391.000000, 1559.000000)">
                <path d="M227.393,364 L229.948,395.478 L241.906,395.375 C242.008,398.543 237.205,405.288 236.489,406.106 C235.774,406.924 231.992,406.719 231.379,407.639 C230.766,408.558 230.051,406.821 227.699,408.661 C225.349,410.501 226.371,406.719 226.677,405.494 C226.984,404.266 230.459,401.915 228.211,402.632 C225.963,403.347 223.918,403.959 225.859,401.915 C227.802,399.872 226.677,397.726 225.553,398.441 C224.429,399.156 225.553,403.245 224.327,402.938 C223.101,402.632 219.626,397.929 218.604,396.499 C217.582,395.069 218.604,393.535 219.728,393.842 C220.852,394.149 217.276,391.593 218.604,391.389 C219.932,391.185 222.282,392.718 222.897,392.821 C223.511,392.922 222.181,390.572 220.648,390.163 C219.115,389.755 217.99,391.491 217.48,390.163 C216.968,388.835 218.297,385.564 219.115,386.484 C219.932,387.403 221.772,385.768 220.75,384.747 C219.728,383.724 218.297,382.703 218.094,383.827 C217.888,384.951 216.968,386.279 217.071,383.622 C217.173,380.966 218.094,381.272 218.502,382.09 C218.91,382.907 221.262,382.907 221.466,381.578 C221.67,380.25 220.955,377.388 220.648,378.819 C220.342,380.25 219.626,382.498 219.115,380.352 C218.604,378.205 218.808,376.162 220.136,374.833 C221.466,373.505 220.852,372.585 222.794,372.892 C224.736,373.197 226.977,372.712 224.02,371.971 C222.385,371.563 224.736,369.929 225.757,370.541 C226.78,371.154 227.085,369.929 226.167,369.723 C225.247,369.519 227.597,365.942 225.963,367.782 C224.327,369.621 223.611,371.359 224.123,368.701 C224.633,366.045 223.918,368.497 223.101,367.986 C222.282,367.474 221.466,366.76 221.772,368.906 C222.079,371.051 220.648,371.767 219.32,373.095 C217.99,374.425 216.764,375.14 216.049,375.549 C215.334,375.957 212.268,375.344 213.494,376.775 C214.719,378.205 215.436,378.921 215.742,380.556 C216.049,382.192 215.947,381.067 214.62,385.155 C213.289,389.243 213.085,389.959 214.107,392.208 C215.129,394.455 217.173,395.579 216.968,397.215 C216.764,398.85 216.969,399.464 215.742,398.748 C214.516,398.033 212.575,396.602 211.859,395.069 C211.143,393.535 210.224,393.128 211.553,395.887 C212.881,398.645 215.64,399.361 216.662,399.771 C217.684,400.178 220.034,408.252 216.356,405.288 C212.677,402.325 213.187,401.302 210.122,400.894 C207.056,400.485 205.011,397.112 204.398,396.192 C203.785,395.272 203.888,395.989 202.661,397.112 C201.435,398.236 199.595,397.726 199.902,395.682 C200.208,393.638 202.457,392.309 203.683,389.652 C204.91,386.995 205.215,384.848 203.683,384.235 C202.15,383.622 199.902,383.01 199.902,382.09 C199.902,381.17 195.824,380.577 195.303,379.535 C194.485,377.899 197.449,377.082 195.917,376.366 C194.383,375.651 192.952,374.322 191.317,374.425 C189.683,374.527 190.398,374.015 190.398,372.482 C190.398,370.949 189.273,367.986 187.638,367.782 C186.003,367.577 185.696,367.68 185.185,366.453 C184.675,365.226 182.12,364.409 181.608,365.738 C181.098,367.066 180.382,366.453 179.258,366.35 C178.133,366.249 178.133,367.066 177.929,368.395 C177.724,369.723 175.374,369.417 173.739,369.008 C172.104,368.599 171.389,367.474 171.593,366.658 C171.796,365.84 170.571,365.738 170.264,367.474 C169.957,369.213 167.3,372.278 166.789,371.154 C166.278,370.031 165.87,369.315 164.643,371.256 C163.417,373.197 159.329,374.117 158.102,376.979 L158,364.102 L227.393,364" id="Fill-480"></path>
            </g>
        </g>
    </g>
</svg>