<?xml version="1.0" encoding="UTF-8"?>
<svg width="77px" height="43px" viewBox="0 0 77 43" version="1.1" xmlns="http://www.w3.org/2000/svg" xmlns:xlink="http://www.w3.org/1999/xlink">
    <!-- Generator: sketchtool 53.2 (72643) - https://sketchapp.com -->
    <title>B55FCADB-EABA-4FD9-9015-17D0E2073964</title>
    <desc>Created with sketchtool.</desc>
    <g id="Page-1" stroke="none" stroke-width="1" fill="none" fill-rule="evenodd">
        <g id="Main-State" transform="translate(-676.000000, -1924.000000)" fill="#D9DCE0">
            <g id="Group-18" transform="translate(391.000000, 1559.000000)">
                <g id="Group-25" transform="translate(285.000000, 365.000000)">
                    <path d="M71.3525658,32.1686802 C72.930349,32.0175195 75.1846898,31.03711 75.7838049,31.7912055 C76.385473,32.5444469 77.2866987,31.5657454 76.9114008,29.3043131 C76.5361028,27.0437347 75.5591367,22.7463299 74.2068727,22.0682418 C72.8546086,21.3901537 70.1517826,20.1082768 70.0011528,21.4653071 C69.850523,22.8214833 72.7797192,22.6711766 71.8036042,22.2945559 C70.8266381,21.9170811 70.9781189,21.5404604 71.6546764,21.6916211 C72.3303829,21.8419278 73.5311662,22.0682418 73.3813874,24.1033602 C73.2316086,26.1384785 74.0570939,27.2691947 74.0570939,26.0624712 C74.0570939,24.8574556 74.8834302,24.6311416 74.9583196,26.3647926 C75.03406,28.0984435 75.03406,28.2487502 74.2068727,28.6253709 C73.3813874,29.0019917 70.0768932,29.7560871 68.7246291,29.7560871 C67.3723651,29.7560871 64.3674284,29.4546197 64.0678709,28.4750642 C63.7674623,27.4955088 63.7674623,26.8174206 63.6917219,25.8370111 C63.6176835,24.8574556 62.941126,23.8770461 61.8143811,23.9521995 C60.6876362,24.0273528 59.7115212,22.7463299 60.6876362,22.6711766 C61.6637513,22.5951692 61.7386407,20.787219 61.4390832,20.5600509 C61.1386746,20.3345909 60.1617085,18.3746259 60.0119297,17.9228518 C59.8612999,17.4702237 59.3362232,16.5666756 58.3592571,16.3403616 C57.383993,16.1131935 56.7814739,14.7570173 56.4070269,14.8330246 C56.031729,14.908178 54.6794649,15.133638 56.031729,15.3599521 C57.383993,15.5862661 57.383993,16.4146609 56.3312865,16.4906682 C55.2794311,16.5666756 54.5288351,16.4155149 53.928869,15.7374268 C53.3280519,15.0593387 52.8012731,15.8125801 53.0267923,14.6818639 C53.2523115,13.5511478 53.1765711,12.8722056 54.1535372,13.5511478 C55.1305033,14.2292359 54.0037584,12.4204316 54.4547968,11.8926501 C54.9049841,11.3648687 54.6786139,12.0438108 55.5058012,11.4408761 C56.3312865,10.8379413 57.383993,10.7619339 57.2325122,10.0086925 C57.0827335,9.25459703 54.9041331,9.33060439 56.6316951,8.87797631 C58.3592571,8.42534822 60.0119297,8.0487275 60.6127469,7.44579273 C61.213564,6.84285797 60.9140064,8.27504154 61.213564,8.1998882 C61.5139725,8.12388084 62.564977,7.29548605 62.6407174,6.46538323 C62.7156068,5.63698843 62.0399003,4.50712626 61.5139725,4.95804631 C60.9880448,5.41067439 60.5387085,6.46538323 59.7115212,5.78814913 C58.8860359,5.10920701 58.0588485,4.50712626 58.0588485,3.07408867 C58.0588485,1.6419051 57.4588824,1.19013103 57.759291,0.512042921 C57.383993,0.436035564 57.0827335,1.03897033 56.7074355,0.436035564 C56.3312865,-0.166899203 54.6037245,0.360882222 54.0786478,0.512042921 C53.5527201,0.662349605 52.5017156,1.03897033 52.576605,1.71705844 C52.6514944,2.39600056 52.1247156,1.7930658 51.1486005,1.86821914 C50.1724854,1.94422649 49.6465577,2.01852582 49.8720769,3.07408867 C50.0975961,4.12965152 49.7971875,3.52671675 48.9708512,3.52671675 C48.1445149,3.52671675 47.9189957,4.58142559 47.1683998,4.88374698 L5.40820519,3.90333748 L0,20.7112116 L0.15062979,21.5404604 L14.9463899,21.8419278 L14.7966111,22.8974906 L15.7735772,22.8974906 L16.1480241,21.9930885 C16.1480241,21.9930885 18.3266245,22.1433952 18.7019225,22.1433952 C19.0780714,22.1433952 19.6031481,22.5951692 20.1299269,22.1433952 L36.5783596,22.3697092 L36.653249,22.7463299 L45.665506,22.5951692 L45.8152847,25.6867045 L46.5675827,25.6867045 C46.7173614,26.6662599 46.0416549,27.6458154 46.8679912,28.5502176 C47.6943275,29.4546197 48.5947022,29.5297731 48.745332,30.2847226 C48.8968128,31.03711 50.0235577,30.5853359 50.1724854,30.2095692 C50.3222642,29.8320945 51.9000475,28.7013783 50.849043,30.0575545 C49.7971875,31.4137307 49.7971875,31.4905921 50.473745,31.8663588 C51.1486005,32.2438335 50.9239324,35.4096681 51.0745622,36.0877562 C51.1664719,36.5087857 51.9757879,35.9365955 52.576605,34.0526378 C52.7085124,33.6350244 52.6770248,36.3055301 52.8770135,36.1629095 C53.4020903,35.7871428 55.2053927,35.4096681 55.2053927,34.73158 C55.2053927,34.0526378 55.4300608,31.7912055 55.9559886,32.6956076 C56.4827673,33.6000098 56.9321037,34.3541052 58.0588485,32.6204543 C59.1855934,30.8868033 59.8612999,31.1131173 59.8612999,30.2847226 C59.8612999,29.4546197 61.589713,29.9072478 61.589713,30.7364966 C61.589713,31.5657454 61.5139725,33.0730823 61.2884534,33.9774845 C61.0637852,34.8810326 58.8860359,36.0117488 58.0588485,36.4635229 C57.2325122,36.917005 53.2523115,38.7258093 56.1057674,37.9725678 C58.9609253,37.2184724 59.6366318,36.4635229 60.4629681,35.9365955 C61.2884534,35.4096681 62.0399003,34.5052659 62.6407174,34.73158 C63.2406835,34.956186 65.7945818,34.8058793 66.395399,33.5257104 C66.9970671,32.2438335 69.7756336,32.3181329 71.3525658,32.1686802" id="Fill-481"></path>
                    <path d="M74.444336,35.1538462 C74.2927419,35.1538462 74.1498935,35.095844 74.0692377,34.9999793 C73.9944123,34.9105594 73.979836,34.8009998 74.0274521,34.689829 C74.4142115,33.8117409 74.7436373,33.0802694 75.1760693,32.3487978 C75.2479794,32.2263488 75.3840254,32.1538462 75.5385349,32.1538462 C75.6930443,32.1538462 75.8475537,32.2263488 75.9320966,32.3399364 C76.014696,32.4503016 76.02247,32.5800008 75.9525035,32.6992275 C75.5152127,33.4371437 75.1731541,34.2185615 74.8709375,34.9081426 C74.8038863,35.0595927 74.640631,35.1538462 74.444336,35.1538462" id="Fill-482"></path>
                    <path d="M68.5220109,40.1518462 C68.1758438,40.1518462 67.7664451,40.1378462 67.3602615,40.0478462 C67.1223386,39.9968462 66.9755124,39.8028462 67.0033772,39.5738462 C67.0323138,39.3358462 67.2402283,39.1558462 67.4856532,39.1558462 L67.5092312,39.1558462 L67.6024712,39.1688462 C67.8875499,39.2298462 68.1758438,39.2428462 68.5230826,39.2428462 C68.7953006,39.2428462 69,39.4378462 69,39.6978462 C69,39.9568462 68.7953006,40.1518462 68.5230826,40.1518462 L68.5220109,40.1518462" id="Fill-483"></path>
                    <path d="M69.3342675,41.1538462 C69.2880147,41.1538462 69.241169,41.1443824 69.1937302,41.1270323 C69.0644596,41.0781364 68.9855927,40.9188304 69.0021963,40.7398083 C69.0199858,40.5576316 69.127316,40.4275055 69.2637024,40.4227736 L69.2654813,40.4251395 C69.2969095,40.2453288 69.4155064,40.1538462 69.5305454,40.1538462 C69.6165281,40.1538462 69.6912441,40.2019534 69.7392759,40.2800291 C69.7416478,40.2792405 69.7440198,40.2792405 69.7475777,40.2792405 C69.8726974,40.2792405 69.9752837,40.4038462 69.9960381,40.5812909 C70.0185715,40.7618903 69.9432625,40.9290827 69.8139919,40.9858651 C69.7173355,41.0292405 69.6183071,41.067884 69.5180927,41.0970638 C69.4825136,41.1293982 69.4107625,41.1538462 69.3348605,41.1538462 C69.3342675,41.1538462 69.3342675,41.1538462 69.3342675,41.1538462" id="Fill-484"></path>
                    <path d="M57.2768007,42.1538462 C57.1333827,42.1538462 57.0205189,42.0298151 57.0024358,41.853071 C56.9893411,41.7220632 57.0298723,41.601133 57.1040755,41.5267144 C57.1046991,41.4786524 57.1140524,41.4298151 57.131512,41.3833035 C57.1676783,41.2887299 57.2319046,41.2181872 57.3092257,41.1895051 C57.3709578,41.1662493 57.4345606,41.1538462 57.4975398,41.1538462 C57.780011,41.1538462 57.9864083,41.3887299 57.999503,41.7259392 C58.0063621,41.8546213 57.9415122,41.9926058 57.8492258,42.045319 C57.6546761,42.1538462 57.4538908,42.1538462 57.2768007,42.1538462" id="Fill-485"></path>
                    <path d="M64.9154016,37.9964829 C64.8517943,37.7853766 64.6400385,37.7000357 64.4620992,37.7862749 C64.2286041,37.8994638 64.3010681,38.1258417 64.3429362,38.3405413 C64.3920507,38.5956656 64.321197,38.804077 64.0554958,38.7016679 C63.7310182,38.5768008 63.8944647,38.9235542 63.5361706,38.65765 C63.1915641,38.4016274 63.4121767,38.5642242 63.4234489,38.2534038 C63.4331107,37.9695332 63.2294064,37.8850906 63.0136248,37.9030571 C62.5796461,37.9380918 62.6456689,37.3290275 62.6529153,36.9813758 C62.6585513,36.7496079 62.4500161,36.603181 62.2599995,36.6382157 C62.1110458,36.6669621 61.8823817,37.1808039 61.9266652,37.2104486 C61.8155538,37.1349893 61.8662786,36.6265374 61.8719146,36.5052636 C61.8847971,36.1674934 61.4145864,36.0075916 61.2801255,36.3264969 C61.137613,36.6669621 60.8533932,36.738828 60.5587064,36.8349488 C60.1496875,36.9696975 59.8437285,37.3209426 59.5989613,37.6964424 C59.3388961,38.0988919 59.0434041,38.4734934 58.8155452,38.9010961 C58.6714224,39.1696952 58.5780244,39.9557295 58.3622428,40.0985632 C58.0772178,40.2863131 57.9355105,39.7832511 57.6907433,39.6709605 C57.25918,39.4724307 56.8396941,39.7751662 57.0611118,40.2881097 C57.3710966,41.0058713 58.1070085,41.4945601 58.7124853,40.861241 C58.9830175,40.5773703 58.9483958,40.3905188 59.2930023,40.3357209 C59.8791553,40.2360069 60.4669187,40.153361 61.0579026,40.1039531 C61.9918828,40.0266972 62.9862495,40.2243287 63.9057369,40.0338838 C64.772084,39.8542188 65.192375,38.9181642 64.9154016,37.9964829 C64.7865768,37.5670836 65.0868997,38.5669192 64.9154016,37.9964829" id="Fill-486"></path>
                    <path d="M75.948002,40.8078581 C75.9914842,40.5228992 75.861858,40.1954465 75.6395246,40.0071404 C75.4844655,39.7330133 74.7263987,38.0482566 74.3227528,38.159074 C74.1102644,38.4015389 74.1463628,38.6456704 74.4302276,38.890635 C74.1570283,39.0889397 73.1208396,39.9754783 73.3521976,40.3045974 C73.4580316,40.4529093 74.481914,39.3813974 74.6591244,39.2480833 C74.8035181,39.458053 74.9536547,39.6638566 75.0906646,39.8763259 C75.0890237,39.8763259 75.0890237,39.8763259 75.0882033,39.8763259 C74.5795438,40.0196386 73.8953147,40.4779057 73.7361535,41.0278263 C73.599964,41.0211606 73.4621337,41.0186609 73.3267647,41.0219938 C73.8362446,39.2555823 69.9359747,41.3302826 71.2855633,41.3302826 L71.5669668,41.3302826 C71.7031563,41.5335866 71.8967751,41.636905 72.1453619,41.6377382 C72.411998,42.4042941 74.4573014,42.149331 74.9692426,41.9310292 C75.2596708,41.946027 75.534511,41.8493743 75.6879293,41.6152414 C75.8249392,41.574414 75.9447203,41.4444328 75.9455407,41.2852891 C76.0177375,41.1336443 76.0177375,40.9745006 75.948002,40.8078581 C75.9914842,40.5228992 75.9693329,40.917009 75.948002,40.8078581" id="Fill-487"></path>
                </g>
            </g>
        </g>
    </g>
</svg>