<?xml version="1.0" encoding="UTF-8"?>
<svg width="63px" height="57px" viewBox="0 0 63 57" version="1.1" xmlns="http://www.w3.org/2000/svg" xmlns:xlink="http://www.w3.org/1999/xlink">
    <!-- Generator: sketchtool 53.2 (72643) - https://sketchapp.com -->
    <title>2F29BAA2-5F65-4DE1-9120-414C12F65BC3</title>
    <desc>Created with sketchtool.</desc>
    <g id="Page-1" stroke="none" stroke-width="1" fill="none" fill-rule="evenodd">
        <g id="Main-State" transform="translate(-806.000000, -1917.000000)" fill="#D9DCE0">
            <g id="Group-18" transform="translate(391.000000, 1559.000000)">
                <g id="Group-26" transform="translate(415.000000, 358.000000)">
                    <path d="M56.9858753,53.0777951 L32.0117246,57 C32.8298831,56.396957 35.0589071,50.2113197 35.1329955,47.8743258 C35.2070839,45.5357152 33.8703068,41.6894969 32.8298831,40.4826025 C31.7886628,39.2765164 31.0453893,37.164249 32.0858129,36.2596844 C33.1270332,35.3543114 30.3021157,34.5241168 31.7137778,31.8104231 C33.1270332,29.0943043 31.7137778,27.0580235 32.0858129,26.6805153 C32.4570514,26.3046239 33.2011216,26.6805153 33.2011216,25.7007725 C33.2011216,24.7202213 34.0184835,22.7591188 34.4638103,23.5885051 C34.9115271,24.4186997 35.5799156,20.1949733 36.0993308,20.7228381 C36.6203393,21.2507028 36.0993308,24.493878 36.5462509,24.7953996 C36.9907811,25.0977294 37.7348513,24.2675348 37.8089396,23.2118053 C37.8838246,22.1560758 37.2887278,19.5911219 38.0320013,19.2896004 C38.7752749,18.9880788 41.1548656,18.0827059 40.1877336,17.9323493 C39.2213984,17.7811844 38.7003899,16.7262632 39.14731,15.8960686 C39.5934335,15.0666823 40.0905425,14.9947375 40.5589721,14.1613094 C40.8569188,13.6334446 42.3426693,14.5380092 43.0126511,14.9155174 C43.6810397,15.2930255 45.0186134,14.8403391 45.6145069,15.6697254 C46.2080104,16.4991116 47.4714958,15.8960686 48.3637427,16.4239333 C49.255193,16.9517981 50.5935634,16.2735768 52.6744107,19.2144221 C53.9609989,21.0332516 50.9648018,19.1392438 51.7080754,20.3461383 C52.451349,21.5522243 53.7148343,25.0977294 53.490976,26.6061454 C53.2687109,28.113753 52.0801105,27.51071 52.1541989,29.1694826 C52.2274906,30.8290635 51.7080754,30.527542 50.8915101,31.28175 C50.0733516,32.035958 49.8502898,32.2623012 50.369705,33.6195522 C50.8915101,34.9776116 52.1541989,34.8264467 52.8966758,34.0722387 C53.6415426,33.3180307 54.3840195,30.527542 54.9042313,30.4515553 C55.4244432,30.376377 56.1685134,29.3958258 56.3899818,29.1694826 C56.6130435,28.9439477 58.0995906,29.1694826 58.323449,29.4718125 C58.5465108,29.773334 59.7343145,31.884793 60.1079429,32.8653442 C60.4783847,33.8458955 61.1491632,37.9944436 62.0398168,38.3711434 C62.4851436,39.2765164 62.2628785,42.29254 62.1871969,42.9715697 C62.1139052,43.6505994 61.519605,42.8212131 61.1491632,42.4445133 C60.7763314,42.0670051 60.0330579,42.5948699 60.4783847,43.1987213 C60.9245081,43.8017643 59.6610228,43.4242561 59.8848811,44.2544508 C60.1079429,45.0838371 60.1812346,45.2341936 59.5120494,45.9884016 C58.8436608,46.7426096 58.0262989,48.0246824 58.398334,49.0052336 C58.7687758,49.9857848 57.2830254,50.6648145 56.9858753,53.0777951" id="Fill-488"></path>
                    <path d="M0.309859155,11.3446129 C1.40101225,11.2428632 3.13617681,9.8761617 3.87902173,8.86354904 C4.62346073,7.85093638 5.86286399,8.20502521 6.80496987,7.85093638 C7.74627872,7.49684755 8.73859837,5.62383972 9.72932393,5.57255789 C10.7208465,5.52209006 10.9193105,3.9014214 11.4150718,3.64826824 C11.9108331,3.39511507 12.6050583,2.93927658 12.9023557,2.28156674 C13.1996531,1.62385691 15.3317455,0.00237425838 15.8777206,0.00237425838 C16.4228986,0.00237425838 18.7024441,-0.0985614088 17.06691,1.01580092 C15.4305789,2.12934925 15.0336511,2.12934925 14.8359842,3.24371157 C14.6375203,4.3564459 13.4969504,4.30679207 13.5463672,5.57255789 C13.5965809,6.83832372 12.9525695,7.95187205 13.943295,6.99054122 C14.9348176,6.02839639 15.8275068,5.72477539 16.6205655,5.82571106 C17.4136241,5.92664673 19.2978359,6.07886422 19.9920612,7.39509788 C20.6854893,8.71133154 21.0330005,9.4211372 21.9248926,9.4211372 C22.8175818,9.4211372 24.0075683,8.76261338 24.5527463,9.26810571 C25.0979244,9.77522604 25.4940552,9.8761617 26.089447,9.67429037 C26.6840417,9.47079104 27.0809696,8.66086371 27.7743978,8.15537138 C28.468623,7.64825105 29.75824,6.38248522 30.8493931,6.38248522 C31.9405462,6.38248522 33.9227944,6.12933206 34.369139,5.77524323 C34.8146865,5.4203404 35.8556258,5.01578373 37.0456124,4.76263056 C38.2355989,4.5086634 37.5405766,4.5086634 37.4911599,5.47162223 C37.4409461,6.43295306 37.4911599,7.39509788 37.9877183,7.39509788 C38.4826825,7.39509788 39.4742051,7.90221821 39.9707635,7.34381605 C40.4657277,6.78704189 40.5653582,7.09147689 40.9622861,7.34381605 C41.3584169,7.59778322 41.9546057,6.93925939 42.1514756,6.63563839 C42.3499395,6.33201739 43.2426287,5.62302573 43.6403536,6.07886422 C44.0356874,6.53388872 43.73839,7.54650139 44.1353178,8.40771055 C44.5314487,9.26810571 45.3253044,10.0275652 45.8704824,10.5338715 C46.4156604,11.0401779 46.8117912,11.293331 44.7793293,11.597766 C42.7476644,11.901387 42.1514756,11.901387 41.705928,11.4960164 C41.2587864,11.0914597 40.6649887,11.7491695 40.8140359,12.509443 C40.9622861,13.2680885 40.9622861,13.9770802 39.87193,13.2176207 C38.7807769,12.4581612 36.8973622,11.597766 35.8078032,11.6987017 C34.715056,11.7996374 34.3189252,13.6229914 33.625497,13.723927 C32.9312718,13.8248627 31.4926075,13.5717095 30.6007154,13.5717095 C29.7080263,13.5717095 29.4115259,13.420306 29.7080263,14.4833865 C30.0053236,15.546467 29.4609427,15.4959992 28.8655509,16.3572083 C28.2709561,17.2176035 28.0230755,17.673442 28.3697896,18.0779987 C28.7173007,18.4833693 27.179803,18.0779987 27.5767309,17.1158538 C27.9728617,16.154523 28.5188368,14.8374753 27.9728617,15.0401607 C27.4284807,15.242032 27.1303863,15.850902 26.7342555,15.6482167 C26.3373276,15.4447173 26.7342555,15.850902 26.1388637,16.7112972 C25.5442689,17.5716923 25.1473411,17.6229742 25.2469716,16.6608293 C25.3466021,15.6986845 25.3466021,14.5338543 24.9990909,15.4959992 C24.6515798,16.458144 24.8994604,16.4076762 24.4531158,17.4699427 C24.0075683,18.5338372 21.7758454,23.0401263 21.6275952,23.6978361 C21.4793451,24.35636 21.3302979,23.748304 20.9835838,23.6473683 C20.6360726,23.5464326 20.7851198,22.53382 21.0824172,21.9770458 C21.3797146,21.4194576 21.2800841,20.6095303 20.6854893,21.2167723 C20.0908946,21.8248283 19.3472526,21.925764 19.5951333,21.1663045 C19.8430139,20.407659 20.0414779,19.3437645 19.5457166,18.5338372 C19.0499553,17.7239098 18.7032412,17.3185392 18.0082189,17.4194748 C17.3147907,17.5212245 17.2645769,16.9131685 16.9178628,16.458144 C16.5711487,16.0023055 14.7371507,15.242846 14.0923422,15.7491523 C13.4475337,16.2554587 11.9108331,15.4447173 10.7702633,15.1923782 C9.63049049,14.939225 3.28442698,13.5212417 2.78866568,13.4707739 C2.29370142,13.420306 2.43637227,12.3498995 1.79794011,12.1545402 C1.30217881,12.0031367 1.50064274,11.6987017 0.309859155,11.3446129" id="Fill-489"></path>
                </g>
            </g>
        </g>
    </g>
</svg>