<?xml version="1.0" encoding="UTF-8"?>
<svg width="63px" height="57px" viewBox="0 0 63 57" version="1.1" xmlns="http://www.w3.org/2000/svg" xmlns:xlink="http://www.w3.org/1999/xlink">
    <!-- Generator: sketchtool 53.2 (72643) - https://sketchapp.com -->
    <title>BAF3123C-F178-4456-B557-C6CFA0AB7FE8</title>
    <desc>Created with sketchtool.</desc>
    <g id="Page-1" stroke="none" stroke-width="1" fill="none" fill-rule="evenodd">
        <g id="Main-State" transform="translate(-929.000000, -1917.000000)" fill="#D9DCE0">
            <g id="Group-18" transform="translate(391.000000, 1559.000000)">
                <path d="M578.146127,384.335449 L578.146127,389.835487 C576.508231,391.124048 574.048735,391.708631 573.815255,392.878683 C573.580891,394.050503 572.527579,395.454035 573.932879,394.986191 C575.336411,394.517463 574.398954,395.099393 575.102931,396.507347 C575.454035,397.20867 574.399839,396.272098 574.399839,400.135126 C574.399839,403.998154 574.399839,401.189322 574.048735,402.12501 C573.698515,403.062466 575.102931,403.998154 575.687515,404.349258 C576.273867,404.700362 576.97519,404.349258 577.678283,404.934726 C578.379606,405.520194 579.902531,405.870413 580.837334,407.041349 C581.77479,408.211401 582.359374,409.382337 583.76379,409.499077 C585.16909,409.616701 586.103893,410.552389 586.103893,411.956804 C586.103893,413.36122 585.636933,413.24448 586.572621,415 L544.319871,415 L544.319871,397.560658 C543.969651,396.272098 543.20642,397.196289 542.798715,396.624087 C541.628664,394.986191 539.521156,394.517463 542.096507,393.464151 C544.670975,392.411724 543.150704,390.772944 543.267443,389.718748 C543.384183,388.665436 543.618547,388.665436 543.150704,387.729748 C542.681975,386.793176 541.862143,384.920032 541.745403,383.398877 C541.628664,381.876837 541.278444,376.961382 540.925571,375.672821 C540.575352,374.38603 538.702208,370.172782 538.702208,370.172782 L538.702208,365.841911 L539.170052,364.320755 L538,361.863028 L554.971498,361.863028 L554.971498,358 C554.971498,358 555.649827,358 556.493538,358 C557.078121,358 557.664474,358.819832 557.781214,359.52204 C557.897069,360.224248 558.716017,361.863028 558.716017,363.618547 C558.716017,365.373183 560.940265,364.086391 561.525733,364.086391 C562.110316,364.086391 562.227941,365.725171 564.803292,365.139703 C567.37776,364.554235 564.218709,366.778483 566.909916,366.193899 C569.601123,365.608431 569.719632,364.437495 573.815255,365.491691 C577.912647,366.544119 575.454035,366.310639 574.986191,366.778483 C574.518347,367.246327 576.039503,366.778483 576.273867,367.246327 C576.508231,367.71417 577.912647,370.289522 577.912647,369.001846 C577.912647,367.71417 578.965074,367.71417 579.667282,368.182899 C580.36949,368.651627 583.294177,370.640626 584.582737,370.407147 C585.870413,370.172782 591.020232,367.831795 589.966036,369.119471 C588.913609,370.407147 591.020232,370.289522 592.425533,370.407147 C593.829948,370.523886 596.286792,370.055158 596.637895,370.875875 C596.989884,371.693938 597.808832,370.640626 599.681091,371.226094 C601.554235,371.811562 596.521156,372.51377 594.415416,373.450342 C592.307908,374.38603 588.445765,375.672821 587.625933,376.961382 C586.806985,378.248173 581.421917,382.345565 580.13601,383.047773 C578.848334,383.749096 578.61397,384.335449 578.146127,384.335449" id="Fill-491"></path>
            </g>
        </g>
    </g>
</svg>