<?xml version="1.0" encoding="UTF-8"?>
<svg width="70px" height="58px" viewBox="0 0 70 58" version="1.1" xmlns="http://www.w3.org/2000/svg" xmlns:xlink="http://www.w3.org/1999/xlink">
    <!-- Generator: sketchtool 53.2 (72643) - https://sketchapp.com -->
    <title>3598841D-6F9D-408D-9003-DDE328405FAD</title>
    <desc>Created with sketchtool.</desc>
    <g id="Page-1" stroke="none" stroke-width="1" fill="none" fill-rule="evenodd">
        <g id="Main-State" transform="translate(-1172.000000, -1916.000000)" fill="#D9DCE0">
            <g id="Group-18" transform="translate(391.000000, 1559.000000)">
                <path d="M823.079711,357.140071 C821.696397,357.140071 784.460025,358.521645 781,357 C781,357 785.01509,364.200192 786.260943,365.306843 C787.505055,366.414364 790.690157,365.583506 789.9985,367.383554 C789.304233,369.182732 786.557616,370.369424 789.442564,371.812768 C791.105151,372.643626 788.751778,374.442804 792.905199,375.411994 L792.905199,408.355744 L839.414124,408.355744 C839.552456,409.740797 840.796568,409.879129 840.520775,410.570786 C840.244112,411.262443 837.475745,414.03168 837.337413,415 L844.395794,415 C844.949989,414.03168 846.610836,411.124111 846.610836,410.01659 C846.610836,408.909939 847.580896,406.97156 848.271683,407.802418 C848.96421,408.633276 850.902589,405.588246 850.902589,403.373204 C850.902589,401.158162 848.410014,402.126481 847.858429,401.296493 C847.303363,400.466505 846.196712,398.805658 847.02757,398.251463 C847.858429,397.698137 846.334173,393.95971 844.674197,392.576396 C843.01161,391.192212 841.350764,391.468875 841.350764,390.499685 C841.350764,389.531365 838.443194,388.97717 837.475745,387.03879 C836.506555,385.101281 840.383314,381.917919 839.690787,380.948729 C838.99826,379.97954 841.489965,379.148681 838.860799,378.318693 C836.229892,377.487835 836.922419,377.764498 835.675697,378.733687 C834.430714,379.702877 834.01485,377.626166 834.153182,376.518645 C834.291513,375.411994 833.324063,373.196952 831.384814,372.228632 C829.447304,371.259443 827.233132,368.906069 826.818138,367.521885 C826.401404,366.136831 824.463895,362.123481 826.263073,360.324303 C825.570546,358.385924 824.187232,358.109261 823.079711,357.140071" id="Fill-432"></path>
            </g>
        </g>
    </g>
</svg>