<?xml version="1.0" encoding="UTF-8"?>
<svg width="42px" height="68px" viewBox="0 0 42 68" version="1.1" xmlns="http://www.w3.org/2000/svg" xmlns:xlink="http://www.w3.org/1999/xlink">
    <!-- Generator: sketchtool 53.2 (72643) - https://sketchapp.com -->
    <title>474251BC-99A5-4702-B5B0-402F546C5C14</title>
    <desc>Created with sketchtool.</desc>
    <g id="Page-1" stroke="none" stroke-width="1" fill="none" fill-rule="evenodd">
        <g id="Main-State" transform="translate(-1063.000000, -1911.000000)" fill="#D9DCE0">
            <g id="Group-18" transform="translate(391.000000, 1559.000000)">
                <path d="M688.542185,352 L711.673502,352 L713.076208,353.682879 L709.712287,393.076208 L711.25462,417.330057 C710.414099,417.468766 707.609607,417.048965 706.768168,416.768791 C705.926728,416.487699 703.123155,416.908418 701.860077,417.468766 C700.600674,418.031869 699.897943,416.207525 699.478142,417.750777 C699.056504,419.293109 697.233997,420.413804 696.534023,419.853457 C695.833129,419.293109 696.392558,417.750777 694.99169,416.207525 C693.589903,414.666111 693.448438,412.141793 694.009704,411.161644 C694.570052,410.180577 694.99169,408.497698 694.570052,408.216606 L672,408.216606 C672.139628,406.254472 671.718908,402.610378 674.10268,400.367152 C676.486452,398.123007 670.606481,401.598997 675.137944,397.48366 C680.151674,392.93015 678.581783,391.94449 677.850576,391.191236 C677.116613,390.438901 678.029704,390.36082 679.230316,391.242678 C679.998268,391.804863 681.953971,388.870848 680.552185,388.450128 C679.149479,388.029408 678.589132,385.365462 678.589132,383.542956 C678.589132,381.72045 679.009852,380.318663 677.747693,380.459209 C676.486452,380.598837 676.907172,377.374544 677.608984,377.51509 C678.30804,377.655636 679.009852,375.971838 677.608984,373.730449 C676.20536,371.487223 677.886402,369.243997 678.30804,369.805263 C678.72876,370.36561 679.009852,367.562037 678.870224,366.018785 C678.72876,364.477371 681.392706,365.317892 680.272011,364.056651 C679.149479,362.794492 681.672879,363.074666 682.234145,361.392706 C682.794492,359.710745 684.477371,360.551266 684.477371,359.429653 C684.477371,358.308959 683.917024,356.065733 684.758463,355.364839 C685.599903,354.663027 688.68365,353.262159 688.542185,352" id="Fill-492"></path>
            </g>
        </g>
    </g>
</svg>