<?xml version="1.0" encoding="UTF-8"?>
<svg width="76px" height="43px" viewBox="0 0 76 43" version="1.1" xmlns="http://www.w3.org/2000/svg" xmlns:xlink="http://www.w3.org/1999/xlink">
    <!-- Generator: sketchtool 53.2 (72643) - https://sketchapp.com -->
    <title>1175996B-CEF3-4650-A764-81AB5DE48430</title>
    <desc>Created with sketchtool.</desc>
    <g id="Page-1" stroke="none" stroke-width="1" fill="none" fill-rule="evenodd">
        <g id="Main-State" transform="translate(-1291.000000, -1924.000000)" fill="#D9DCE0">
            <g id="Group-18" transform="translate(391.000000, 1559.000000)">
                <path d="M900,374.196636 L900,365 L976,365 L976,401.941216 L931.951531,401.941216 L931.951531,406.772825 C930.709184,404.590312 929.62415,404.123729 929.159014,405.682423 C928.693878,407.241117 924.195578,405.838805 923.420068,406.617297 C922.644558,407.396644 920.628401,405.370513 920.628401,407.241117 C920.628401,409.11172 919.232143,405.526895 918.922619,404.279257 C918.612245,403.032472 917.061224,404.591166 916.440476,401.941216 C915.820578,399.291265 915.045068,398.200009 914.113946,396.642169 C913.183673,395.082621 913.647959,395.707295 912.408163,396.642169 C911.166667,397.577044 909.460034,396.642169 909.92602,394.927093 C910.391156,393.212872 910.547619,388.535936 911.011054,387.601916 C911.477041,386.666187 911.011054,386.197895 909.615646,386.354277 C908.220238,386.510659 907.444728,383.704327 905.892857,382.613924 C904.342687,381.522668 903.953231,380.312629 902.636905,379.652064 C902.016156,379.340155 903.256803,377.313169 900,374.196636" id="Fill-431"></path>
            </g>
        </g>
    </g>
</svg>