<?xml version="1.0" encoding="UTF-8"?>
<svg width="72px" height="33px" viewBox="0 0 72 33" version="1.1" xmlns="http://www.w3.org/2000/svg" xmlns:xlink="http://www.w3.org/1999/xlink">
    <!-- Generator: sketchtool 53.2 (72643) - https://sketchapp.com -->
    <title>C09653F5-8173-4101-AA91-9A8CB5AB3CCA</title>
    <desc>Created with sketchtool.</desc>
    <g id="Page-1" stroke="none" stroke-width="1" fill="none" fill-rule="evenodd">
        <g id="Main-State" transform="translate(-1416.000000, -1929.000000)" fill="#D9DCE0">
            <g id="Group-18" transform="translate(391.000000, 1559.000000)">
                <path d="M1070.05063,370 L1025,370 L1025,391.640667 L1041.33278,391.640667 L1041.33278,402.528643 L1097,402.528643 C1095.9112,401.168461 1093.3359,398.391049 1092.55353,395.200448 C1092.3555,394.39689 1092.50871,388.374274 1091.8274,387.012462 C1091.1469,385.651465 1090.4664,382.793372 1089.78672,382.112873 C1089.1054,381.432375 1088.1527,379.390879 1088.1527,378.574281 C1088.1527,377.758498 1087.33611,375.036504 1086.38341,375.036504 C1085.43071,375.036504 1085.70291,373.538592 1084.06971,373.402492 C1082.43652,373.266393 1081.07552,371.905396 1080.25811,371.633196 C1079.44232,371.360997 1075.63072,371.360182 1075.49543,371.768481 C1075.35933,372.177595 1075.22405,372.994193 1073.18174,371.905396 C1071.13943,370.815783 1071.34398,371.293355 1070.05063,370" id="Fill-493"></path>
            </g>
        </g>
    </g>
</svg>