<?xml version="1.0" encoding="UTF-8"?>
<svg width="32px" height="54px" viewBox="0 0 32 54" version="1.1" xmlns="http://www.w3.org/2000/svg" xmlns:xlink="http://www.w3.org/1999/xlink">
    <!-- Generator: sketchtool 53.2 (72643) - https://sketchapp.com -->
    <title>A84AE712-008B-4D67-8999-1C3910D5E077</title>
    <desc>Created with sketchtool.</desc>
    <g id="Page-1" stroke="none" stroke-width="1" fill="none" fill-rule="evenodd">
        <g id="Main-State" transform="translate(-575.000000, -2056.000000)" fill="#D9DCE0">
            <g id="Group-18" transform="translate(391.000000, 1559.000000)">
                <path d="M212.225302,543.692362 C212.203317,543.957231 212.657443,543.495602 212.939812,543.542384 C213.604856,543.653148 214.036997,544.089322 213.50661,543.483219 C213.089584,543.005766 213.249662,542.070125 213.834323,542.469149 C214.489749,542.91633 215.790981,543.912513 215.790981,543.912513 C215.459146,544.687169 214.131807,546.347933 214.021882,547.23404 C213.579435,548.009384 212.655382,546.967107 212.36202,547.123277 C210.199253,548.287325 209.632455,547.391586 209.811082,548.227471 C210.09826,549.566952 208.347023,548.049287 207.905264,548.823255 C207.462817,549.599287 208.235725,550.558319 207.130295,550.226029 C206.024179,549.894427 206.47487,551.002061 205.505472,550.999997 C204.269507,550.997245 185.487512,550.335416 185.487512,550.335416 C185.203082,549.672212 183.122071,548.088501 184.425365,546.702926 C184.568954,546.550196 184.175973,545.778292 184.441167,545.719815 C185.26354,545.538878 185.937515,544.899752 185.534917,543.59467 C185.407816,543.182575 185.907973,543.504546 185.872935,543.144049 C185.471023,539.03617 186.670575,539.376716 186.597063,538.536015 C186.371718,535.975384 187.237374,536.320058 186.918593,534.686125 C186.77363,533.94518 186.893173,533.039809 187.478521,532.726094 C189.136322,531.839986 187.035388,530.954567 189.468844,529.18304 C191.901613,527.410825 189.082047,527.815352 191.229699,525.859449 C193.015287,524.232396 190.722672,524.965086 191.776574,523.716417 C193.143074,522.096244 192.897805,521.097309 192.455358,519.990363 C192.012912,518.883416 192.561161,517.354743 193.771019,517.224029 C195.122405,517.079555 196.76303,517.353367 196.79532,516.194135 C196.817992,515.387832 198.427701,515.892803 199.311907,515.007384 C200.1968,514.120589 201.413528,512.680664 201.192305,511.684481 C200.971081,510.686922 199.754353,508.583105 199.754353,508.583105 C200.364435,508.033415 200.865279,507.527756 201.251389,506.239185 C201.448566,505.581484 202.336208,505.608315 202.18781,505.26089 C201.855975,504.485545 200.971081,503.156384 201.745363,503.045621 C202.519645,502.934857 201.73918,502.14025 202.962091,501.162642 C203.50347,500.729908 203.176444,500.595066 203.310415,500.359779 C203.721945,499.638097 203.846297,499.1689 203.846297,499.1689 L203.245834,498.426579 L204.194621,498.426579 C204.968215,497.761998 205.787841,496.637853 206.500977,497.728976 C206.846552,498.258714 207.876409,498.483681 208.521529,498.120432 C209.006571,497.847307 208.586797,496.895842 209.310925,497.009357 L211.035367,532.726094 L211.367202,533.279911 C211.477127,534.055255 211.569876,535.636214 210.924756,536.491363 C210.503607,537.051372 211.256591,537.155943 212.030872,538.152814 C212.805154,539.150373 214.131807,539.814266 214.021882,540.368771 C213.957988,540.686614 213.884476,541.447511 213.655009,541.871989 C213.486,542.188456 212.16553,541.871989 212.820956,542.379712 C213.681116,543.044981 212.255531,543.335993 212.225302,543.692362" id="Fill-495"></path>
            </g>
        </g>
    </g>
</svg>