<?xml version="1.0" encoding="UTF-8"?>
<svg width="34px" height="64px" viewBox="0 0 34 64" version="1.1" xmlns="http://www.w3.org/2000/svg" xmlns:xlink="http://www.w3.org/1999/xlink">
    <!-- Generator: sketchtool 53.2 (72643) - https://sketchapp.com -->
    <title>0875E669-EACA-435C-BD27-3654223933CF</title>
    <desc>Created with sketchtool.</desc>
    <g id="Page-1" stroke="none" stroke-width="1" fill="none" fill-rule="evenodd">
        <g id="Main-State" transform="translate(-697.000000, -2051.000000)" fill="#D9DCE0">
            <g id="Group-18" transform="translate(391.000000, 1559.000000)">
                <g id="Group-27" transform="translate(306.000000, 492.000000)">
                    <path d="M24.9673016,49.728472 C25.0697573,50.809811 24.813618,51.411007 24.5062508,51.411007 C24.1980153,51.411007 24.9195468,52.9185747 25.4804485,51.1099004 C25.8911397,49.7884899 26.7628816,49.8474905 26.3009626,49.3073296 C25.8911397,49.0082575 24.8648458,48.647133 24.9673016,49.728472" id="Fill-496"></path>
                    <path d="M30.0171825,41.0114578 C30.0688624,39.5728251 30.9491717,34.7999699 31.0525314,34.0815222 C31.1558911,33.3639433 31.3109307,30.6943066 31.7252454,29.8716102 C32.1395602,29.0515201 32.3979595,26.9986885 32.2945997,26.0230939 C32.19124,25.0483681 31.9433519,23.1684157 31.5702059,23.354326 C30.6382167,23.8173642 32.2683219,23.8903383 31.7769253,25.3559019 C31.6735656,25.6634358 31.9836447,24.9458569 29.9138228,24.3811761 C27.8440009,23.8173642 28.2583157,23.5080929 27.9990405,23.8677511 C27.7397653,24.2274092 25.7224992,23.9693936 25.9808984,23.1484347 C26.2401736,22.3283445 26.4985729,21.6090282 26.9645675,21.0973406 C27.4296862,20.5830467 27.0679272,19.2990496 27.8956808,18.6831133 C28.7243103,18.0671769 29.7710463,15.6711932 29.1894289,18.1714257 C29.0343894,18.8377489 29.862143,18.7864933 30.2764577,17.7083875 C30.6898965,16.6302817 33.4324324,11.2414901 33.4324324,9.39281227 C32.0878803,8.82900029 18.4768086,0.205891279 18.01169,0 C17.5973752,0 15.3208339,1.23361019 15.2682781,1.90080219 C15.2157223,2.56712544 14.2329292,4.87710397 13.7678105,5.49390907 C13.30094,6.10897668 10.5680393,8.99927325 9.36889156,9.44493665 C8.54026206,9.75247046 9.67897068,10.3684068 10.1966451,11.3440014 C10.7143196,12.3187272 10.9219149,13.1918104 10.55928,13.2430661 C10.1966451,13.2951904 9.83488617,13.3455773 9.93824587,13.9623824 C10.0416056,14.57745 9.10961637,15.3462846 8.6444977,15.2437733 C8.17850309,15.141262 7.86842398,16.1681122 7.86842398,17.1445755 C7.86842398,18.1184326 7.50578908,21.0452162 8.43777829,20.7376824 C9.36889156,20.4292798 9.46261604,20.3675993 9.98992573,20.8905805 C10.9727189,21.8653063 9.98992573,25.098755 10.7651235,24.8946012 C11.5420732,24.68871 12.4223825,24.8433456 12.5257422,25.5105376 C12.6291019,26.1768608 12.5774221,26.4340078 13.1984562,26.8961772 C13.8186145,27.3574779 14.1304454,27.4599892 14.5438843,28.3330725 C14.9573231,29.205287 16.9763411,30.1296259 17.0280209,30.5405397 C17.0797008,30.9505848 17.8557745,32.4387357 16.2519472,32.2858375 C14.647244,32.1312019 15.2682781,32.5421157 14.5955641,33.1580521 C13.9228501,33.7731197 12.3707027,33.9277553 11.8013484,34.6462029 C11.231994,35.3655193 9.73065053,36.6477789 9.16217215,36.6999033 C8.59281785,36.7502902 9.00625667,37.2359156 9.00625667,38.4434636 C9.00625667,38.8552462 8.43777829,38.9577575 6.88475492,39.6249494 C5.33173155,40.2912727 4.08966323,39.8820964 2.6408755,41.3693785 C1.19208776,42.8583981 1.65808237,43.7818683 1.03704821,44.5003159 C0.415138115,45.2187636 0.156738852,45.6818018 0.829452866,46.1934894 C1.50216688,46.7077832 1.03704821,47.785889 0.777773013,48.3505697 C0.51937375,48.9152504 0.209294634,49.0177617 1.19208776,49.787465 C2.17575682,50.5571682 2.38247623,51.6352741 2.69343128,51.6865297 C3.00351039,51.7377853 3.15854995,51.2234915 3.67622441,52.6099999 C4.19302293,53.9965082 4.07302056,51.4875883 4.60733769,52.7646355 C5.7460463,55.4846591 5.33173155,53.2771918 6.00444557,54.1494064 C6.67803551,55.0224897 7.71163256,54.6628315 7.97090775,55.4846591 C8.23018295,56.305618 8.23018295,57.2812125 8.85121711,56.6652762 C9.47225127,56.0493398 11.0243987,56.305618 11.0760786,56.9215544 C11.1277584,57.5374907 14.0262098,56.7686562 13.612771,58.5122165 C13.1984562,60.2583831 12.2147872,61.9524252 12.1114275,63.3893205 C12.0080678,64.8270845 14.647244,63.3893205 15.2682781,62.5162372 C15.8893123,61.6448914 18.1667295,57.2290882 18.5284885,56.7174006 C18.8911234,56.2031067 21.1168608,54.3031733 20.4949507,54.3031733 C19.8739165,54.3031733 18.9428032,55.4325347 18.9428032,54.8687227 C18.9428032,54.3031733 19.1495227,54.6124446 18.3217691,54.0990195 C17.4940155,53.5864631 19.2528824,53.9965082 19.8222367,53.7906169 C20.3924669,53.5864631 20.5466305,52.6099999 20.7542259,53.0209137 C20.9609453,53.4318275 21.1159848,51.5831497 21.5828554,52.1486991 C22.0479741,52.7125111 20.4432708,54.0468951 21.2719003,53.7393613 C22.0996539,53.4318275 23.9110765,51.9949322 23.0307672,51.7377853 C22.1513338,51.4806384 21.737019,51.5327628 22.2546935,50.7621908 C22.7723679,49.9924875 23.0307672,49.684085 23.4450819,50.6084239 C23.8593967,51.5327628 23.8068409,49.6858224 23.6001215,49.0177617 C23.3934021,48.349701 23.1341269,47.0161857 24.0144362,47.5799977 C24.8938697,48.1446784 25.9292186,49.3261643 25.7224992,48.4522123 C25.5149038,47.5799977 24.3761952,47.118697 25.3598643,46.5531475 C26.3435333,45.9893356 27.481366,44.7574628 27.9990405,43.9365039 C28.5167149,43.1146763 28.3616754,42.2928487 27.8956808,42.3953599 C27.4296862,42.4978712 28.2583157,41.0114578 28.6200746,40.1887614 C28.9827095,39.3686713 29.500384,38.0846742 29.500384,37.0586927 C29.500384,36.0327113 30.1179144,35.1335658 30.3798174,34.4411804 C30.5357329,34.0302666 30.3281376,34.4933048 30.3798174,35.0571168 C30.4314973,35.6209287 29.7071034,40.1887614 29.6545476,40.6509309 C29.6037437,41.1139691 28.2066358,44.7574628 27.6372815,45.8346999 C27.0679272,46.9128057 25.463224,49.4790624 26.9120117,47.4783552 C28.3616754,45.4750417 29.9655027,42.4474843 30.0171825,41.0114578" id="Fill-497"></path>
                </g>
            </g>
        </g>
    </g>
</svg>