<?xml version="1.0" encoding="UTF-8"?>
<svg width="75px" height="51px" viewBox="0 0 75 51" version="1.1" xmlns="http://www.w3.org/2000/svg" xmlns:xlink="http://www.w3.org/1999/xlink">
    <!-- Generator: sketchtool 53.2 (72643) - https://sketchapp.com -->
    <title>ADFA7077-171C-41B3-8B84-D9857B3B1692</title>
    <desc>Created with sketchtool.</desc>
    <g id="Page-1" stroke="none" stroke-width="1" fill="none" fill-rule="evenodd">
        <g id="Main-State" transform="translate(-923.000000, -2058.000000)" fill="#D9DCE0">
            <g id="Group-18" transform="translate(391.000000, 1559.000000)">
                <g id="Group-28" transform="translate(532.000000, 499.000000)">
                    <path d="M41.1521616,34.3261975 L0,34.3261975 L0,31.3444664 C1.51077988,30.6580799 5.09424979,27.8221527 5.71907318,28.1308135 C6.3413111,28.4386216 6.54728737,26.3078392 7.17038712,26.3078392 C7.79434869,26.3078392 9.21980786,25.7050128 8.10546765,23.942577 C7.46254592,22.9270661 6.73947443,24.0304004 6.75412546,20.9616986 C6.76188189,19.7108552 8.20888669,19.7279083 10.4961712,19.316929 C12.782594,18.9050972 17.3554394,18.801926 18.2896581,19.316929 C19.2247386,19.8302268 20.575219,20.756209 21.7197231,20.2420586 C22.8616417,19.7279083 25.5634643,20.2420586 26.1874258,20.2420586 C26.8105256,20.2420586 29.5123481,18.5972891 30.1371715,18.2886283 C30.7594094,17.9799676 31.5419469,17.1707989 32.4227324,17.4666699 C33.9119667,17.9680304 33.4620938,15.100555 33.046694,14.4840862 C32.6295705,13.8667647 32.429627,13.2119264 33.150113,13.3534669 C34.4368183,13.6067052 34.5505793,11.7189292 33.8835264,11.4119738 C33.0656541,11.0376587 32.8648488,11.9457352 32.0736931,11.4119738 C31.4324951,10.9788255 32.0056089,10.3717359 32.8381322,10.1662463 C33.6697937,9.95990401 35.9562164,8.72611367 36.5793162,7.80098407 C37.2032778,6.87585448 37.7220966,6.05389602 38.9700198,5.12791377 C40.2162193,4.20278418 45.5155835,0.708608075 46.2429641,0.810073901 C46.9703447,0.913245035 46.2429641,0.810073901 46.9703447,0.913245035 C47.699449,1.01641617 59.9615004,0.810073901 59.9615004,0.810073901 C59.9615004,1.04029048 60.3949986,1.32592957 60.2976123,1.53653511 C59.9770133,2.23059547 59.9063436,2.83597981 60.2976123,3.06619639 C60.817293,3.37485714 59.2461854,4.1652674 59.9166855,5.60881063 C61.1904634,8.34668264 60.2726194,8.21281596 59.9615004,9.4466063 C59.6495196,10.6803966 58.9928087,11.7726464 59.5452388,12.8401692 C60.6759537,15.0221108 58.8075162,16.0035156 59.3918339,16.8118316 C59.6943346,17.229632 59.894278,15.9685568 60.4130969,16.3778307 C60.9336394,16.7905152 61,17.2603276 61,18.2886283 C61,19.316929 60.7923001,25.89686 60.7923001,25.89686 C61,27.1306503 58.7144391,33.504239 58.7144391,33.504239 L58.0904775,41.8329633 L58.8669822,43.1758934 L56.735688,44.3022493 C56.735688,44.3022493 57.2614015,45.4209314 57.2614015,45.8319106 C57.2614015,46.2445951 56.1229302,46.0246104 56.1229302,46.6410792 C56.1229302,47.2584007 56.2246256,47.3624245 55.3929641,47.3624245 C54.5621645,47.3624245 53.4305877,49.5008808 53.8459876,48.5757512 C54.2613874,47.6506216 54.7939955,46.2795539 54.8965527,45.4575955 L46.9703447,41.0101522 C46.2429641,41.0101522 43.8531224,39.2622115 44.1651031,38.64489 C44.4762221,38.0284211 44.1651031,35.9718197 43.3334417,35.9718197 C42.5035038,35.9718197 42.2949421,34.9452243 41.1521616,34.3261975" id="Fill-499"></path>
                    <path d="M53.9981272,50.0051667 C54.0409818,49.7717326 53.337777,49.7853595 52.974487,49.8451992 C52.613145,49.9056314 52.4806853,49.8848948 52.4806853,50.2463029 C52.4806853,50.6071186 51.8875389,50.5668305 52.0190246,50.748127 C52.1514842,50.9282386 53.8656676,50.7072464 53.9981272,50.0051667" id="Fill-500"></path>
                    <path d="M67.1901441,46.8322571 C66.8747625,46.803128 67.1341893,46.4844209 67.4207457,46.4844209 C67.7081499,46.4844209 67.8514281,45.9044082 68.080334,45.9044082 C68.3109356,45.9044082 68.6839676,45.9335374 68.6839676,45.6431027 C68.6839676,45.352668 69.4885297,45.5265861 69.2291029,45.352668 C68.9722196,45.1796066 69.000197,45.0622333 69.3155785,44.859186 C69.6318079,44.6561388 69.8047591,44.4239624 70.1201407,44.39569 C70.4355223,44.3665608 70.8373794,43.6400457 70.4651953,43.8439497 C70.0921633,44.0478537 69.3452515,44.0478537 69.1434752,44.4822206 C68.9425466,44.9174443 68.1956348,44.9765594 67.9667288,45.352668 C67.7369751,45.7287766 67.2206649,45.9044082 66.4161028,45.9326807 C65.6132362,45.9618098 64.6467443,46.2531012 63.8667683,46.2231154 C63.0867924,46.1939862 62.3398807,46.105742 62.0804539,46.1357279 C61.8227227,46.1648571 62.2542529,46.4261626 62.1092791,46.658339 C61.9660009,46.8896587 61.5064933,47.0644336 61.3055647,46.7165973 C61.1614388,46.4672861 59.5836831,46.0491972 59.8990646,46.803128 C60.0618422,47.1938012 59.1182409,46.4707131 58.9512243,46.5435359 C58.5493671,46.7165973 57.6888502,46.6292099 57.6888502,47.0353044 C57.6888502,47.4422557 57.4870738,47.4713848 57.2293426,47.4131265 C56.9699159,47.3548683 56.4408887,47.4662444 56.5680587,47.7900919 C56.6265569,47.9348809 56.6825117,48.2835739 56.1958745,48.1662006 C55.7075418,48.0513975 55.3913124,47.9057518 55.2768594,48.0805266 C55.1607108,48.2553015 54.702051,48.6314101 54.5011224,49.0375047 C54.2993461,49.4435992 53.9263141,49.9379379 54.0127897,50.111856 C54.0984175,50.2849174 54.4146469,50.7209978 54.5867502,50.6618828 C54.7588536,50.6044812 55.104756,50.3140466 55.3048368,50.0518843 C55.5066132,49.7922922 56.0509007,49.6757756 56.2806545,49.7922922 C56.5104083,49.907952 56.5680587,50.1109993 56.3959553,50.1692576 C56.2238519,50.2266591 54.9038274,50.6618828 54.9318048,50.7783994 C54.96063,50.8940592 55.9372955,50.6344671 56.3094797,50.6044812 C56.6825117,50.5762088 58.5773445,50.5170938 58.3484386,50.4305631 C58.1186848,50.3440324 56.4917567,50.3046224 57.25732,50.111856 C57.6023746,50.0236119 58.5493671,49.7922922 58.7791209,49.8214213 C59.0088747,49.8505505 60.5595008,49.3562118 60.846905,49.2696811 C61.1334614,49.1831504 61.5649915,49.0092323 61.8515479,49.1831504 C62.1381043,49.3570685 62.1381043,48.602281 62.3398807,48.7187976 C62.5399614,48.8327439 63.2817864,48.9218448 63.5742774,48.6314101 C63.8667683,48.3409754 64.4932925,48.3992337 64.6653959,48.5148936 C64.8374993,48.6314101 65.0087549,48.6888117 65.2970068,48.4283629 C65.5835632,48.1662006 65.7556666,47.8766226 66.0998734,47.9931392 C66.444928,48.1096558 67.1901441,48.0513975 67.3342701,47.8483502 C67.4783961,47.645303 67.8802532,47.2666241 68.2829582,47.2383517 C68.6839676,47.2100793 68.9145692,47.1809501 68.627165,47.4131265 C68.3397608,47.645303 68.2253078,47.7618195 69.2867533,47.2666241 C70.3490467,46.7748556 73.5367744,45.6148303 73.8530038,45.352668 C74.1683854,45.0905057 73.9674568,44.6561388 73.334998,45.0331042 C72.7033871,45.4109263 71.9861483,45.84615 71.7563946,45.7005042 C71.5266408,45.5557153 70.6941012,45.0913624 70.4651953,45.4109263 C70.2345937,45.7287766 69.6606331,45.7296334 69.4885297,45.7596193 C69.3155785,45.7878917 68.7424658,46.0192113 68.6551424,46.4261626 C68.5686668,46.8322571 67.9370558,47.0361612 67.7369751,46.803128 C67.5360465,46.5709516 67.5080691,46.8613863 67.1901441,46.8322571" id="Fill-501"></path>
                    <path d="M71.8940063,45.0430721 C71.8040063,44.9840721 70.8430063,45.2820721 71.0810063,45.5190721 C71.3170063,45.7550721 72.1970063,45.2470721 71.8940063,45.0430721" id="Fill-502"></path>
                    <path d="M74.7365,44.3079088 C74.7365,44.5844836 74.6305,44.8079088 74.4995,44.8079088 C74.3685,44.8079088 74.2635,44.5844836 74.2635,44.3079088 C74.2635,44.031334 74.3685,43.8079088 74.4995,43.8079088 C74.6305,43.8079088 74.7365,44.031334 74.7365,44.3079088" id="Fill-503"></path>
                    <path d="M73.9966388,43.1426866 C74.0284844,43.2956866 73.8304199,43.4946866 73.5562364,43.5856866 C73.282053,43.6786866 73.0342781,43.6276866 73.0032092,43.4726866 C72.9721402,43.3206866 73.1702048,43.1216866 73.4436115,43.0296866 C73.7185717,42.9376866 73.9647931,42.9876866 73.9966388,43.1426866" id="Fill-504"></path>
                    <path d="M73.72,43.3079088 C73.72,43.3929088 73.621,43.4609088 73.5,43.4609088 C73.378,43.4609088 73.28,43.3929088 73.28,43.3079088 C73.28,43.2239088 73.378,43.1549088 73.5,43.1549088 C73.621,43.1549088 73.72,43.2239088 73.72,43.3079088" id="Fill-505"></path>
                </g>
            </g>
        </g>
    </g>
</svg>