<?xml version="1.0" encoding="UTF-8"?>
<svg width="75px" height="30px" viewBox="0 0 75 30" version="1.1" xmlns="http://www.w3.org/2000/svg" xmlns:xlink="http://www.w3.org/1999/xlink">
    <!-- Generator: sketchtool 53.2 (72643) - https://sketchapp.com -->
    <title>F8263CAD-A23B-4E4E-B1F5-5434BEC0C494</title>
    <desc>Created with sketchtool.</desc>
    <g id="Page-1" stroke="none" stroke-width="1" fill="none" fill-rule="evenodd">
        <g id="Main-State" transform="translate(-1046.000000, -2068.000000)" fill="#D9DCE0">
            <g id="Group-18" transform="translate(391.000000, 1559.000000)">
                <path d="M728.227283,509.510733 C723.770134,509.510733 684.086962,510.681055 678.678498,509 C678.312345,509.584306 677.873474,510.828201 678.166055,511.557942 C678.458635,512.289393 676.996588,511.48608 676.63129,512.070386 C676.265992,512.653836 674.513074,514.626616 674.294067,514.115883 C674.074203,513.604295 672.758446,513.311714 672.246858,514.262174 C671.736125,515.212633 670.05507,516.381244 670.274077,515.212633 C670.492229,514.04231 669.543481,514.845624 668.665739,515.431641 C667.788853,516.016802 667.349982,517.258131 666.401234,517.331704 C665.450774,517.404421 663.842437,518.35488 662.892833,519.231767 C661.942374,520.108653 660.772907,519.012759 659.458005,519.816073 C658.143103,520.620241 657.5126,521.071089 657.704232,521.642563 C657.92324,522.301297 656.827346,522.95832 656.388475,522.81203 C655.950459,522.665739 655.291725,522.519449 655.291725,522.81203 L655,525.443544 L662.747398,525.808842 C663.696146,525.88156 668.007861,525.808842 669.469908,524.565802 C670.9311,523.324473 680.510977,524.530727 681.967892,524.785666 C684.890276,525.298109 682.771205,526.466721 684.158824,525.661696 C685.547299,524.858383 685.620872,526.613011 685.693589,527.489898 C685.767162,528.367639 685.767162,528.367639 685.767162,528.367639 L695.632776,528.804799 L705.206664,539.035711 C706.595994,538.087818 710.029111,538.232397 710.540699,538.816703 C711.199433,537.794382 712.295327,534.725707 712.806916,534.213263 C713.318504,533.701675 717.192203,530.193274 718.36167,530.119701 C719.530282,530.046984 721.576635,528.804799 722.380804,529.608968 C723.184117,530.413137 724.427157,528.221349 725.011463,527.416325 C725.595769,526.613011 725.08418,525.443544 723.622988,525.954277 C722.161796,526.466721 720.918756,528.001486 719.89558,527.051027 C718.872403,526.101423 718.36167,524.712948 719.676572,525.88156 C720.992329,527.051027 721.576635,526.977454 722.893248,525.005529 C724.20815,523.031893 722.385937,523.034459 718.872403,521.132685 C717.11863,520.182226 721.211337,521.935143 723.915569,522.447587 C726.618945,522.95832 727.27768,522.593022 727.86113,520.839249 C728.446291,519.086332 730.200919,520.693814 729.981056,518.501171 C729.762048,516.308527 728.592581,515.212633 726.911526,515.503503 C725.231326,515.796939 723.476698,515.869656 722.380804,516.162237 C721.28491,516.454817 721.28491,516.820115 721.13862,515.066343 C720.992329,513.311714 720.772466,514.407609 721.649352,514.99277 C722.527094,515.577076 722.964254,515.577076 723.915569,514.847335 C724.866028,514.115883 726.326365,514.481181 727.130534,513.677868 C727.864552,512.942139 728.00742,513.823303 728.957024,514.627472 C729.535341,515.115106 728.60798,513.669313 728.139167,512.119149 C727.785846,510.944549 726.711339,510.44066 726.581304,510.022321 C726.443568,509.574895 727.144222,509.508166 727.346975,509.943615 C727.474444,510.216519 728.146011,510.351688 728.504465,511.116504 C728.664443,511.456137 727.995443,509.756261 728.227283,509.510733" id="Fill-506"></path>
            </g>
        </g>
    </g>
</svg>