<?xml version="1.0" encoding="UTF-8"?>
<svg width="70px" height="43px" viewBox="0 0 70 43" version="1.1" xmlns="http://www.w3.org/2000/svg" xmlns:xlink="http://www.w3.org/1999/xlink">
    <!-- Generator: sketchtool 53.2 (72643) - https://sketchapp.com -->
    <title>513F44D8-D04E-467C-B8F5-5BA6FED42066</title>
    <desc>Created with sketchtool.</desc>
    <g id="Page-1" stroke="none" stroke-width="1" fill="none" fill-rule="evenodd">
        <g id="Main-State" transform="translate(-1172.000000, -2062.000000)" fill="#D9DCE0">
            <g id="Group-18" transform="translate(391.000000, 1559.000000)">
                <path d="M783.531,503 L781,543.869 C788.157,544.962 820.227,545.51 839.11,545.51 C844.263,545.51 848.431,545.469 850.845,545.387 C850.845,545.387 850.718,541.465 850.212,540.2 C849.708,538.934 848.442,534.506 848.568,533.368 C848.694,532.228 848.19,522.106 847.176,520.967 C846.164,519.828 844.013,514.135 844.265,512.869 C844.518,511.604 844.899,508.061 844.393,507.428 C843.886,506.795 843.507,504.645 844.14,503.885 C842.584,504.051 838.113,504.121 832.25,504.121 C815.689,504.121 788.016,503.561 783.531,503" id="Fill-507"></path>
            </g>
        </g>
    </g>
</svg>