<?xml version="1.0" encoding="UTF-8"?>
<svg width="59px" height="58px" viewBox="0 0 59 58" version="1.1" xmlns="http://www.w3.org/2000/svg" xmlns:xlink="http://www.w3.org/1999/xlink">
    <!-- Generator: sketchtool 53.2 (72643) - https://sketchapp.com -->
    <title>41C3AE26-FF1C-4CBE-B165-D23B4F5ACD36</title>
    <desc>Created with sketchtool.</desc>
    <g id="Page-1" stroke="none" stroke-width="1" fill="none" fill-rule="evenodd">
        <g id="Main-State" transform="translate(-1300.000000, -2054.000000)" fill="#D9DCE0">
            <g id="Group-18" transform="translate(391.000000, 1559.000000)">
                <path d="M937.665847,502.104831 C936.763778,502.104831 935.21078,500.345935 935.674279,501.689344 C935.942037,502.46492 933.934772,502.628345 933.25799,501.61271 C932.581207,500.597998 932.244201,500.483508 931.114999,500.371788 C929.984874,500.259145 930.09844,499.355229 928.970162,499.468796 C927.842806,499.581439 927.277744,499.807649 926.939814,498.904656 L909,499.694082 L909,542.117172 C909,542.117172 910.129202,540.764531 910.467131,541.327747 C910.805061,541.890963 912.497479,542.794878 913.175185,541.779243 C913.851967,540.762684 913.851967,542.229816 914.303463,542.681312 C914.754036,543.132808 915.092889,542.682235 915.544385,543.358094 C915.995881,544.034877 916.898873,545.276722 916.898873,545.953504 C916.898873,546.630287 919.380717,547.307069 919.83129,547.081783 C920.282786,546.856496 922.08877,547.532356 922.314057,548.096495 C922.539343,548.661558 924.457971,550.127766 924.7959,549.789836 C925.134753,549.451907 925.812459,548.436271 926.488318,548.661558 C927.166024,548.886844 928.858442,548.886844 929.083728,549.451907 C929.309015,550.016046 929.984874,550.127766 930.438217,549.902479 C930.888789,549.677193 931.002356,550.127766 931.905348,549.451907 C932.806494,548.774201 935.62719,546.51672 935.514547,548.209138 C935.401904,549.902479 936.192253,550.691905 936.756392,550.691905 C937.319608,550.691905 938.221677,551.70754 938.786739,552.159037 C939.350879,552.609609 939.125592,553.174672 940.930653,552.948462 C942.735714,552.723176 943.187211,552.384323 943.299854,551.256968 C943.411574,550.127766 943.75135,549.677193 944.428132,550.016046 C945.104915,550.353052 945.104915,548.661558 944.653419,547.872132 C944.201923,547.081783 944.567551,546.887889 945.356977,546.210183 C946.146403,545.534324 944.754982,545.655277 946.797333,543.471661 C947.602455,542.610217 947.503661,543.542755 947.76588,543.70895 C948.108426,543.92685 948.778745,543.644319 948.603317,544.260163 C948.545149,544.46329 947.997629,547.369854 949.712206,544.635025 C950.095378,544.023797 950.846948,545.683899 950.962361,544.683037 C950.993754,544.404199 950.410225,544.307252 950.592116,544.079195 C951.147945,543.383947 950.379756,542.891825 950.081528,542.597291 C949.602333,542.121789 951.241199,542.782875 950.746308,540.650041 C950.618892,540.100675 952.755419,538.717564 953.093349,539.169983 C953.432202,539.619633 953.372187,537.917982 954.243787,537.491415 C955.321284,536.965131 955.260345,536.589346 955.372989,537.491415 C955.484709,538.394407 957.016471,537.596672 958.051496,537.130403 C959.027429,536.689986 960.110466,533.880369 961.802884,533.767726 C963.495302,533.655083 962.593233,530.38289 963.382659,529.707031 C964.173008,529.029325 964.736224,525.41828 965.527496,524.291848 C966.316922,523.162646 966.767494,518.874818 966.090712,518.423322 C965.414853,517.972749 965.527496,517.521253 967.219914,516.957114 L967.219914,495 C967.219914,495 956.986002,497.611106 953.002865,501.499143 C950.842332,503.607048 948.521143,503.365142 948.18229,502.80008 C947.843437,502.236864 946.45848,502.403059 944.201923,503.417771 C941.946289,504.433406 940.81801,504.658693 939.576165,503.869267 C938.335243,503.078918 937.095245,503.982833 936.981678,503.643057 C936.869035,503.304204 936.756392,502.967198 935.8534,503.529491 C934.950408,504.095477 931.272884,503.310667 934.725121,502.740988 C937.406399,502.298725 938.567916,502.104831 937.665847,502.104831" id="Fill-508"></path>
            </g>
        </g>
    </g>
</svg>