<?xml version="1.0" encoding="UTF-8"?>
<svg width="83px" height="39px" viewBox="0 0 83 39" version="1.1" xmlns="http://www.w3.org/2000/svg" xmlns:xlink="http://www.w3.org/1999/xlink">
    <!-- Generator: sketchtool 53.2 (72643) - https://sketchapp.com -->
    <title>97669514-7D41-4EA6-B6B1-82DC39155C9A</title>
    <desc>Created with sketchtool.</desc>
    <g id="Page-1" stroke="none" stroke-width="1" fill="none" fill-rule="evenodd">
        <g id="Main-State" transform="translate(-1411.000000, -2064.000000)" fill="#D9DCE0">
            <g id="Group-18" transform="translate(391.000000, 1559.000000)">
                <path d="M1101.01145,505 L1020,505 L1020,510.565234 L1048.80563,510.565234 L1048.80563,533.090112 C1049.86499,532.825271 1050.39557,533.488718 1051.19099,534.813817 C1051.5878,535.474571 1052.7908,535.62719 1053.70382,535.035564 C1054.50732,534.51576 1055.09985,536.110187 1055.15371,534.768031 C1055.21117,533.341485 1056.56769,535.611031 1056.62335,536.271784 C1056.75532,537.859927 1060.31675,537.542119 1060.84643,538.203771 C1061.37701,538.868115 1061.6589,537.198276 1062.45342,537.859927 C1063.24794,538.523374 1064.24536,540.174361 1064.82083,538.366266 C1065.19699,537.184809 1067.47461,538.497339 1068.34275,540.353016 C1069.21179,542.207794 1070.42017,541.45098 1071.46427,540.245284 C1072.39346,539.171559 1073.28135,540.393415 1073.41332,541.319907 C1073.54708,542.247296 1075.3058,541.704149 1075.57154,541.172673 C1075.83638,540.642993 1076.76467,544.219682 1077.42632,542.49867 C1078.08797,540.775862 1078.75142,539.981342 1080.07562,541.570382 C1081.40161,543.162117 1080.20938,539.582735 1082.329,541.704149 C1084.44862,543.823768 1084.4585,543.524813 1087.1078,541.802903 C1089.75799,540.080993 1086.96954,542.561513 1091.61816,540.729178 C1092.90645,540.221942 1091.13247,542.15752 1095.54049,540.514613 C1097.59457,539.747923 1095.43365,541.802903 1102.33745,543.954841 L1103,523.55048 L1100.87948,511.227783 L1101.01145,505" id="Fill-509"></path>
            </g>
        </g>
    </g>
</svg>