<?xml version="1.0" encoding="UTF-8"?>
<svg width="73px" height="47px" viewBox="0 0 73 47" version="1.1" xmlns="http://www.w3.org/2000/svg" xmlns:xlink="http://www.w3.org/1999/xlink">
    <!-- Generator: sketchtool 53.2 (72643) - https://sketchapp.com -->
    <title>69C7C8BA-68FD-4653-84AB-39E5E3941E87</title>
    <desc>Created with sketchtool.</desc>
    <g id="Page-1" stroke="none" stroke-width="1" fill="none" fill-rule="evenodd">
        <g id="Main-State" transform="translate(-432.000000, -2200.000000)" fill="#D9DCE0">
            <g id="Group-18" transform="translate(391.000000, 1559.000000)">
                <path d="M108.760048,668.060978 L108.760048,687.445978 L44.005048,687.445978 C43.366048,687.126978 41.342048,684.995978 41.875048,682.759978 C42.407048,680.522978 41.662048,679.670978 41.129048,679.031978 C40.597048,678.392978 41.875048,677.327978 41.981048,675.730978 C42.088048,674.132978 41.769048,673.599978 42.620048,672.641978 C43.472048,671.681978 44.942048,663.997978 44.908048,660.785978 C44.848048,655.090978 46.222048,655.680978 45.867048,651.733978 C45.628048,649.065978 46.977048,649.784978 46.257048,649.155978 C45.856048,648.805978 46.836048,647.689978 46.347048,647.297978 C45.597048,646.698978 46.156048,646.082978 45.898048,645.380978 C45.152048,643.355978 47.465048,646.076978 45.868048,642.561978 C44.270048,639.047978 46.135048,642.606978 47.733048,642.287978 C49.330048,641.968978 50.397048,640.789978 50.821048,641.755978 C51.413048,643.101978 51.993048,642.500978 52.739048,642.287978 C53.484048,642.074978 54.762048,642.074978 55.721048,643.458978 C56.679048,644.843978 56.679048,646.761978 56.785048,647.506978 C56.892048,648.251978 60.513048,649.102978 61.365048,649.102978 C62.217048,649.102978 65.412048,646.973978 66.584048,647.080978 C67.755048,647.186978 69.034048,646.654978 70.099048,647.293978 C71.164048,647.932978 71.590048,648.038978 72.335048,647.826978 C73.081048,647.612978 74.572048,647.506978 75.850048,647.080978 C77.128048,646.654978 77.022048,647.826978 80.536048,646.654978 C84.051048,645.481978 85.542048,645.162978 86.714048,645.055978 C87.885048,644.950978 90.761048,644.950978 91.081048,644.417978 L109.719048,644.417978 C110.678048,645.481978 111.317048,646.440978 112.382048,646.440978 C113.447048,646.440978 113.554048,648.570978 113.447048,648.678978 C113.340048,648.783978 111.850048,651.872978 111.636048,652.512978 C111.423048,653.151978 110.357048,654.641978 110.571048,655.600978 C110.785048,656.558978 109.506048,657.197978 108.973048,657.729978 C108.441048,658.263978 106.204048,662.416978 107.163048,662.736978 C108.122048,663.055978 109.613048,662.309978 109.613048,663.802978 C109.613048,665.292978 109.293048,667.315978 108.760048,668.060978" id="Fill-510"></path>
            </g>
        </g>
    </g>
</svg>