<?xml version="1.0" encoding="UTF-8"?>
<svg width="74px" height="39px" viewBox="0 0 74 39" version="1.1" xmlns="http://www.w3.org/2000/svg" xmlns:xlink="http://www.w3.org/1999/xlink">
    <!-- Generator: sketchtool 53.2 (72643) - https://sketchapp.com -->
    <title>CBAD606C-1819-43D8-BD62-704E582395B1</title>
    <desc>Created with sketchtool.</desc>
    <g id="Page-1" stroke="none" stroke-width="1" fill="none" fill-rule="evenodd">
        <g id="Main-State" transform="translate(-554.000000, -2204.000000)" fill="#D9DCE0">
            <g id="Group-18" transform="translate(391.000000, 1559.000000)">
                <path d="M223.289941,683.746287 L163,683.746287 L163,649.494625 C165.168766,648.639337 171.483932,645.747941 172.44744,645 L172.44744,649.066981 L228.427778,649.066981 C228.748947,650.136091 229.283939,649.708447 229.712455,650.780175 C230.139226,651.848412 231.423904,650.458133 231.959768,652.706318 C232.494759,654.953631 232.17359,655.59597 233.030623,656.45213 C233.886784,657.308291 236.883782,657.843282 236.99113,658.592095 C237.096732,659.342654 236.241444,658.699443 235.38441,659.769425 C234.52825,660.841154 232.709454,663.623457 231.639471,664.158449 C230.567743,664.69344 231.423904,665.014609 231.853293,665.765168 C232.280937,666.513109 231.531251,667.476617 230.782438,667.797786 C230.033625,668.118955 230.889785,669.618327 230.675963,670.259793 C230.461268,670.900386 232.17359,670.473615 232.17359,671.329776 C232.17359,672.186809 232.17359,673.042097 233.137098,673.149444 C234.100606,673.255919 233.564742,674.647944 234.207953,674.647944 C234.849419,674.647944 234.63647,675.503232 235.064114,675.718799 C235.49263,675.932621 236.883782,676.361138 235.919402,677.109951 C234.956766,677.859637 233.35092,678.179934 232.816801,678.823145 C232.280937,679.464611 231.210955,679.78578 231.210955,680.428119 C231.210955,681.070458 229.819803,681.712796 229.283939,681.819271 C228.748947,681.925745 228.106609,682.56983 226.822804,681.925745 C225.537254,681.28428 223.182594,682.783652 223.289941,683.746287" id="Fill-511"></path>
            </g>
        </g>
    </g>
</svg>