<?xml version="1.0" encoding="UTF-8"?>
<svg width="45px" height="64px" viewBox="0 0 45 64" version="1.1" xmlns="http://www.w3.org/2000/svg" xmlns:xlink="http://www.w3.org/1999/xlink">
    <!-- Generator: sketchtool 53.2 (72643) - https://sketchapp.com -->
    <title>47D53187-E562-45B0-9E36-0B6362EC1A68</title>
    <desc>Created with sketchtool.</desc>
    <g id="Page-1" stroke="none" stroke-width="1" fill="none" fill-rule="evenodd">
        <g id="Main-State" transform="translate(-692.000000, -2191.000000)" fill="#D9DCE0">
            <g id="Group-18" transform="translate(391.000000, 1559.000000)">
                <g id="Group-29" transform="translate(301.000000, 632.000000)">
                    <path d="M1.95744563,55.8911944 C3.92918479,55.5180374 3.43582542,54.8952513 5.53069213,55.0204948 C7.62555885,55.1440226 6.71526411,54.1120506 8.30997821,54.3076363 C10.4838164,54.5727064 9.24235099,53.8323973 11.6913156,53.1538521 C16.410922,51.8439424 16.4975359,50.5383219 17.7296606,50.6618498 C18.9617853,50.7879511 20.5641418,50.9123368 20.5641418,49.6676223 C20.5641418,48.4229079 22.3787872,45.5628956 22.0094045,48.0531823 C21.6400218,50.5426111 21.4192414,50.2500904 22.405111,51.2468913 C23.3901314,52.2411187 23.2746463,50.6618498 23.2746463,49.7928658 C23.2746463,48.9204506 25.1232579,46.8050365 25.0001303,45.1863073 C24.8761536,43.5684359 26.1082783,45.4359365 26.2314058,42.6968785 C26.3553826,39.9586783 26.701838,36.9948683 25.4926405,35.8505203 C23.5209014,33.9830197 27.0941479,34.7301915 27.2172754,32.862691 C27.340403,30.9960483 26.8173232,29.0238922 26.6203191,27.4935197 C26.5345544,26.8286998 25.0884425,28.2955927 24.9738065,26.9616638 C24.8413382,25.4295756 27.7403552,25.6303083 27.7106348,26.1407184 C27.6240209,27.6367776 28.8196319,27.635062 29.1890146,25.7675614 C29.5592464,23.8992031 30.1748842,22.2821895 28.8196319,22.2821895 C27.4635305,22.2821895 28.3262726,19.791045 27.8337623,18.2992749 C27.340403,16.8040735 28.0800175,15.0626743 27.8337623,14.0658734 C27.5866581,13.0707881 28.9427595,10.9536584 29.1890146,13.4448029 C29.4361188,15.9342318 28.203145,16.6805457 28.3262726,17.302474 C28.4494001,17.9252601 28.9427595,18.4245184 29.065887,19.5431315 C29.1890146,20.6634603 29.9286291,20.2894455 30.1748842,21.5350177 C30.4211393,22.78059 30.9144986,23.4016604 31.8995191,23.5269039 C32.8853886,23.6504317 34.1183625,22.78059 33.378748,22.1578038 C32.6399827,21.5350177 31.1607537,21.1618607 31.7763915,19.5431315 C32.3928784,17.9252601 32.6399827,21.4106321 33.1324929,21.0366173 C33.6250031,20.6634603 34.1183625,20.0406742 34.24149,21.6594034 C34.3646176,23.2772748 33.0085162,24.896004 33.0085162,26.5138754 C33.0085162,28.1326046 32.6399827,28.5057616 33.9952349,27.1366615 C35.3504872,25.7675614 35.2715157,30.6932335 36.4993946,27.0937699 C37.4699794,24.2491986 36.828867,24.0244466 37.4445047,24.1488322 C37.6398105,24.1882925 37.8962555,24.1900082 38.1866667,24.1428274 C37.920881,23.7542294 37.6449054,23.3235977 37.3553434,22.8363491 C34.5166164,18.0342048 33.1324929,21.6594034 31.1607537,17.5512453 C29.1890146,13.4448029 30.9144986,12.5732455 31.1607537,11.3276732 C31.4070088,10.0838167 29.5592464,8.34070177 28.5725277,9.21140138 C27.5866581,10.0838167 27.8337623,0 27.8337623,0 L3.68292968,1.12032876 L4.91420521,47.0546657 C4.17543989,47.303437 1.71119052,47.9245075 2.08057318,49.7928658 C2.44486091,51.6337736 3.16834143,53.3545848 1.41143862,54.4774871 C1.48786262,54.5812848 1.56088999,54.6936608 1.62712412,54.8189043 C1.56088999,54.6936608 1.48786262,54.5812848 1.41143862,54.4774871 C1.38766226,54.4929281 1.36643337,54.5066534 1.34095871,54.5220943 C-0.507652899,55.6424231 -0.0142935308,56.2652092 1.95744563,55.8911944" id="Fill-512"></path>
                    <path d="M38.8750654,28.1057377 C37.9757896,28.9765454 38.270823,30.2411469 38.270823,32.3585393 C38.270823,34.4750739 37.9757896,36.6834078 38.4905475,37.3182824 C39.788517,38.9200537 38.2327256,39.8406218 39.1320014,40.0576803 C40.8818237,40.4772123 39.6467592,44.2890335 40.9323249,42.5465602 C41.5250496,41.7443876 42.8061854,41.4072177 42.7370785,40.5424156 C42.5997506,38.8128114 43.2828458,38.4764995 43.7683662,38.8788727 C43.8702546,38.9629507 43.966827,39.0247222 44.0580836,39.0650454 C44.1626299,36.8155304 44.3938723,33.1770128 43.7612783,32.4623499 C42.9895845,31.5906843 42.6032946,30.9686788 42.7326485,28.6024842 C42.8363089,26.7004343 41.6216221,27.6836319 39.2064242,25 C39.1683268,25.0797883 39.1426332,25.1604345 39.1320014,25.2419387 C39.0044194,26.3624065 39.7752272,27.2332142 38.8750654,28.1057377" id="Fill-513"></path>
                    <path d="M36.7997877,34.0000494 C37.057707,32.8749199 37.4454753,28.8788593 36.6708281,29.0028216 C35.5751159,29.1792956 32.0238342,36.4982328 32.0238342,38.3723009 C32.0238342,40.2463689 33.3152093,41.3706375 32.0238342,41.8699299 C30.7342378,42.3692223 29.0559837,44.1184672 31.2500763,43.9936441 C33.444169,43.868821 33.1862497,43.9936441 33.7020883,42.4940453 C34.2188162,40.9953074 37.1866667,42.9941985 37.1866667,40.371192 C37.1866667,37.7481854 36.5418685,35.1251789 36.7997877,34.0000494" id="Fill-514"></path>
                    <path d="M31.1891206,30.1433063 C32.691947,30.2768106 30.300286,31.8797238 30.9151587,33.2164896 C31.9643183,35.4955375 31.3697064,32.0399289 32.0083636,32.4146024 C32.6479017,32.7901371 33.2988915,30.0158312 33.1702792,29.1398706 C33.1068539,28.7031823 32.0171726,29.59034 31.7352826,28.8737233 C31.3934909,28.0055145 30.5398925,26.9366187 30.2315753,27.0029402 C28.557853,27.3664164 31.7132599,29.0752717 30.4368265,29.0072276 C27.9095058,28.8737233 29.7646948,30.0166925 31.1891206,30.1433063" id="Fill-515"></path>
                    <path d="M29.5924943,35 C29.0146334,35 28.5819837,35.5859918 27.4272564,36.9959333 C26.2725292,38.4050655 29.7357163,39.2265871 28.1483393,41.5762199 C26.5609623,43.9250433 27.7156896,44.5126538 27.7156896,43.5729626 C27.7156896,42.6332713 29.4482778,41.6935801 30.0251441,40.7546983 C30.6020104,39.815007 29.4482778,39.3447567 29.4482778,37.8182643 C29.4482778,36.2909625 30.9540978,35 29.5924943,35" id="Fill-516"></path>
                    <path d="M28.3274958,32.9268527 C28.5203085,33.1339952 28.8357684,32.8859943 29.0342857,32.3747892 C29.2328029,31.8616838 29.237937,31.2792142 29.0462651,31.0720716 C28.8540229,30.8668295 28.5374221,31.1148304 28.3394753,31.6269856 C28.1403876,32.1372404 28.1352535,32.7197101 28.3274958,32.9268527" id="Fill-517"></path>
                    <path d="M21.538111,58.2432303 C21.538111,57.3179265 19.7799042,56.7792644 20.1320268,57.0868203 C20.4825452,57.3943761 19.920272,58.9365491 20.4825452,60.1676513 C21.0456206,61.4013896 19.9908569,61.0156267 19.4983665,60.3996362 C19.0066782,59.7836458 17.9527167,61.7089455 18.2334523,63.2502397 C18.5141879,64.7897765 19.7799042,63.481346 20.764885,63.481346 C21.7490637,63.481346 22.6113229,62.2801206 21.9600164,61.6324959 C21.1867904,60.8618488 21.538111,59.1667766 21.538111,58.2432303" id="Fill-518"></path>
                </g>
            </g>
        </g>
    </g>
</svg>