<?xml version="1.0" encoding="UTF-8"?>
<svg width="65px" height="51px" viewBox="0 0 65 51" version="1.1" xmlns="http://www.w3.org/2000/svg" xmlns:xlink="http://www.w3.org/1999/xlink">
    <!-- Generator: sketchtool 53.2 (72643) - https://sketchapp.com -->
    <title>4F99B20B-B52B-4162-ACA7-9BFCA575A829</title>
    <desc>Created with sketchtool.</desc>
    <g id="Page-1" stroke="none" stroke-width="1" fill="none" fill-rule="evenodd">
        <g id="Main-State" transform="translate(-805.000000, -2188.000000)" fill="#D9DCE0">
            <g id="Group-18" transform="translate(391.000000, 1559.000000)">
                <path d="M451.439589,676.577858 C452.980154,675.3792 453.914647,674.629543 453.152297,674.29081 C452.046454,673.800558 452.662046,672.450382 453.766302,672.817674 C454.870559,673.186553 457.69149,670.855874 458.67358,670.732121 C459.654877,670.609161 460.635381,669.627864 460.513214,668.77032 C460.390255,667.91119 460.390255,668.891693 461.742017,668.400648 C463.089813,667.91119 464.562155,665.947803 464.562155,665.947803 C464.562155,665.947803 463.819637,663.965377 466.156663,664.720586 C467.984398,665.310792 467.651217,663.03723 469.123559,662.667558 C470.595901,662.300266 469.902568,661.467313 470.263514,659.760158 C470.696649,657.716649 472.228487,653.474146 478.67157,650.85709 L463.458692,635.520458 L448.489352,635.520458 L448.613105,633.557865 L446.527552,630.613181 C446.281632,631.349352 443.827993,632.576568 445.176583,630.122135 C445.176583,630.122135 431.19092,628.527627 428.000317,629.140045 C424.8113,629.75405 425.914763,629.263005 422.724953,630.367261 C419.535143,631.472311 416.836378,632.330648 416.836378,632.944653 C416.836378,633.557865 413.769528,635.765584 414.013861,636.502549 C414.25978,637.23872 416.591253,638.588102 417.203671,639.691565 C417.817675,640.795822 419.044098,639.937485 419.903229,640.674449 C420.762359,641.409827 422.602787,645.949019 423.215998,647.053275 C423.830003,648.157532 427.387105,651.224382 428.000317,651.715427 C428.613528,652.206473 429.811393,654.28092 431.436046,655.518449 C434.012644,657.481043 432.417343,658.954178 433.39864,659.567389 C434.38073,660.181394 435.23986,662.143988 435.607153,662.389907 C435.976031,662.63424 438.306711,663.003118 438.55263,664.352501 C438.797756,665.701883 440.147138,667.542311 440.024972,669.381945 C439.901219,671.223166 441.251395,670.97804 441.987566,671.714211 C442.723737,672.450382 443.827993,675.14994 443.705827,676.131237 C443.582868,677.110947 443.705827,679.443213 445.054416,679.443213 C446.405385,679.443213 445.744577,681.611269 449.990252,677.390978 C450.188574,677.193449 449.670558,676.108232 448.655149,676.455692 C448.513944,676.504876 448.889962,675.809956 448.494905,675.200711 C447.853929,674.212274 447.70717,673.112777 447.799985,673.276988 C448.014173,673.65142 448.588513,674.731084 449.082731,675.440284 C449.838735,676.526294 451.261893,676.714304 451.439589,676.577858" id="Fill-519"></path>
            </g>
        </g>
    </g>
</svg>