<?xml version="1.0" encoding="UTF-8"?>
<svg width="69px" height="43px" viewBox="0 0 69 43" version="1.1" xmlns="http://www.w3.org/2000/svg" xmlns:xlink="http://www.w3.org/1999/xlink">
    <!-- Generator: sketchtool 53.2 (72643) - https://sketchapp.com -->
    <title>7E2AB47D-8B16-4BFD-AFFD-52E261D078C3</title>
    <desc>Created with sketchtool.</desc>
    <g id="Page-1" stroke="none" stroke-width="1" fill="none" fill-rule="evenodd">
        <g id="Main-State" transform="translate(-926.000000, -2202.000000)" fill="#D9DCE0">
            <g id="Group-18" transform="translate(391.000000, 1559.000000)">
                <path d="M601.401531,643 C598.462542,643.134273 544.753343,643.802104 537.004378,643.134273 L535,679.742216 C536.736715,680.008995 583.231391,680.67771 584.968106,679.876489 C585.636821,680.811099 586.572315,680.944489 587.373536,681.345541 C588.175641,681.746594 590.580187,683.349919 591.114629,682.013373 C591.648188,680.67771 594.036834,681.828747 594.703782,681.695358 C595.371613,681.561085 596.93607,681.236886 597.319455,681.888817 C597.803545,682.712122 599.388319,682.541631 599.789371,682.807527 C600.190424,683.076073 602.045511,683.962981 602.337025,684.685582 C602.791963,685.811885 603.139129,685.35253 603.673571,685.754466 C604.208013,686.155518 604.115259,684.167041 603.178881,683.632599 C602.245154,683.098157 601.936856,682.814594 602.604688,681.880867 C603.272519,680.945372 604.609065,677.471059 603.673571,676.936617 C602.738961,676.402175 602.738961,676.001123 603.272519,675.467564 C603.806961,674.932239 601.669193,673.729966 602.738961,673.462303 C603.806961,673.195524 603.673571,671.725588 603.673571,670.790094 C603.673571,669.855483 602.840549,651.328459 602.840549,651.328459 C602.974822,650.526355 601.536687,649.414186 601.001362,649.546692 C600.46692,649.680082 599.688667,647.86828 599.26553,647.543198 C598.579148,647.018473 600.32293,646.388626 601.134752,645.271157 C601.909471,644.207574 601.401531,643 601.401531,643" id="Fill-520"></path>
            </g>
        </g>
    </g>
</svg>