<?xml version="1.0" encoding="UTF-8"?>
<svg width="91px" height="22px" viewBox="0 0 91 22" version="1.1" xmlns="http://www.w3.org/2000/svg" xmlns:xlink="http://www.w3.org/1999/xlink">
    <!-- Generator: sketchtool 53.2 (72643) - https://sketchapp.com -->
    <title>7A2338FE-688C-4BE1-BCBD-0578E0AE1C55</title>
    <desc>Created with sketchtool.</desc>
    <g id="Page-1" stroke="none" stroke-width="1" fill="none" fill-rule="evenodd">
        <g id="Main-State" transform="translate(-1038.000000, -2212.000000)" fill="#D9DCE0">
            <g id="Group-18" transform="translate(391.000000, 1559.000000)">
                <path d="M670.071832,653 C670.071832,653 671.514832,655.441 669.940832,655.441 C669.869832,655.441 669.791832,655.436 669.707832,655.427 C668.714832,655.302 664.946832,655.272 661.501832,655.272 C658.213832,655.272 655.224832,655.301 655.224832,655.301 C654.738832,655.421 654.865832,656.36 655.108832,656.845 C655.351832,657.331 653.561832,657.425 654.798832,658.236 C655.449832,658.663 652.424832,658.543 653.693832,659.067 C655.997832,660.014 653.408832,659.977 653.523832,661.02 C653.564832,661.382 652.787832,662.142 653.717832,662.682 C654.354832,663.054 651.359832,662.721 653.136832,663.648 C654.280832,664.244 650.223832,664.537 650.586832,665.387 C650.782832,665.846 651.770832,666.213 651.088832,666.393 C650.418832,666.567 650.959832,667.423 650.836832,667.423 C650.823832,667.423 650.805832,667.414 650.779832,667.396 C650.579832,667.264 650.206832,667.134 649.965832,667.134 C649.788832,667.134 649.682832,667.205 649.773832,667.396 C649.896832,667.655 650.118832,668.582 649.811832,668.865 C649.711832,668.96 649.625832,668.998 649.553832,668.998 C649.402832,668.998 649.305832,668.834 649.222832,668.671 C649.140832,668.509 649.071832,668.345 648.978832,668.345 C648.938832,668.345 648.896832,668.373 648.846832,668.441 C648.650832,668.707 647.956832,669.561 649.039832,669.716 C649.663832,669.805 648.079832,670.85 648.536832,670.914 C649.333832,671.027 649.717832,672.637 649.163832,672.637 C649.126832,672.637 649.084832,672.63 649.039832,672.615 C648.915832,672.572 648.802832,672.555 648.702832,672.555 C648.214832,672.555 648.012832,673.001 648.111832,673.504 C648.140832,673.642 648.032832,673.659 647.870832,673.659 C647.842832,673.659 647.813832,673.658 647.783832,673.658 C647.752832,673.658 647.721832,673.657 647.689832,673.657 C647.576832,673.657 647.455832,673.663 647.339832,673.696 C646.857832,673.838 647.029832,674.23 647.029832,674.23 L709.643832,674.392 L709.986832,671.561 C710.285832,671.197 710.713832,671.173 711.145832,671.173 C711.178832,671.173 711.210832,671.173 711.242832,671.174 C711.273832,671.174 711.306832,671.174 711.337832,671.174 C712.018832,671.174 712.663832,671.115 712.776832,669.741 C712.936832,667.789 716.422832,667.127 717.877832,667.127 C719.331832,667.127 719.827832,665.922 721.161832,665.193 C722.495832,664.467 723.458832,664.518 724.059832,664.04 C724.900832,663.369 724.375832,662.419 724.586832,662.419 C724.609832,662.419 724.639832,662.429 724.679832,662.45 C724.885832,662.561 725.059832,662.61 725.211832,662.61 C726.001832,662.61 726.213832,661.317 727.346832,661.059 C727.369832,661.053 727.389832,661.051 727.408832,661.051 C727.598832,661.051 727.659832,661.284 727.738832,661.516 C727.819832,661.749 727.915832,661.981 728.175832,661.981 C728.493832,661.981 729.056832,661.636 730.125832,660.521 C730.809832,659.809 731.279832,659.573 731.631832,659.573 C731.972832,659.573 732.200832,659.797 732.395832,660.019 C732.592832,660.242 732.759832,660.465 732.978832,660.465 C733.275832,660.465 733.671832,660.059 734.372832,658.701 C734.879832,657.719 735.486832,657.524 735.981832,657.524 C736.143832,657.524 736.293832,657.544 736.425832,657.564 C736.555832,657.586 736.666832,657.606 736.752832,657.606 C736.871832,657.606 736.939832,657.564 736.932832,657.425 C736.893832,656.614 737.194832,655.98 737.524832,653.849 C735.013832,653.933 722.569832,654.074 714.297832,654.074 C710.579832,654.074 707.704832,654.046 706.952832,653.97 C705.529832,653.828 694.312832,653.77 685.100832,653.77 C678.596832,653.77 673.092832,653.799 672.740832,653.849 L672.740832,653.362 L670.071832,653" id="Fill-521"></path>
            </g>
        </g>
    </g>
</svg>