<?xml version="1.0" encoding="UTF-8"?>
<svg width="65px" height="61px" viewBox="0 0 65 61" version="1.1" xmlns="http://www.w3.org/2000/svg" xmlns:xlink="http://www.w3.org/1999/xlink">
    <!-- Generator: sketchtool 53.2 (72643) - https://sketchapp.com -->
    <title>C6B57164-3BC8-424A-9A73-C60DC4FF6A10</title>
    <desc>Created with sketchtool.</desc>
    <g id="Page-1" stroke="none" stroke-width="1" fill="none" fill-rule="evenodd">
        <g id="Main-State" transform="translate(-1174.000000, -2192.000000)" fill="#D9DCE0">
            <g id="Group-18" transform="translate(391.000000, 1559.000000)">
                <path d="M814.857791,643.990965 L814.857791,633 L800.637615,633 L800.196279,659.200192 L783,658.645025 C783,658.645025 783,660.19899 783.552086,660.310526 C784.102507,660.421224 784.984346,662.419658 785.425682,662.30896 C785.866185,662.198262 786.638107,662.973986 786.969525,663.752226 C787.300111,664.529628 789.503459,665.862196 789.834878,666.083592 C790.165463,666.305827 791.487805,667.52602 791.709306,669.191521 C791.929141,670.857022 792.591145,672.633221 793.69282,673.521321 C794.795327,674.40942 796.33917,675.186822 797.221009,675.852687 C798.102848,676.518552 799.094605,677.628886 800.307029,676.074083 C801.520287,674.520957 801.850872,672.188752 803.393882,672.29945 C804.936893,672.410987 802.401293,671.301491 804.385639,671.85582 C806.369985,672.410987 806.259235,671.85582 807.47166,672.410987 C808.684917,672.966154 810.22876,673.188388 810.780014,674.297884 C811.330434,675.408218 812.102356,675.963385 812.98253,678.294751 C813.866034,680.626116 816.180966,682.956644 816.842137,683.623347 C817.503308,684.290051 817.944644,684.733681 818.274397,686.176948 C818.605815,687.620214 819.92899,690.395211 820.479411,691.061914 C821.030664,691.727779 823.015011,691.727779 823.786099,692.615879 C824.558854,693.504817 826.212614,692.727415 826.98287,693.060348 C827.755624,693.39328 830.069723,694.614312 830.401142,693.613838 C830.730895,692.615879 829.739138,691.949175 829.187884,690.840518 C828.637464,689.730184 828.527546,685.621781 829.739138,683.734045 C830.951563,681.847148 830.730895,679.960252 833.045826,679.62648 C835.360758,679.293548 837.89719,676.518552 838.77903,675.963385 C839.660869,675.408218 841.644382,673.410623 841.093961,673.188388 C840.541875,672.966154 839.660869,671.966518 840.212122,671.85582 C840.762543,671.745122 843.078307,670.745486 842.637804,672.077216 C842.195636,673.410623 844.952736,671.301491 845.833742,671.078418 C846.275078,669.302219 847.046167,667.08239 846.605664,666.860155 C846.163495,666.637921 847.597421,663.862924 847.155252,662.973986 C846.715581,662.086725 845.723825,658.42363 844.179982,658.089858 L843.298975,648.875931 C843.298975,648.875931 840.32204,648.431462 839.440201,647.654899 C838.558362,646.876659 837.015351,646.988196 835.913677,647.431826 C834.810337,647.876295 833.156577,648.875931 832.054902,648.09853 C830.951563,647.321128 829.187884,646.656102 829.077967,647.321128 C828.967216,647.987832 825.881196,647.321128 825.32911,647.765597 C824.778689,648.210066 824.0076,646.100096 822.463757,646.656102 C820.92158,647.209592 821.141415,645.544929 819.92899,645.989398 C818.715733,646.433867 817.944644,644.323897 816.842137,645.211997 C815.73963,646.100096 816.180966,643.990965 814.857791,643.990965" id="Fill-522"></path>
            </g>
        </g>
    </g>
</svg>