<?xml version="1.0" encoding="UTF-8"?>
<svg width="37px" height="61px" viewBox="0 0 37 61" version="1.1" xmlns="http://www.w3.org/2000/svg" xmlns:xlink="http://www.w3.org/1999/xlink">
    <!-- Generator: sketchtool 53.2 (72643) - https://sketchapp.com -->
    <title>8CB46D2F-F572-4A54-9E2D-4EA97485BEE3</title>
    <desc>Created with sketchtool.</desc>
    <g id="Page-1" stroke="none" stroke-width="1" fill="none" fill-rule="evenodd">
        <g id="Main-State" transform="translate(-1434.000000, -2192.000000)" fill="#D9DCE0">
            <g id="Group-18" transform="translate(391.000000, 1559.000000)">
                <g id="Group-30" transform="translate(1043.000000, 633.000000)">
                    <path d="M36.0577857,0 L23.8988893,0.0384481279 C24.1880934,0.3722106 24.3943157,0.804138504 24.2176711,1.06673104 C23.9186078,1.51338376 23.8191939,1.76206952 23.86849,2.35597039 C23.9186078,2.95232539 23.7189584,2.50567267 23.171771,1.46430104 C22.8373788,0.827861817 22.578574,0.396751958 22.4265775,0.0433563995 L7.31401986,0.0932571612 C7.36413762,0.563633194 7.36413762,0.563633194 7.31401986,0.0932571612 L7.25486448,0.0932571612 C7.44218986,0.560361013 5.77926627,1.82914923 6.03478466,1.02746486 C6.43983473,-0.244595537 4.44005408,1.58782588 4.53371677,2.05492973 C4.62737946,2.52285163 6.31823755,1.51665594 5.49417017,4.26856024 C5.01106786,5.88256357 6.70685557,5.47681311 5.17949639,7.21434127 C4.09991062,8.44222723 5.19017722,9.43451615 4.72104216,9.71510568 C4.25190709,9.99487716 4.1582444,10.7417525 4.90836754,11.4894459 C5.65931229,12.2379573 5.12198421,12.5888987 3.97091901,12.4236536 C2.99731997,12.2837678 3.50178395,13.171347 4.0645817,13.731708 C4.62737946,14.2912509 4.81470485,16.1604844 4.34639139,15.9739701 C3.87725632,15.7866377 3.21997426,18.5892608 3.31445856,19.7099828 C3.40729965,20.8315229 2.46985112,20.9247801 1.90705336,22.5126059 C1.343434,24.1012499 0.780636238,25.3152291 1.2497713,27.0895693 C1.71890637,28.8655455 1.43791829,29.2385742 1.62524368,30.0795247 C1.81256906,30.9204753 1.2497713,31.6681687 1.81256906,32.415862 C2.05987144,32.7430801 1.98099759,33.2159103 1.7912074,33.7468217 C1.86515163,34.1926564 1.88158368,34.6589422 1.79038579,35.0385152 C1.88158368,34.6589422 1.86515163,34.1926564 1.7912074,33.7468217 C1.54883464,34.421709 1.12653092,35.1898536 0.968783226,35.8704672 C0.686973545,37.0852645 1.26620336,39.5483988 1.53158099,37.5523683 C1.73040881,36.0594357 3.15342446,37.1736133 3.22079587,37.6464435 C3.31445856,38.2992436 3.87643472,38.6739084 4.0645817,39.8878876 C4.0645817,39.8878876 3.68910933,57.169912 3.50178395,57.730273 C3.31445856,58.2906341 3.12631157,59.5054313 3.68910933,60.3463818 C3.81234972,60.530442 3.88465074,60.6441503 3.93148209,60.7202285 L19.1697449,61 C18.9824195,59.8784599 18.2314748,59.3180989 17.5750143,57.9167874 C16.9177323,56.5162939 18.0318254,56.8590548 18.5132845,54.4605461 C18.7950942,53.0592345 19.1697449,56.3289615 19.7333643,52.0317697 C20.2953404,47.7353959 19.450733,47.6421387 19.827027,46.2408272 C20.2016778,44.8395156 20.7644755,42.6896926 20.6708128,41.4765315 C20.5771501,40.2617343 20.4834874,38.5806512 21.1399479,38.0194722 C21.7964083,37.4591111 21.9845553,34.7505632 22.4536904,34.1902022 C22.9228255,33.6290232 24.492908,33.246996 24.7993657,29.8930104 C24.8930284,28.8655455 26.7597095,29.3710975 25.9520741,27.31944 C25.4040652,25.927945 26.9503213,26.4261345 27.324972,24.7458695 C27.701266,23.0639685 25.8312986,19.80324 27.2378822,18.7765932 C28.6452874,17.7491283 30.8973,18.5892608 32.0228955,16.1604844 C33.1493126,13.731708 33.0556499,17.3752816 34.8385275,14.3861442 C36.6205835,11.3953707 34.3554252,12.6772476 36.0577857,11.7692174 C36.7643639,11.3937346 35.5779698,9.30608304 34.9215094,8.09046776 C34.2642273,6.87730662 34.8385275,6.25886439 35.9633014,4.39044899 C37.0897186,2.52285163 37.2770439,3.82926993 36.0577857,0" id="Fill-525"></path>
                    <path d="M4.82557377,0 L2.89333333,0 C2.89333333,0.0583167039 2.90134791,0.109904557 2.91300546,0.15551121 C3.00189435,0.488963133 3.36910747,0.524850335 3.388051,0.815686205 C3.40918033,1.14689518 3.34506375,2.49266527 3.43103825,2.75808104 C3.51701275,3.0220015 3.49515483,4.54421701 3.75380692,3.794324 C4.01173042,3.044431 3.77493625,2.53677662 4.03285974,2.49266527 C4.29078324,2.44855391 4.22666667,1.87510633 4.29078324,1.4339928 C4.35562842,0.992131617 4.89333333,0.815686205 4.89333333,0 L4.82557377,0" id="Fill-526"></path>
                    <path d="M2.69248335,4.41349906 C2.72248335,3.69498794 3.07548335,3.07468454 2.57448335,3.00165829 C2.18348335,2.94290154 1.74748335,4.4630226 2.04248335,4.78450596 C2.33848335,5.10598933 2.66248335,5.13201017 2.69248335,4.41349906" id="Fill-527"></path>
                    <path d="M3.31509363,10.3255023 C3.38066069,9.96241947 3.03293426,9.37240989 2.81560524,9.55472054 C2.59827622,9.73626195 2.72867363,9.10009777 2.70657237,8.60008965 C2.68520783,8.10162002 3.20679747,7.7385372 3.38066069,7.53545698 C3.5545239,7.33006903 3.29372908,6.71698215 3.16333167,6.39928468 C3.03293426,6.08158721 3.09776461,5.56004028 3.20679747,5.21926551 C3.31509363,4.87849075 3.62009096,4.31001998 3.59798971,4.08386246 C3.57662516,3.8569357 3.96708068,3.31923466 3.88088578,3.0853847 C3.77185292,2.78999529 3.68492131,3.35769682 3.57662516,3.33461952 C3.46759229,3.31154222 3.33719488,3.9477064 3.33719488,4.24232657 C3.33719488,4.53848523 2.92390139,4.85541345 2.68520783,4.94618416 C2.44577755,5.03772411 2.64174202,5.85466045 2.51134461,6.21774327 C2.38021049,6.58082609 2.3809472,6.76313674 2.77213943,6.51236344 C3.16333167,6.26312862 3.35929614,7.33006903 3.01156971,7.10314226 C2.66310657,6.8762155 2.18498273,7.53545698 1.96765371,8.19239072 C1.75032469,8.85086296 2.07668657,10.3493488 2.09805112,10.8255104 C2.12015238,11.3024412 3.25026328,10.6893544 3.31509363,10.3255023" id="Fill-528"></path>
                </g>
            </g>
        </g>
    </g>
</svg>