<?xml version="1.0" encoding="UTF-8"?>
<svg width="80px" height="40px" viewBox="0 0 80 40" version="1.1" xmlns="http://www.w3.org/2000/svg" xmlns:xlink="http://www.w3.org/1999/xlink">
    <!-- Generator: sketchtool 53.2 (72643) - https://sketchapp.com -->
    <title>66D6EE96-BFB3-4178-A7DC-E8A628A0FCE6</title>
    <desc>Created with sketchtool.</desc>
    <g id="Page-1" stroke="none" stroke-width="1" fill="none" fill-rule="evenodd">
        <g id="Main-State" transform="translate(-428.000000, -2334.000000)" fill="#D9DCE0">
            <g id="Group-18" transform="translate(391.000000, 1559.000000)">
                <g id="Group-31" transform="translate(37.000000, 775.000000)">
                    <path d="M75.6258547,32.53898 C75.4183031,31.9104262 75.105662,31.2801093 74.4803799,31.7006144 C73.8550978,32.120238 73.1256021,30.5466496 72.2927684,31.2801093 C71.4599347,32.0144505 73.1256021,32.53898 72.9171747,33.2733212 C72.7104988,34.0067809 71.355721,33.9027566 71.355721,32.7487918 C71.355721,31.5957085 71.5641483,32.2251439 70.3135842,33.1692969 C69.0638957,34.1116868 70.1051568,31.5957085 70.1051568,31.1752034 C70.1051568,30.7564614 69.3765368,30.2328134 68.7512547,29.9172142 C68.1259726,29.6042597 68.0217589,28.7641309 67.5015662,28.6601066 C66.9804978,28.5543192 66.1467884,28.7641309 64.6886726,27.6110477 C63.2305568,26.4562013 65.8341473,27.715072 65.8341473,26.9816123 C65.8341473,26.2472711 66.6687325,26.7718005 66.6687325,27.5052602 C66.6687325,28.240483 68.2301863,28.240483 68.7512547,28.240483 C69.2714473,28.240483 69.8967294,29.8123083 70.8346526,30.5466496 C71.7717,31.2801093 72.2927684,30.6515555 72.1885547,29.8123083 C72.084341,28.9739427 71.6666105,28.9739427 70.9379905,29.1837545 C70.2093705,29.3935663 71.8759136,27.9257654 71.0422042,28.1355771 C70.2093705,28.3453889 67.9175452,25.7236232 67.3964768,25.1990937 C66.8754084,24.6754458 67.1880494,23.521481 67.7099936,24.6754458 C68.2301863,25.8285291 70.0018189,27.29633 70.7304389,27.6110477 C71.4599347,27.9257654 71.7717,26.9816123 71.355721,26.8767064 C70.9379905,26.7718005 70.6253495,25.9334349 71.0422042,25.6187173 C71.4599347,25.3039996 71.355721,26.8767064 72.1885547,26.1423652 C73.0213884,25.4089055 71.6666105,24.6754458 70.4177978,23.940223 C69.1672337,23.2067633 70.4177978,23.940223 71.8759136,23.940223 C73.3340294,23.940223 69.5840884,22.472422 68.959682,22.2626102 C68.3352757,22.05368 65.8341473,19.0122907 65.2088652,17.6485141 C64.5835831,16.285619 66.1467884,17.8592074 66.6687325,18.8024789 C67.1880494,19.7457504 69.4807504,21.2135513 70.5220115,22.05368 C71.5641483,22.8920456 71.8759136,22.3675161 71.7717,21.6340565 C71.6666105,20.8997152 71.8759136,19.8506563 72.6054094,20.0613496 C73.3340294,20.2702798 70.7304389,18.4877612 69.3765368,17.3337964 C68.0217589,16.1807131 66.9804978,15.9709013 66.2510021,16.0758072 C65.5215063,16.1807131 65.3139547,16.1807131 65.3139547,15.6570652 C65.3139547,15.1325358 64.4793695,14.1883827 64.3760315,13.6638533 C64.2718178,13.1402053 62.3968473,14.0834768 61.5640136,14.0834768 C60.7303042,14.0834768 61.5640136,12.4058641 61.5640136,11.6724044 C61.5640136,10.9389447 62.7094884,9.99479167 63.5414463,9.5751681 C64.3760315,9.15554453 64.4793695,8.00246126 64.1676042,7.26812001 C64.0152245,6.91196891 63.5966183,6.48441128 63.1578699,6.11239206 C62.6875947,5.71657067 62.1954259,5.38334018 61.9799926,5.27490804 C61.5640136,5.06597782 61.2513726,4.64547268 60.6252147,4.75037857 C60.0008084,4.85616603 60.7303042,3.8071071 59.6881673,2.65402383 C58.6469063,1.50005901 57.5014315,2.44421205 57.0845768,2.44421205 C56.6668463,2.44421205 57.0845768,3.91201299 56.4584189,3.49238942 L51.6672168,0.0322580645 C51.6672168,0.0322580645 51.6672168,0.0322580645 51.3545758,0.556787531 C51.0419347,1.08043543 51.5630031,2.65402383 51.0419347,2.96874151 C50.5208663,3.28345919 50.312439,4.22761223 49.6880326,4.75037857 C49.0636263,5.27490804 47.3962073,5.48471983 47.3962073,6.53377876 C47.3962073,7.58195613 47.18778,8.31717894 45.9372158,7.79264948 C44.6884031,7.26812001 45.0010442,9.47026221 44.6884031,9.36535631 C44.3757621,9.26045042 44.063121,10.9389447 42.8134326,12.4058641 C41.5628684,13.873665 40.9384621,11.2518993 39.6887736,11.0420875 C38.4382094,10.8340388 38.5424231,11.6724044 38.5424231,12.9303936 C38.5424231,14.1883827 36.4590252,14.7120306 36.1455084,16.285619 C35.8337431,17.8592074 34.6873926,19.3270084 33.7494695,19.5368201 C32.8132979,19.7457504 32.1880158,22.05368 32.2913537,23.2067633 C32.3964431,24.3607281 31.3543063,24.9884003 30.2088316,24.9884003 C29.0624811,24.9884003 29.0624811,24.7785886 28.9582674,25.7236232 C28.8540537,26.6677762 26.2504631,26.5619887 24.7914716,26.5619887 C23.3333558,26.5619887 22.7080737,27.8199779 22.187881,27.0865182 C21.6668126,26.352177 19.0623463,27.5052602 18.4370642,27.5052602 C17.8117821,27.5052602 16.145239,26.7718005 15.6250463,24.6754458 C15.1031022,22.5764464 13.5416484,26.5619887 11.9793189,26.5619887 C10.4161137,26.5619887 8.02007478,29.0788486 7.08302738,29.8123083 C6.14510425,30.5466496 6.77038634,31.4908026 5.72912527,31.5957085 C4.6861127,31.7006144 3.54151369,32.7487918 3.22887265,33.1692969 C2.9162316,33.5871573 1.14547475,34.0067809 0.415978982,34.7420037 C0.415978982,34.7420037 0.156758395,34.8063578 0,34.8460281 C0.415978982,34.7420037 18.2286369,35.6843936 18.2286369,35.6843936 L18.3328506,36.313829 C19.2707737,36.4187349 41.0418,37.0481703 46.45916,37.0481703 C51.7714305,37.0481703 72.6062852,36.5439167 74.9830577,36.5245224 C75.0303479,36.5245224 75.0732595,36.5245224 75.105662,36.5245224 C75.7300684,36.9432644 75.8351578,34.4272861 76.2511368,35.1607457 C76.5480144,35.6843936 77.3212975,38.2321082 77.8546263,40.0322581 C77.9027923,39.9282337 77.951834,39.8242094 78,39.7184219 C77.4990737,38.5494706 77.3939843,36.3067765 77.1890599,35.7901811 C76.9797568,35.2656516 75.8351578,33.1692969 75.6258547,32.53898" id="Fill-529"></path>
                    <path d="M79.9927373,18.0322581 L79.9634604,18.0383742 L77.0526325,18.6316418 L76.9319764,18.6561065 C78.1970909,19.3839296 77.5645337,20.6307527 77.0375505,20.6307527 C76.1858605,20.6307527 75.8762357,21.6705001 75.6650876,22.1903737 C75.4539395,22.7093737 75.4539395,24.8910956 74.714921,25.9317167 C73.9759025,26.9705903 73.7656415,24.6848936 74.2935119,27.4895903 C74.8204951,30.2969081 75.0316432,28.6341861 74.9269563,27.4895903 C74.8586437,26.7582722 75.4539395,26.5546914 75.9818098,26.3467419 C76.508793,26.1387925 76.6143671,24.7871209 76.6143671,24.268121 C76.6143671,23.749121 77.4589596,24.5809189 77.8803687,24.3729694 C78.302665,24.1641462 77.8803687,23.5411716 77.5645337,23.3332221 C77.2478115,23.1261464 78.1970909,22.1903737 78.6202744,21.6705001 C79.0425707,21.1506264 80.0974242,18.7600812 79.9927373,18.0322581" id="Fill-530"></path>
                </g>
            </g>
        </g>
    </g>
</svg>