<?xml version="1.0" encoding="UTF-8"?>
<svg width="70px" height="45px" viewBox="0 0 70 45" version="1.1" xmlns="http://www.w3.org/2000/svg" xmlns:xlink="http://www.w3.org/1999/xlink">
    <!-- Generator: sketchtool 53.2 (72643) - https://sketchapp.com -->
    <title>3052F7ED-6AA7-4C75-9AC9-788A2BEEF9C3</title>
    <desc>Created with sketchtool.</desc>
    <g id="Page-1" stroke="none" stroke-width="1" fill="none" fill-rule="evenodd">
        <g id="Main-State" transform="translate(-556.000000, -2332.000000)" fill="#D9DCE0">
            <g id="Group-18" transform="translate(391.000000, 1559.000000)">
                <g id="Group-32" transform="translate(165.000000, 773.000000)">
                    <path d="M18.7816021,7.23295978 C18.7764605,7.23036864 18.7727879,7.22432266 18.7661773,7.22432266 C18.7610357,7.22259523 18.7551595,7.22432266 18.7507524,7.22259523 C18.6956637,6.9660727 18.337954,6.89438459 18.2777237,7.2061847 C18.2358562,7.42297647 18.2769891,7.66654332 18.4158128,7.82287523 C18.3232637,7.85396887 18.2439359,7.94034009 18.2373252,8.08544374 C18.2241039,8.3860156 18.1624045,8.6762229 18.2490775,8.96815763 C18.2571572,8.99579643 18.271113,9.01825294 18.2821308,9.04243689 C18.202803,9.03984575 18.1249442,9.04761916 18.0463509,9.08303136 C17.8083675,9.18926796 17.7738452,9.46997444 17.6827651,9.71095015 C17.4220117,10.0011575 17.25748,10.3095027 17.458003,10.7638153 C17.5336582,10.9382852 17.7202255,11.0151556 17.8619872,11.0825252 C18.3533789,11.3105452 18.3893702,11.4789691 18.4253615,12.0386546 C18.4620874,12.6277063 18.4268305,13.7669427 19.0665946,13.7868081 C19.1180108,13.8766342 19.2090908,13.9353666 19.32441,13.9060004 C19.6990135,13.8066735 19.8393062,14.384497 19.8503239,14.720481 C19.8606072,15.092741 20.3329014,15.0936047 20.3424501,14.720481 C20.3505298,14.3879518 20.4533621,13.6831627 20.1882016,13.4318224 C20.0985906,13.3454512 19.9847405,13.291901 19.8767665,13.2461243 C19.8290229,13.2253952 19.7834829,13.2418057 19.7430845,13.2038024 C19.634376,13.1010206 19.6138095,12.8609086 19.588836,12.7114864 C19.5293401,12.3452724 19.0555769,12.5007406 19.1143382,12.8652272 C19.1429843,13.0336511 19.1811792,13.1951653 19.2428786,13.3385415 C19.2259847,13.3419963 19.2105599,13.3437238 19.1929315,13.3480423 C19.1143382,13.3687714 19.0643911,13.4205941 19.0379485,13.4862363 C18.5876897,13.3627254 18.6941946,12.0300175 18.6354333,11.623209 C18.5979729,11.3554582 18.5487603,11.1835795 18.3651311,11.0151556 C18.2777237,10.9356941 18.1609355,10.8950996 18.0573686,10.8527777 C17.8208543,10.7543145 17.7356503,10.5763898 17.7385884,10.3820545 C17.8083675,10.4027836 17.8825537,10.3855094 17.9449876,10.2956833 C18.0852803,10.0883924 18.1359619,9.85519009 18.2358562,9.62198779 C18.2564227,9.57621104 18.7434073,9.6936759 18.8242041,9.6867662 C18.9982845,9.67553795 19.1473914,9.44579049 19.0372139,9.25145524 C18.9556826,9.1072153 18.8616644,8.98629559 18.7595666,8.85932989 C18.6163359,8.67881404 18.7199027,8.30050809 18.7294514,8.08544374 C18.733124,8.01980161 18.7169646,7.97057002 18.6934601,7.92824812 C18.7573631,7.90751903 18.8139209,7.85742372 18.8579919,7.79178159 C18.7221063,7.60781088 18.7140266,7.41606677 18.7816021,7.23295978" id="Fill-531"></path>
                    <path d="M69.2772083,36.7102079 C69.4602978,36.0700649 68.6323081,34.6051379 68.1721322,34.1471958 C67.7127736,33.6884402 68.2644943,32.4073408 68.2644943,32.4073408 L66.6085149,0 C65.3195319,0 21.5308908,1.00698479 17.5756665,0.366028396 C17.5658581,0.373348964 16.6765661,0.99722403 17.4833044,1.55602738 C17.9680012,1.89033332 18.4044736,4.02712575 18.8638321,3.66191075 C19.3240081,3.29588236 19.9680909,3.66191075 19.6918219,4.39478094 C19.4155528,5.12602434 21.0715323,6.31683672 20.4282668,6.31683672 C19.9909771,6.31683672 19.2193855,6.69587946 19.0224007,7.13836712 C18.9472033,7.31080716 18.9561943,7.49138117 19.1074066,7.66463461 C19.1417359,7.70449104 19.1826041,7.74353407 19.2316459,7.7817637 C20.0596356,8.42190669 20.9799875,9.33779108 20.4282668,9.70381947 C20.3596082,9.74774288 20.3105664,9.81769498 20.2770545,9.903915 C20.2043091,9.79654667 20.0710787,9.73879552 19.9329442,9.8347763 C19.6215286,10.0503264 19.4866635,10.3903261 19.4269959,10.7522875 C19.3567026,11.1907082 19.4531516,11.4737701 19.739229,11.8080761 C19.9697256,12.0756835 20.354704,11.68688 20.1266595,11.4217127 C19.9778992,11.2484593 19.919049,11.1280766 19.9550131,10.8978854 C19.9868903,10.6986033 20.0310279,10.4285557 20.2092133,10.3049194 C20.2141174,10.3016659 20.2182043,10.2975989 20.2231084,10.2935319 C20.2370036,11.0142011 20.7200658,12.1187935 21.2554392,12.4506592 C21.9918841,12.907788 22.5436048,13.7317586 21.6698427,14.0286483 C20.7282394,14.3507533 20.0138633,16.9812774 20.3816771,17.8971618 C20.5729402,18.3754389 20.9333978,18.4470178 20.2901323,18.8594098 C20.0089591,19.0375436 20.5614971,19.9151983 20.565584,20.2771597 C20.5680361,20.5634753 21.1295651,20.4715615 21.0715323,20.7806521 C20.9333978,21.5135223 20.7952632,21.9486894 20.1519978,22.2463925 C19.8503905,22.3854833 20.0596356,22.9556742 19.117215,22.8401719 C18.8850836,22.8125164 18.8008951,23.4485924 18.657039,23.6185923 C17.6680286,24.7866296 17.4833044,23.6869176 17.181697,24.2213191 C17.2233826,24.3758644 17.278146,24.5263427 17.3173795,24.680888 C17.350074,24.8077779 17.181697,24.9216534 17.0877002,24.8142851 C16.9904339,24.7069167 16.9266795,24.5767733 16.8645598,24.4474433 C16.8294132,24.3758644 16.7950839,24.2855774 16.7525809,24.2009841 C16.6512278,24.1887832 16.5564136,24.1684483 16.4730425,24.1456732 C16.4468868,24.272563 16.4468868,24.4482567 16.4477042,24.5263427 C16.4477042,24.5352901 16.4485215,24.547491 16.4485215,24.5572518 C16.4485215,24.7337588 16.1730699,24.7337588 16.1722525,24.5572518 C16.1722525,24.5247159 16.1714351,24.4872997 16.1714351,24.4474433 C16.1714351,24.3050989 16.166531,24.1627545 16.1583573,24.0212235 C16.133019,24.0106494 16.1076808,23.997635 16.0839772,23.9886877 C16.0815251,24.0000752 16.0807077,24.009836 16.0758036,24.0212235 C16.0095971,24.1790224 15.8886272,24.2977783 15.8191513,24.4515102 C15.7586663,24.5824671 15.7603011,24.7191177 15.7684747,24.8565817 C15.7782831,24.9232802 15.7840046,24.9907921 15.7815525,25.0607442 C15.775831,25.2380646 15.5126398,25.2380646 15.5061009,25.0607442 C15.5036488,25.0095002 15.5011967,24.9606964 15.4987446,24.9118926 C15.4938404,24.8720362 15.4881189,24.8338066 15.4807626,24.7955769 C15.4080172,24.8793568 15.3352718,24.96395 15.2584396,25.0428495 C15.1513649,25.1550982 14.9527454,25.00706 15.0418381,24.8769166 C15.2519007,24.5702661 15.5469691,24.241654 15.5943762,23.8626112 C15.3728705,23.9496446 15.2126672,24.1684483 15.0491944,24.3303142 C14.877548,24.5027542 14.70018,24.6483522 14.462327,24.7117971 C14.2882285,24.7606009 14.2212047,24.5051944 14.3879469,24.4482567 C14.4901174,24.4116538 14.5841143,24.3490223 14.6552249,24.2668693 C14.6445992,24.2701228 14.6339735,24.2758166 14.6233478,24.2782568 C14.4492492,24.3140462 14.3781386,24.0635201 14.5489676,24.0130896 C14.9274072,23.9341901 15.1979546,23.6047646 15.5453343,23.4689274 C15.4962925,23.3949083 15.4668674,23.3078749 15.4505201,23.2110807 C15.3973915,23.0427076 15.3843136,22.8605068 15.3908525,22.6815596 C15.3949394,22.5318947 15.6368791,22.4855311 15.6614,22.6441434 C15.6630347,22.6563443 15.6646695,22.6685453 15.6654868,22.6815596 L15.6663042,22.6815596 C15.6663042,22.6848132 15.6663042,22.690507 15.6663042,22.6945739 C15.6777473,22.8173968 15.6720258,22.9646216 15.6916425,23.0963918 C15.7120766,23.1915592 15.7455885,23.2802194 15.8036214,23.3379705 C15.8044387,23.3395973 15.8068908,23.3404107 15.8077082,23.3420375 C15.8273249,23.361559 15.8502111,23.3753868 15.8763667,23.3875877 C15.8886272,23.3940949 15.9499295,23.7967261 15.9662768,23.8024199 C15.9842588,23.8081137 16.1101329,23.7284008 16.1272975,23.7332812 C16.2400937,24.3042855 16.133019,23.3151954 16.2425458,23.2525639 C16.2425458,23.2525639 16.2425458,23.2525639 16.2425458,23.2517505 C16.2433632,23.2436165 16.2458153,23.2354826 16.2458153,23.2265352 C16.1943213,23.0923248 16.166531,22.9451 16.1559052,22.8092628 C16.1493663,22.725483 16.1477316,22.6417032 16.1542705,22.5619903 C16.1436448,22.4440478 16.1534531,22.3350527 16.1967734,22.2081629 C16.2311027,22.1113687 16.2997613,22.0162013 16.3602462,21.916967 C16.3929408,21.7453403 16.3929408,21.5712735 16.4035665,21.3760583 C16.4092881,21.2434747 16.5899255,21.18247 16.6594015,21.3069196 C16.7599372,21.4834267 16.7942665,21.6200773 16.7313295,21.8152924 C16.7108954,21.8787373 16.6765661,21.9373019 16.6373326,21.995053 C16.6177159,22.0991678 16.5850213,22.2032825 16.5278058,22.3057704 C16.4828508,22.3879235 16.4526084,22.4928516 16.4370784,22.6059137 C16.4705904,22.7588323 16.5245364,22.9353393 16.5400663,23.1045257 C17.0239458,24.1456732 17.2307389,23.7332812 17.1302031,22.8800283 C17.1416462,22.6107941 17.1408288,22.3155312 17.2920412,22.0991678 C17.4579661,21.8584024 17.7105315,21.7111777 17.8928037,21.4850534 C18.0031479,21.3467761 18.1968631,21.5419912 18.086519,21.6786418 C17.8936211,21.9210339 17.7080795,22.2236174 17.9017947,22.5196937 C17.927133,22.5587367 17.9295851,22.5945262 17.9189594,22.6262486 C18.4044736,23.4811283 18.513183,22.4367273 18.789452,22.3317991 C18.8720058,21.8974454 19.1139455,21.4671587 19.0526432,21.0238577 C19.0281223,20.8497908 19.2937656,20.7749584 19.3182865,20.9498386 C19.3812235,21.4004602 19.1883256,21.7876369 19.090242,22.2081629 C19.1850562,22.7490715 19.3877624,22.0698855 19.5152712,21.9926128 C19.5553221,21.5932352 19.7850013,21.2849579 19.9264053,20.9051018 C19.9574651,20.8237621 20.0375668,20.8001736 20.1037733,20.817255 C20.0759829,20.5008438 19.9893423,20.1941933 19.8749114,19.898117 C19.8193306,19.9233323 19.7523068,19.9143849 19.7106212,19.8436194 C19.5896514,19.6378301 19.303574,19.588213 19.2038556,19.3620887 C19.1139455,19.1562995 19.1817867,18.9374958 19.1629874,18.720319 C19.1580832,18.665008 19.4032924,18.6723286 19.438439,18.6528071 C19.3795888,18.5503191 19.4245438,17.9939559 19.3697804,17.8971618 C18.9096045,17.0731912 19.0469217,16.5696988 19.5070976,16.6616126 C19.9680909,16.7535264 19.4155528,13.547931 19.0469217,14.097787 C18.6791079,14.647643 17.9442976,16.0214696 18.035025,16.2947708 C18.1085878,16.5135744 16.674114,17.4253918 15.8510285,18.1118984 C15.8493937,18.1314199 15.8444896,18.1517549 15.8322291,18.1729032 C15.5951935,18.5763478 15.2012241,18.8520892 14.9576496,19.2482132 C14.7116231,19.6492177 14.459875,20.0388346 14.1541808,20.396729 C14.0389325,20.5325662 13.8452172,20.3373511 13.9596482,20.2039541 C14.2816896,19.8249113 14.5146383,19.4011318 14.799081,18.9976871 C15.0426555,18.6536205 15.3777747,18.4014676 15.5935588,18.0346258 C15.6205318,17.9882622 15.6605827,17.9711808 15.7014509,17.9703674 C15.7823699,17.7906068 15.8698278,17.5864443 15.9662768,17.3481192 C16.7019044,15.5171638 16.72806,14.5199398 16.7019044,15.562714 C16.656132,17.3481192 18.5875631,15.197499 18.035025,13.7317586 C17.4833044,12.2668316 17.3917596,10.8019047 16.379863,11.9008032 C15.7455885,12.5889366 14.4476145,11.8088894 14.1713455,11.4436745 C13.8958938,11.0760193 13.52808,11.717789 11.7805558,11.6258753 C10.0313969,11.5355882 8.78982096,10.7108043 6.39821392,10.7108043 C5.24491334,10.7108043 5.84567587,9.52080528 1.93704127,8.05669169 C1.35916493,7.83951484 0.55651349,6.86669271 0.648875621,8.05669169 C0.740420388,9.24506389 0.464968723,9.88683367 0.372606592,10.9857323 C0.281061826,12.0846308 1.84386177,14.73793 2.58030673,15.9287424 C3.31593432,17.1187414 3.04048265,20.2316095 3.40829645,21.1466805 C3.77692761,22.0625649 4.5125552,24.1684483 4.42101043,25.0827059 C4.3286483,25.9985903 4.60409997,25.9074899 4.78882423,25.6333753 C4.97191376,25.3584473 5.80072085,25.0827059 5.80072085,25.8155761 C5.80072085,26.5484463 7.64060719,25.9074899 6.90416223,26.5484463 C6.16771728,27.1885893 5.43208969,27.555431 4.97191376,27.0983022 C4.5125552,26.6403601 4.78882423,27.1885893 4.78882423,28.1963874 C4.78882423,29.2017454 4.60409997,29.3863864 5.43208969,29.3863864 C6.26007941,29.3863864 7.08806913,29.570214 6.72025534,29.935429 C6.35244154,30.3022708 6.16771728,30.760213 6.26007941,31.4011694 C6.35244154,32.0413124 6.5371658,33.505426 5.98462775,33.2313114 C5.43208969,32.9571968 5.43208969,31.4914564 5.52445182,30.9424138 C5.61681395,30.3925578 5.06427589,29.5694006 5.06427589,31.2173418 C5.06427589,32.865283 4.60409997,34.7881521 5.24900016,34.9711663 C5.89226561,35.1533671 6.62871057,36.1603519 6.90416223,35.7943235 C7.18043126,35.4291085 8.56014168,34.6962384 8.65250381,35.1533671 C8.73097075,35.5478644 9.25490107,35.3111661 9.73796319,35.4372425 C9.83277741,35.4331755 9.93004372,35.4291085 10.0313969,35.4291085 C10.7678418,35.4291085 10.400028,36.6191075 11.0441108,36.8940355 C11.689011,37.1673367 12.8839972,36.6191075 13.3433557,36.7102079 C13.804349,36.8013083 15.0916973,36.8940355 15.0916973,37.9002069 C15.0916973,38.9071917 15.8281423,40.6462333 15.919687,41.3791035 C16.0120492,42.1119737 15.5526906,43.4849868 16.8400389,44.0340294 C18.1282045,44.5838854 20.0596356,45.407856 21.8987046,44.7660862 C23.7394083,44.1251298 25.1191187,43.2100588 26.4072844,43.118145 C27.6946327,43.0270446 29.3506121,42.9351308 29.7192433,43.4849868 C30.0870571,44.0340294 31.0065916,44.858 31.6506744,44.4911582 C32.2955746,44.1251298 35.054178,42.6602028 35.9737125,42.8440304 C36.8948817,43.0270446 38.3661369,43.668001 39.2864888,43.118145 C40.2060233,42.5691024 44.0697028,41.2880031 44.5298788,40.9219747 C44.9892373,40.5551329 46.0019513,40.4632191 46.7383963,40.4632191 C47.4732065,40.4632191 50.2334447,40.2810183 50.6936206,39.2732201 L69.3687531,38.5411633 C69.2772083,37.9913073 69.092484,37.3503509 69.2772083,36.7102079" id="Fill-532"></path>
                    <path d="M15.8872824,7.07079646 C15.8572483,7.03253293 15.9458104,6.81508409 15.9589022,6.77308754 C16.0074189,6.61630039 16.0397633,6.46884581 16.0490046,6.29992633 C16.0728779,5.8986259 15.556907,5.90142567 15.5338038,6.29992633 C15.513011,6.63683204 15.2889102,6.92240863 15.3990353,7.27237994 C15.498379,7.59155377 15.7594448,7.66808083 15.9342588,7.90046177 C16.1583596,8.20003721 16.5226196,7.75580697 16.2985188,7.4590313 C16.1799226,7.30037764 16.0120395,7.22105081 15.8872824,7.07079646" id="Fill-533"></path>
                    <path d="M14.5256757,6.15023375 C14.5819775,6.24733763 14.6444664,6.29163063 14.732322,6.31718428 C14.8665802,6.35721833 14.9346374,6.54631536 14.9426805,6.72433914 C14.9587668,7.09060816 15.3739155,7.09316353 15.3572106,6.72433914 C15.3522609,6.6025334 15.3306064,6.48669017 15.3009087,6.37510589 C15.3689659,6.29759314 15.3986636,6.17152846 15.3287503,6.04120483 C15.1357154,5.68004654 14.9649538,5.28140956 14.6797324,5.04035344 C14.5213448,4.90747445 14.3307847,5.12553228 14.3753312,5.36318125 C14.4266835,5.63234639 14.3895614,5.91769551 14.5256757,6.15023375" id="Fill-534"></path>
                    <path d="M16.1624449,5.99979199 C16.5106599,5.9892661 16.5114678,5.28403119 16.1624449,5.29560968 C16.0792288,5.29666227 16.0250979,5.22087583 15.9701591,5.14719457 C15.8998698,5.0545667 15.8812876,5.01351571 15.939458,4.97351732 C16.0048998,4.92615079 16.0590307,4.8756265 16.109122,4.82089185 C16.308679,5.01877866 16.4654162,5.34402879 16.6528544,5.54086301 C16.7667716,5.66296338 16.9243166,5.68822553 17.0358101,5.54086301 C17.1384163,5.40613157 17.2305196,5.26718976 17.3169674,5.11351171 C17.5246037,4.74826318 17.0543923,4.39669832 16.8491798,4.75773649 C16.8419085,4.77036756 16.8338292,4.77984086 16.82575,4.79036676 C16.6035711,4.49879949 16.4064378,4.18197008 16.0970031,4.01881872 C15.961272,3.94619005 15.7988794,4.09565775 15.7649466,4.26407205 C15.7471723,4.35459474 15.5451914,4.45985368 15.4854051,4.53879789 C15.3537136,4.71142255 15.3561374,4.95983365 15.3844147,5.18087743 C15.4393535,5.61980722 15.8328122,6.01031789 16.1624449,5.99979199" id="Fill-535"></path>
                </g>
            </g>
        </g>
    </g>
</svg>