<?xml version="1.0" encoding="UTF-8"?>
<svg width="74px" height="63px" viewBox="0 0 74 63" version="1.1" xmlns="http://www.w3.org/2000/svg" xmlns:xlink="http://www.w3.org/1999/xlink">
    <!-- Generator: sketchtool 53.2 (72643) - https://sketchapp.com -->
    <title>98CEC740-2D79-4160-87F8-04E005C319B8</title>
    <desc>Created with sketchtool.</desc>
    <g id="Page-1" stroke="none" stroke-width="1" fill="none" fill-rule="evenodd">
        <g id="Main-State" transform="translate(-677.000000, -2323.000000)" fill="#D9DCE0">
            <g id="Group-18" transform="translate(391.000000, 1559.000000)">
                <path d="M333.761858,789.805758 L333.761858,780.668327 L317.80606,780.668327 L317.80606,764.030107 C317.80606,764.030107 315.760466,763.758309 316.169418,764.84801 C316.577533,765.94022 317.396272,768.258448 316.714686,769.621619 C316.033101,770.985627 313.987507,775.62292 313.987507,776.85061 C313.987507,778.077465 312.350028,779.987578 312.896133,780.53201 C313.441402,781.078115 312.759816,782.168652 311.941077,782.441286 C311.123174,782.714757 306.622199,787.214896 305.395344,787.077742 C304.167654,786.941425 304.167654,785.304783 302.667329,786.805944 C301.16784,788.305433 302.734233,789.237073 300.349101,788.44175 C299.530361,788.169116 298.848776,791.4424 298.848776,791.987669 C298.848776,792.533774 298.985929,793.896945 299.394044,794.579368 C299.803832,795.260953 298.985093,794.034099 298.439824,794.851166 C297.893719,795.670741 296.939499,796.352327 296.939499,794.851166 C296.939499,793.351677 295.575491,791.852188 294.757588,793.21536 C293.938849,794.579368 293.666215,795.807058 293.394417,796.215173 C293.120946,796.624125 292.166726,797.4437 292.438524,798.397921 C292.711995,799.352977 293.257263,801.261417 292.303043,800.853302 C291.347987,800.442678 290.666401,801.1251 290.801882,802.21731 C290.939035,803.307847 289.166076,804.808172 287.529434,804.535538 C285.892792,804.262067 286.710694,805.488922 286.710694,806.443978 C286.710694,807.399035 286.710694,808.626725 286.165426,808.763042 C285.620157,808.898523 286.574377,809.718099 286.847848,810.12705 C287.120482,810.535165 288.211856,811.08127 288.211856,811.899173 C288.211856,812.717913 287.665751,813.263181 288.620807,813.944767 C289.575027,814.627189 290.530084,815.308775 290.666401,816.126678 C290.801882,816.945417 291.894092,818.445742 292.848312,818.85553 C293.802532,819.264481 295.16654,820.218701 296.394231,820.218701 C297.621085,820.218701 295.302857,821.172922 295.711808,821.581873 C296.121596,821.990825 298.985929,827.037068 302.394694,826.083684 C305.804296,825.128628 304.713759,823.353996 305.804296,824.446206 C306.895669,825.536743 307.440938,825.946531 310.714223,824.71884 C313.987507,823.49115 313.03245,823.900937 313.03245,822.673247 C313.03245,821.446392 313.577719,823.353996 314.669093,823.082198 C315.760466,822.8104 317.669743,820.900287 317.942377,821.581873 C318.215011,822.264295 318.623963,822.946717 320.124288,821.990825 C321.623777,821.037441 322.442516,819.946067 321.488296,819.946067 C320.533239,819.946067 324.760744,818.853857 321.488296,817.627839 C322.442516,816.400148 322.442516,815.581409 323.806524,814.081084 C325.170532,812.580759 326.53454,810.944117 326.67002,809.171158 C326.807174,807.399035 328.989085,807.399035 329.261719,806.443978 C329.533517,805.488922 331.034678,800.442678 331.579947,800.853302 C332.125216,801.261417 332.943955,801.534888 333.081108,802.080156 C333.216589,802.625425 335.126702,803.580481 336.217239,803.989433 C337.307777,804.398384 338.262833,800.853302 339.080736,799.897409 C339.898639,798.943189 340.308427,797.033913 340.989176,796.761278 C341.671598,796.488644 343.03477,797.988969 343.03477,797.988969 C343.853509,796.624125 345.353834,794.44305 345.353834,795.124636 C345.353834,795.807058 347.399428,793.624311 348.218167,792.806408 C349.03607,791.987669 350.262924,789.942912 350.126607,788.851538 C349.991126,787.761001 351.627768,787.760164 351.081664,785.441936 L358.993077,790.760815 C360.56616,789.124172 360.083614,784.077929 358.993077,784.077929 C357.900867,784.077929 359.640374,781.952886 357.763713,782.304133 C355.582639,782.714757 353.674198,780.123058 353.537045,780.804644 C353.400728,781.487066 352.445671,782.988228 351.353462,782.304133 C350.262924,781.623383 349.03607,781.759701 349.718492,782.988228 C350.400078,784.214246 346.581525,784.487716 346.03542,783.805294 C345.490987,783.123708 344.808565,780.668327 343.717192,782.577604 C342.625818,784.487716 341.808752,785.714571 341.263483,785.169302 C340.717378,784.623197 340.717378,784.077929 338.671784,785.851724 C336.626191,787.623847 333.761858,789.805758 333.761858,789.805758" id="Fill-536"></path>
            </g>
        </g>
    </g>
</svg>