<?xml version="1.0" encoding="UTF-8"?>
<svg width="52px" height="55px" viewBox="0 0 52 55" version="1.1" xmlns="http://www.w3.org/2000/svg" xmlns:xlink="http://www.w3.org/1999/xlink">
    <!-- Generator: sketchtool 53.2 (72643) - https://sketchapp.com -->
    <title>F9D65E31-32BA-4E36-9B65-63BCF716657E</title>
    <desc>Created with sketchtool.</desc>
    <g id="Page-1" stroke="none" stroke-width="1" fill="none" fill-rule="evenodd">
        <g id="Main-State" transform="translate(-812.000000, -2327.000000)" fill="#D9DCE0">
            <g id="Group-18" transform="translate(391.000000, 1559.000000)">
                <path d="M464.936777,823 L439.804854,823 C439.537536,822.064387 438.601923,821.127163 436.998015,820.726186 C435.393301,820.325209 435.259642,818.588447 435.259642,817.116587 C435.259642,815.647143 437.398187,813.37494 436.195255,812.973963 C434.992324,812.571375 434.858665,810.567295 434.858665,808.828922 C434.858665,807.091355 434.725811,805.753959 432.987439,804.685492 C431.249066,803.615415 429.912476,802.679802 429.511499,801.744189 C429.110522,800.809381 428.709545,799.47118 427.773931,799.47118 C426.838318,799.47118 426.303682,797.868077 425.501728,797.868077 C424.699774,797.868077 422.159447,796.665146 421.75847,795.595068 C421.357493,794.525796 422.159447,792.119933 421.892129,791.585297 C421.624811,791.049856 422.293106,789.980584 422.42757,788.377481 C422.559619,786.771962 423.897014,788.108552 423.229524,786.639108 C422.559619,785.168054 420.555539,785.70269 421.08937,784.23244 C421.624811,782.762191 422.961401,780.89016 423.764161,780.7565 C424.56531,780.623647 426.170023,779.955351 426.303682,779.018933 C426.437341,778.082515 426.570195,772.067858 426.570195,772.067858 C427.640272,771.934199 428.308568,771.132245 428.308568,771.132245 C428.308568,771.132245 428.843204,771.934199 429.511499,771.934199 C430.180599,771.934199 435.927937,770.330291 437.264528,769.528337 C438.601923,768.726383 441.542422,768.3246 442.077863,768.057282 C442.612499,767.789964 441.808935,768.45826 440.072172,770.062168 C438.334605,771.666881 438.200141,770.865732 438.334605,771.666881 C438.468264,772.468836 437.665505,773.404449 438.601923,773.137131 C439.537536,772.869813 440.338685,772.468836 441.274298,773.27079 C442.212327,774.072744 444.350872,774.072744 444.483725,774.473721 C444.617384,774.875503 445.152021,776.344947 445.95317,776.612265 C446.755929,776.880389 454.91074,779.152592 455.445376,779.821692 C455.980012,780.489988 457.851239,780.356329 458.652388,780.356329 C459.455952,780.356329 462.396451,781.425601 462.130743,782.227555 C461.861815,783.029509 462.396451,783.564145 463.332064,783.564145 C464.267677,783.564145 465.737926,785.569031 464.133213,787.842039 C462.530915,790.114243 466.674345,787.307403 466.138904,788.377481 C465.605073,789.445948 465.470608,790.247902 466.138904,791.317174 C466.807199,792.387251 466.138904,793.1884 465.471414,793.1884 C464.803118,793.1884 464.000359,793.857501 463.599382,795.328555 C463.198405,796.798805 462.931892,800.005816 464.936777,797.198976 C466.940053,794.392137 467.074517,793.990355 467.476299,793.990355 C467.876471,793.990355 469.882967,790.247902 470.684921,789.579607 C471.486875,788.911312 472.421683,787.173744 472.020706,788.644799 C471.619729,790.114243 469.48199,794.257673 468.812889,795.462214 C468.144594,796.665146 467.34264,798.269054 467.476299,799.071813 C467.610763,799.872157 467.610763,802.94712 466.807199,803.214438 C466.00605,803.482561 465.471414,805.487447 465.605073,806.957696 C465.737926,808.42875 465.471414,810.299977 464.803118,811.770226 C464.133213,813.240475 463.8667,815.112507 464.5358,816.449902 C465.204096,817.785688 466.00605,820.726186 464.936777,823" id="Fill-537"></path>
            </g>
        </g>
    </g>
</svg>