<svg width="34" height="30" viewBox="0 0 34 30" fill="none" xmlns="http://www.w3.org/2000/svg">
<g clip-path="url(#clip0_230_14459)">
<path fill-rule="evenodd" clip-rule="evenodd" d="M9.63172 19.8897H2.82771V21.5688H0.287146C0.287146 17.6418 -0.899727 12.2707 1.54786 9.03282L2.73473 5.00729C3.08478 3.9134 3.67274 2.92069 4.8186 2.92069H18.8204C19.9663 2.92069 20.6281 3.89426 20.9043 5.00729L21.8314 9.02461L22.0802 9.64266H15.4485C14.9992 9.63759 14.5546 9.73321 14.1471 9.92251C13.7396 10.1118 13.3798 10.39 13.0939 10.7366C12.6349 11.3016 12.2928 11.9524 12.0875 12.6509L11.0264 16.5397H6.51413V18.3063H10.1376C9.92363 18.8185 9.75435 19.3483 9.63172 19.8897ZM20.9562 4.433L22.4467 0.188696L24.3993 3.87511L28.0966 0L27.2188 5.5515L32.6007 3.74111L29.4476 8.13583L33.6044 9.43756L29.9125 11.3792C30.4098 11.8261 30.7494 12.4218 30.8806 13.0775L31.8049 17.4366C34.1185 20.9918 32.8988 25.3236 32.8988 30H30.3555V28.3154H13.4467V29.9973H10.9006C10.9006 26.0593 9.71103 20.6992 12.1641 17.4339L13.3592 13.0747C13.7092 11.9809 14.2972 10.9881 15.4485 10.9881H28.7912C28.8828 10.9878 28.9742 10.9942 29.0647 11.0073L28.928 10.7475L30.9736 9.67274L27.8122 8.68277L29.9535 5.69918L25.9581 7.04193L26.5898 3.04376L24.1641 5.58979L22.6354 2.70465L21.9134 4.7639L20.9562 4.433ZM17.1276 24.9572H26.5515V26.7293H17.1386V24.9572H17.1276ZM11.9043 20.8277C13.8186 20.8879 15.1531 21.6919 15.4594 23.3628H11.9043V20.8277ZM31.6299 20.8277C29.7156 20.8879 28.381 21.6919 28.0748 23.3628H31.6299V20.8277ZM13.2416 17.4366H30.5552L29.8824 13.6737C29.6964 12.8177 29.1659 12.082 28.2908 12.082H15.8314C14.9562 12.0875 14.4941 12.8532 14.2397 13.6737L13.2416 17.4366ZM1.299 12.4184C3.21331 12.4786 4.54239 13.2799 4.85415 14.948H1.299V12.4184ZM2.62261 9.02461H20.5843L19.9116 5.60346C19.7256 4.75296 19.1951 4.01732 18.3227 4.01732H5.19599C4.32088 4.01732 3.87511 4.77211 3.60711 5.60346L2.62261 9.02461Z" fill="white"/>
</g>
<defs>
<clipPath id="clip0_230_14459">
<rect width="33.6044" height="30" fill="white"/>
</clipPath>
</defs>
</svg>
