<svg width="20" height="20" viewBox="0 0 20 20" fill="none" xmlns="http://www.w3.org/2000/svg">
<path d="M19.375 5.65475V4.34475H17.8425V1.64038C17.8401 1.38173 17.7352 1.13461 17.5508 0.953221C17.3664 0.771837 17.1176 0.671014 16.8589 0.672877H3.14106C2.88241 0.671014 2.63359 0.771837 2.44919 0.953221C2.2648 1.13461 2.15989 1.38173 2.1575 1.64038V18.4373C2.15989 18.6959 2.2648 18.943 2.44919 19.1244C2.63359 19.3058 2.88241 19.4066 3.14106 19.4048H16.8589C17.1176 19.4066 17.3664 19.3058 17.5508 19.1244C17.7352 18.943 17.8401 18.6959 17.8425 18.4373V15.6548H19.375V14.3448H17.8425V10.6548H19.375V9.34475H17.8425V5.65475H19.375ZM16.5325 9.34475H14.6875V10.6548H16.5325V14.3448H14.6875V15.6548H16.5325V18.0948H3.4675V1.98288H16.5325V4.34475H14.6875V5.65475H16.5325V9.34475Z" fill="#627792"/>
<path d="M12.2515 11.9893L11.1287 11.2594L11.6685 9.94473V7.87945C11.6685 7.19866 11.3981 6.54574 10.9167 6.06434C10.4353 5.58295 9.78236 5.3125 9.10157 5.3125C8.42077 5.3125 7.76785 5.58295 7.28646 6.06434C6.80506 6.54574 6.53461 7.19866 6.53461 7.87945V9.93246L7.03153 11.2873L5.9516 11.9893C5.68303 12.1631 5.46235 12.4015 5.30976 12.6827C5.15716 12.9639 5.07752 13.2789 5.07813 13.5988V15.625H13.125V13.5988C13.1256 13.2789 13.046 12.9639 12.8934 12.6827C12.7408 12.4015 12.5201 12.1631 12.2515 11.9893ZM11.875 14.375H6.32813V13.5988C6.32792 13.4872 6.3557 13.3773 6.40893 13.2792C6.46216 13.1812 6.53914 13.098 6.63282 13.0373L8.54817 11.7923L7.78461 9.71031V7.87945C7.78461 7.53018 7.92336 7.1952 8.17034 6.94823C8.41732 6.70125 8.75229 6.5625 9.10157 6.5625C9.45084 6.5625 9.78582 6.70125 10.0328 6.94823C10.2798 7.1952 10.4185 7.53018 10.4185 7.87945V9.69809L9.57868 11.7429L11.5703 13.0373C11.664 13.098 11.741 13.1812 11.7942 13.2792C11.8474 13.3773 11.8752 13.4872 11.875 13.5988V14.375Z" fill="#627792"/>
</svg>
