<svg width="20" height="20" viewBox="0 0 20 20" fill="none" xmlns="http://www.w3.org/2000/svg">
<g clip-path="url(#clip0_141_2302)">
<path d="M19.3047 19.0625C19.3047 19.0625 19.3047 10.2422 19.3047 7.30469C19.3047 7.18359 19.1523 7.03125 19.0039 6.91797L15.9297 4.6875V2.22266C15.9297 1.98047 15.7266 1.81641 15.5234 1.81641H12.0195L10.2344 0.515625C10.1133 0.433594 9.91016 0.433594 9.78516 0.515625L8 1.81641H4.49609C4.25391 1.81641 4.08984 2.01953 4.08984 2.22266V4.66016L0.976563 6.92188C0.792969 7.03516 0.675781 7.18359 0.675781 7.30859C0.675781 10.2656 0.675781 19.1445 0.675781 19.1445C0.675781 19.375 0.859375 19.5352 1.05078 19.5508C1.0625 19.5508 1.07031 19.5508 1.08203 19.5508H18.8945C19.1563 19.5469 19.3047 19.3438 19.3047 19.0625ZM18.5313 8.03516V18.332L11.8086 12.9492L18.5313 8.03516ZM18.2305 7.32031L15.9297 8.99609V5.62891L18.2305 7.32031ZM9.99219 1.28516L10.707 1.8125H9.27344L9.99219 1.28516ZM15.1172 2.62891V9.58984L9.99219 13.3242L4.86719 9.58984V2.62891H15.1172ZM1.45313 8.03516L8.17578 12.9492L1.45313 18.3633V8.03516ZM4.09375 9.02734L1.73438 7.30859L4.09375 5.59375V9.02734ZM2.18359 18.7734L8.82813 13.4258L9.74609 14.0977C9.92188 14.2305 10.0547 14.2305 10.2344 14.0977L11.1523 13.4258L17.8359 18.7734H2.18359Z" fill="#627792"/>
<path d="M12.7578 4.62109H7.26953V5.39453H12.7578V4.62109Z" fill="#627792"/>
<path d="M12.7578 7.10156H7.26953V7.875H12.7578V7.10156Z" fill="#627792"/>
<path d="M12.7578 9.58203H7.26953V10.3555H12.7578V9.58203Z" fill="#627792"/>
</g>
<defs>
<clipPath id="clip0_141_2302">
<rect width="20" height="20" fill="white"/>
</clipPath>
</defs>
</svg>
