<svg width="41" height="40" viewBox="0 0 41 40" fill="none" xmlns="http://www.w3.org/2000/svg">
<path d="M39.091 20C39.091 30.4913 30.5662 39 20.0456 39C9.52492 39 1.00012 30.4913 1.00012 20C1.00012 9.50873 9.52492 1 20.0456 1C30.5662 1 39.091 9.50873 39.091 20Z" stroke="#272C49" stroke-width="2"/>
<g clip-path="url(#clip0_230_16990)">
<path d="M16.8858 20.4348H18.3507V26.4518C18.3507 26.5706 18.4472 26.6668 18.5662 26.6668H21.05C21.169 26.6668 21.2655 26.5706 21.2655 26.4518V20.4632H22.9495C23.059 20.4632 23.1511 20.3812 23.1636 20.2727L23.4194 18.0575C23.4264 17.9966 23.4071 17.9356 23.3662 17.8898C23.3253 17.8441 23.2668 17.8179 23.2053 17.8179H21.2656V16.4293C21.2656 16.0107 21.4915 15.7985 21.9371 15.7985C22.0006 15.7985 23.2053 15.7985 23.2053 15.7985C23.3244 15.7985 23.4209 15.7022 23.4209 15.5834V13.5501C23.4209 13.4313 23.3244 13.3351 23.2053 13.3351H21.4575C21.4452 13.3345 21.4178 13.3335 21.3774 13.3335C21.0742 13.3335 20.02 13.3929 19.1873 14.1572C18.2647 15.0042 18.393 16.0183 18.4236 16.1941V17.8178H16.8858C16.7668 17.8178 16.6703 17.9141 16.6703 18.0329V20.2197C16.6703 20.3385 16.7668 20.4348 16.8858 20.4348Z" fill="#272C49"/>
</g>
<defs>
<clipPath id="clip0_230_16990">
<rect width="13.3636" height="13.3333" fill="white" transform="translate(13.3638 13.3335)"/>
</clipPath>
</defs>
</svg>
