<svg width="20" height="20" viewBox="0 0 20 20" fill="none" xmlns="http://www.w3.org/2000/svg">
<g clip-path="url(#clip0_230_16820)">
<path d="M17.0716 2.92843C15.182 1.03885 12.6708 0 10 0C7.32924 0 4.818 1.03885 2.92843 2.92843C1.03885 4.818 0 7.32924 0 10C0 12.6708 1.03885 15.182 2.92843 17.0716C4.818 18.9611 7.32924 20 10 20C12.6708 20 15.182 18.9611 17.0716 17.0716C18.9611 15.182 20 12.6708 20 10C20 7.32924 18.9611 4.818 17.0716 2.92843ZM10 18.8957C5.09611 18.8957 1.10429 14.9039 1.10429 10C1.10429 5.09611 5.09611 1.10429 10 1.10429C14.9039 1.10429 18.8957 5.09611 18.8957 10C18.8957 14.9039 14.9039 18.8957 10 18.8957Z" fill="#627792"/>
<path d="M9.99991 8.31104C11.4355 8.31104 12.6011 7.1413 12.6011 5.70981C12.6011 4.27832 11.4355 3.10449 9.99991 3.10449C8.56433 3.10449 7.39868 4.27423 7.39868 5.70572C7.39868 7.13721 8.56433 8.31104 9.99991 8.31104ZM9.99991 4.20879C10.8261 4.20879 11.4968 4.87954 11.4968 5.70572C11.4968 6.5319 10.8261 7.20265 9.99991 7.20265C9.17373 7.20265 8.50298 6.5319 8.50298 5.70572C8.50298 4.87954 9.17373 4.20879 9.99991 4.20879Z" fill="#627792"/>
<path d="M13.9427 11.4728C13.0307 10.1313 11.7055 9.44824 9.99998 9.44824C8.29446 9.44824 6.96931 10.1272 6.05724 11.4728C5.37831 12.4707 4.94477 13.8327 4.77299 15.5096C4.74027 15.8123 4.96113 16.0863 5.26379 16.1149C5.56645 16.1476 5.84047 15.9268 5.8691 15.6241C6.21675 12.2581 7.60735 10.5525 9.99998 10.5525C12.3926 10.5525 13.7832 12.2581 14.1309 15.6241C14.1595 15.9063 14.4008 16.119 14.6789 16.119C14.6994 16.119 14.7157 16.119 14.7362 16.1149C15.0388 16.0822 15.2597 15.8123 15.227 15.5096C15.0552 13.8286 14.6217 12.4707 13.9427 11.4728Z" fill="#627792"/>
</g>
<defs>
<clipPath id="clip0_230_16820">
<rect width="20" height="20" fill="white"/>
</clipPath>
</defs>
</svg>
