<svg width="30" height="30" viewBox="0 0 30 30" fill="none" xmlns="http://www.w3.org/2000/svg">
<path d="M15 1.28075L29.7 7.16075V9.11975H27.741C27.741 9.38375 27.636 9.61475 27.426 9.80975C27.216 10.0048 26.97 10.1007 26.682 10.1007H3.318C3.033 10.1007 2.784 10.0048 2.574 9.80975C2.364 9.61475 2.259 9.38675 2.259 9.11975H0.300003V7.16075L15 1.28075ZM4.221 11.0788H8.142V22.8388H10.101V11.0788H14.022V22.8388H15.981V11.0788H19.902V22.8388H21.861V11.0788H25.782V22.8388H26.685C26.97 22.8388 27.219 22.9348 27.429 23.1298C27.639 23.3248 27.744 23.5528 27.744 23.8198V24.8008H2.259V23.8198C2.259 23.5558 2.364 23.3248 2.574 23.1298C2.784 22.9348 3.03 22.8388 3.318 22.8388H4.221V11.0788ZM28.644 25.7788C28.929 25.7788 29.178 25.8748 29.388 26.0698C29.598 26.2648 29.703 26.4928 29.703 26.7598V28.7188H0.300003V26.7598C0.300003 26.4958 0.405003 26.2648 0.615003 26.0698C0.825003 25.8748 1.071 25.7788 1.359 25.7788H28.644Z" fill="white"/>
</svg>
