<svg width="41" height="40" viewBox="0 0 41 40" fill="none" xmlns="http://www.w3.org/2000/svg">
<path d="M39.0909 20C39.0909 30.4913 30.5661 39 20.0455 39C9.5248 39 1 30.4913 1 20C1 9.50873 9.5248 1 20.0455 1C30.5661 1 39.0909 9.50873 39.0909 20Z" stroke="#272C49" stroke-width="2"/>
<g clip-path="url(#clip0_230_17000)">
<path d="M20 18.0002C19.4696 18.0002 18.9609 18.2109 18.5858 18.5859C18.2108 18.961 18 19.4697 18 20.0002C18 20.5306 18.2108 21.0393 18.5858 21.4144C18.9609 21.7894 19.4696 22.0002 20 22.0002C20.5305 22.0002 21.0392 21.7894 21.4143 21.4144C21.7893 21.0393 22 20.5306 22 20.0002C22 19.4697 21.7893 18.961 21.4143 18.5859C21.0392 18.2109 20.5305 18.0002 20 18.0002ZM20 16.6668C20.8841 16.6668 21.7319 17.018 22.3571 17.6431C22.9822 18.2683 23.3334 19.1161 23.3334 20.0002C23.3334 20.8842 22.9822 21.7321 22.3571 22.3572C21.7319 22.9823 20.8841 23.3335 20 23.3335C19.116 23.3335 18.2681 22.9823 17.643 22.3572C17.0179 21.7321 16.6667 20.8842 16.6667 20.0002C16.6667 19.1161 17.0179 18.2683 17.643 17.6431C18.2681 17.018 19.116 16.6668 20 16.6668ZM24.3334 16.5002C24.3334 16.7212 24.2456 16.9331 24.0893 17.0894C23.933 17.2457 23.7211 17.3335 23.5 17.3335C23.279 17.3335 23.0671 17.2457 22.9108 17.0894C22.7545 16.9331 22.6667 16.7212 22.6667 16.5002C22.6667 16.2791 22.7545 16.0672 22.9108 15.9109C23.0671 15.7546 23.279 15.6668 23.5 15.6668C23.7211 15.6668 23.933 15.7546 24.0893 15.9109C24.2456 16.0672 24.3334 16.2791 24.3334 16.5002ZM20 14.6668C18.3507 14.6668 18.0814 14.6715 17.314 14.7055C16.7914 14.7302 16.4407 14.8002 16.1154 14.9268C15.826 15.0388 15.6174 15.1728 15.3954 15.3955C15.1867 15.5971 15.0263 15.8432 14.926 16.1155C14.7994 16.4422 14.7294 16.7922 14.7054 17.3142C14.6707 18.0502 14.6667 18.3075 14.6667 20.0002C14.6667 21.6495 14.6714 21.9188 14.7054 22.6862C14.73 23.2082 14.8 23.5595 14.926 23.8842C15.0394 24.1742 15.1727 24.3828 15.394 24.6042C15.6187 24.8282 15.8274 24.9622 16.114 25.0728C16.4434 25.2002 16.794 25.2708 17.314 25.2948C18.05 25.3295 18.3074 25.3335 20 25.3335C21.6494 25.3335 21.9187 25.3288 22.686 25.2948C23.2074 25.2702 23.5587 25.2002 23.884 25.0742C24.1727 24.9615 24.3827 24.8275 24.604 24.6062C24.8287 24.3815 24.9627 24.1728 25.0734 23.8862C25.2 23.5575 25.2707 23.2062 25.2947 22.6862C25.3294 21.9502 25.3334 21.6928 25.3334 20.0002C25.3334 18.3508 25.3287 18.0815 25.2947 17.3142C25.27 16.7928 25.2 16.4408 25.0734 16.1155C24.9729 15.8435 24.8128 15.5975 24.6047 15.3955C24.4032 15.1867 24.157 15.0263 23.8847 14.9262C23.558 14.7995 23.2074 14.7295 22.686 14.7055C21.95 14.6708 21.6927 14.6668 20 14.6668ZM20 13.3335C21.8114 13.3335 22.0374 13.3402 22.748 13.3735C23.458 13.4068 23.9414 13.5182 24.3667 13.6835C24.8067 13.8528 25.1774 14.0822 25.548 14.4522C25.887 14.7854 26.1493 15.1886 26.3167 15.6335C26.4814 16.0582 26.5934 16.5422 26.6267 17.2522C26.658 17.9628 26.6667 18.1888 26.6667 20.0002C26.6667 21.8115 26.66 22.0375 26.6267 22.7482C26.5934 23.4582 26.4814 23.9415 26.3167 24.3668C26.1498 24.812 25.8875 25.2152 25.548 25.5482C25.2147 25.887 24.8116 26.1493 24.3667 26.3168C23.942 26.4815 23.458 26.5935 22.748 26.6268C22.0374 26.6582 21.8114 26.6668 20 26.6668C18.1887 26.6668 17.9627 26.6602 17.252 26.6268C16.542 26.5935 16.0587 26.4815 15.6334 26.3168C15.1883 26.1498 14.7851 25.8875 14.452 25.5482C14.113 25.215 13.8507 24.8118 13.6834 24.3668C13.518 23.9422 13.4067 23.4582 13.3734 22.7482C13.342 22.0375 13.3334 21.8115 13.3334 20.0002C13.3334 18.1888 13.34 17.9628 13.3734 17.2522C13.4067 16.5415 13.518 16.0588 13.6834 15.6335C13.8502 15.1883 14.1126 14.785 14.452 14.4522C14.7852 14.113 15.1883 13.8506 15.6334 13.6835C16.0587 13.5182 16.5414 13.4068 17.252 13.3735C17.9627 13.3422 18.1887 13.3335 20 13.3335Z" fill="#272C49"/>
</g>
<defs>
<clipPath id="clip0_230_17000">
<rect width="16" height="16" fill="white" transform="translate(12 12)"/>
</clipPath>
</defs>
</svg>
