<svg width="41" height="40" viewBox="0 0 41 40" fill="none" xmlns="http://www.w3.org/2000/svg">
<path d="M39.0909 20C39.0909 30.4913 30.5661 39 20.0455 39C9.5248 39 1 30.4913 1 20C1 9.50873 9.5248 1 20.0455 1C30.5661 1 39.0909 9.50873 39.0909 20Z" stroke="#272C49" stroke-width="2"/>
<g clip-path="url(#clip0_230_17006)">
<path d="M13.4546 26.3943H15.2746C15.5257 26.3943 15.7293 26.1908 15.7293 25.9397V17.9844C15.7293 17.7333 15.5257 17.5298 15.2746 17.5298H13.4546C13.2035 17.5298 13 17.7333 13 17.9844V25.9397C13 26.1908 13.2035 26.3943 13.4546 26.3943Z" fill="#272C49"/>
<path d="M13.4546 16.1314H15.2746C15.5257 16.1314 15.7293 15.9279 15.7293 15.6768V14.0606C15.7293 13.8095 15.5257 13.606 15.2746 13.606H13.4546C13.2035 13.606 13 13.8095 13 14.0606V15.6768C13 15.9279 13.2035 16.1314 13.4546 16.1314Z" fill="#272C49"/>
<path d="M26.3153 18.4527C26.0595 18.1161 25.6824 17.8392 25.1838 17.6222C24.6851 17.4054 24.1347 17.2969 23.5325 17.2969C22.31 17.2969 21.2742 17.7634 20.4249 18.6967C20.2559 18.8824 20.1331 18.8418 20.1331 18.5907V17.9846C20.1331 17.7335 19.9295 17.53 19.6784 17.53H18.0526C17.8015 17.53 17.598 17.7335 17.598 17.9846V25.9399C17.598 26.191 17.8016 26.3946 18.0526 26.3946H19.8727C20.1238 26.3946 20.3273 26.191 20.3273 25.9399V23.1733C20.3273 22.0207 20.3969 21.2307 20.5361 20.8033C20.6752 20.376 20.9327 20.0328 21.3082 19.7738C21.6838 19.5148 22.1079 19.3852 22.5807 19.3852C22.9497 19.3852 23.2654 19.4759 23.5277 19.6572C23.79 19.8386 23.9794 20.0926 24.096 20.4197C24.2126 20.7467 24.2708 21.4671 24.2708 22.5808V25.9399C24.2708 26.191 24.4743 26.3945 24.7254 26.3945H26.5454C26.7965 26.3945 27 26.191 27 25.9399V21.4347C27 20.6383 26.9498 20.0263 26.8496 19.599C26.7493 19.1716 26.5712 18.7895 26.3153 18.4527Z" fill="#272C49"/>
</g>
<defs>
<clipPath id="clip0_230_17006">
<rect width="14" height="14" fill="white" transform="translate(13 13)"/>
</clipPath>
</defs>
</svg>
