<svg width="20" height="20" viewBox="0 0 20 20" fill="none" xmlns="http://www.w3.org/2000/svg">
<g clip-path="url(#clip0_250_21583)">
<path d="M17.0716 2.92843C15.182 1.03885 12.6708 0 10 0C7.32924 0 4.818 1.03885 2.92843 2.92843C1.03885 4.818 0 7.32924 0 10C0 12.6708 1.03885 15.182 2.92843 17.0716C4.818 18.9611 7.32924 20 10 20C12.6708 20 15.182 18.9611 17.0716 17.0716C18.9611 15.182 20 12.6708 20 10C20 7.32924 18.9611 4.818 17.0716 2.92843ZM10 18.8957C5.09611 18.8957 1.10429 14.9039 1.10429 10C1.10429 5.09611 5.09611 1.10429 10 1.10429C14.9039 1.10429 18.8957 5.09611 18.8957 10C18.8957 14.9039 14.9039 18.8957 10 18.8957Z" fill="black"/>
<path d="M10.0002 8.31104C11.4357 8.31104 12.6014 7.1413 12.6014 5.70981C12.6014 4.27832 11.4357 3.10449 10.0002 3.10449C8.56457 3.10449 7.39893 4.27423 7.39893 5.70572C7.39893 7.13721 8.56457 8.31104 10.0002 8.31104ZM10.0002 4.20879C10.8263 4.20879 11.4971 4.87954 11.4971 5.70572C11.4971 6.5319 10.8263 7.20265 10.0002 7.20265C9.17398 7.20265 8.50322 6.5319 8.50322 5.70572C8.50322 4.87954 9.17398 4.20879 10.0002 4.20879Z" fill="black"/>
<path d="M13.943 11.4728C13.0309 10.1313 11.7057 9.44824 10.0002 9.44824C8.29471 9.44824 6.96955 10.1272 6.05749 11.4728C5.37855 12.4707 4.94501 13.8327 4.77323 15.5096C4.74051 15.8123 4.96137 16.0863 5.26403 16.1149C5.56669 16.1476 5.84072 15.9268 5.86935 15.6241C6.217 12.2581 7.60759 10.5525 10.0002 10.5525C12.3929 10.5525 13.7835 12.2581 14.1311 15.6241C14.1597 15.9063 14.401 16.119 14.6792 16.119C14.6996 16.119 14.716 16.119 14.7364 16.1149C15.0391 16.0822 15.2599 15.8123 15.2272 15.5096C15.0554 13.8286 14.6219 12.4707 13.943 11.4728Z" fill="black"/>
</g>
<defs>
<clipPath id="clip0_250_21583">
<rect width="20" height="20" fill="white"/>
</clipPath>
</defs>
</svg>
