<svg width="440" height="485" viewBox="0 0 440 485" fill="none" xmlns="http://www.w3.org/2000/svg">
<rect width="440" height="485" transform="matrix(-1 0 0 1 440 0)" fill="#ECF3F9"/>
<rect width="440" height="485" transform="matrix(-1 0 0 1 440 0)" fill="white"/>
<g opacity="0.4" clip-path="url(#clip0_135_1116)">
<path d="M440 485H0.425367C-3.68877 462.109 20.7833 443.084 48.0926 440.813C66.3934 439.279 84.6233 443.084 102.569 446.275C120.516 449.466 139.313 451.982 157.117 447.993C174.922 444.004 191.449 431.914 193.506 416.081C194.641 407.427 191.378 398.835 190.172 390.182C185.42 356.428 216.772 322.06 255.786 318.133C274.228 316.291 292.671 320.403 311.256 320.894C329.769 321.447 350.553 317.151 360.412 303.526C372.4 287.079 363.037 265.415 351.475 248.722C339.913 232.029 325.584 214.416 328.421 195.145C333.812 157.832 396.518 144.883 407.087 108.367C410.279 97.3815 408.08 85.8438 406.165 74.6129C404.32 63.3821 402.831 51.6602 407.299 41.043C411.768 30.4259 424.111 21.4044 437.021 23.1228C438.014 23.2455 439.007 23.491 440 23.7365V485V485Z" fill="#ECF3F9"/>
</g>
<g opacity="0.4" clip-path="url(#clip1_135_1116)">
<path d="M0.000244141 485H439.575C443.689 462.109 419.217 443.084 391.907 440.813C373.607 439.279 355.377 443.084 337.431 446.275C319.484 449.466 300.687 451.982 282.883 447.993C265.078 444.004 248.551 431.914 246.494 416.08C245.359 407.427 248.622 398.835 249.828 390.182C254.58 356.428 223.228 322.06 184.214 318.133C165.772 316.291 147.329 320.403 128.744 320.894C110.231 321.447 89.4473 317.151 79.5875 303.526C67.5998 287.079 76.963 265.415 88.5251 248.722C100.087 232.029 114.416 214.416 111.578 195.145C106.188 157.832 43.4824 144.883 32.9133 108.367C29.7213 97.3815 31.9203 85.8438 33.8355 74.6129C35.6797 63.382 37.1693 51.6602 32.7005 41.043C28.2317 30.4259 15.8893 21.4044 2.97946 23.1228C1.98639 23.2455 0.993317 23.491 0.000244141 23.7365V485Z" fill="#ECF3F9"/>
</g>
<g clip-path="url(#clip2_135_1116)">
<path d="M368.736 387.205H80.7469C72.372 387.205 65.4829 391.578 65.4829 396.943C65.4829 400.639 68.7698 403.885 73.5877 405.553H50.264C41.889 405.553 35 409.926 35 415.291C35 420.656 41.844 425.029 50.264 425.029H58.4138C56.1624 426.742 54.7666 428.951 54.7666 431.34V435.217C54.7666 440.582 61.6106 444.955 70.0306 444.955H354.102C362.477 444.955 369.366 440.582 369.366 435.217V431.34C369.366 425.975 362.522 421.602 354.102 421.602L342.756 421.828C344.107 421.828 346.313 421.152 347.799 419.754C350.365 417.365 350.5 413.668 349.24 410.648C348.429 408.664 347.123 407.131 343.836 406.545L368.826 406.68C377.201 406.68 384.09 402.307 384.09 396.943C384 391.578 377.111 387.205 368.736 387.205Z" fill="white"/>
<path d="M302.232 429.176H140.092V315.119L221.139 269.992L302.232 315.119V429.176Z" fill="#49529A"/>
<path d="M333.48 309.799C321.413 303.082 309.346 296.365 297.234 289.693C277.693 278.828 258.196 268.008 238.655 257.143C233.927 254.529 229.289 251.779 224.471 249.254C221.455 247.676 218.348 247.766 215.466 249.434C213.62 250.471 211.774 251.598 209.928 252.68C192.097 263.094 174.267 273.553 156.391 283.967C141.938 292.443 127.304 300.648 112.941 309.348C112.716 309.484 112.446 309.619 112.22 309.754C108.573 311.873 107.313 316.787 109.429 320.393C111.545 324.045 116.453 325.307 120.1 323.189C131.852 316.336 143.559 309.439 155.311 302.586C173.952 291.676 192.548 280.811 211.189 269.902C214.205 268.143 217.222 266.385 220.239 264.627C231.18 270.713 242.122 276.799 253.063 282.885C272.74 293.795 292.416 304.75 312.093 315.66C316.596 318.184 321.098 320.664 325.601 323.189C329.293 325.217 334.111 324.09 336.272 320.393C338.343 316.922 337.173 311.873 333.48 309.799Z" fill="#292949"/>
<path d="M202.679 349.561H163.146V425.75H202.679V349.561Z" fill="white"/>
<path d="M250.902 349.561H229.379V367.91H250.902V349.561Z" fill="white"/>
<path d="M279.044 349.561H257.521V367.91H279.044V349.561Z" fill="white"/>
<path d="M250.902 374.672H229.379V393.02H250.902V374.672Z" fill="white"/>
<path d="M279.044 374.672H257.521V393.02H279.044V374.672Z" fill="white"/>
<path d="M93.2192 296.59L102.585 311.107L111.635 312.414L132.212 313.27L130.366 307.139L108.573 301.549L98.4873 286.807L93.2192 296.59Z" fill="#D27186"/>
<path d="M64.6729 359.344L71.1116 387.971L77.0551 422.008H82.9986L85.4751 339.193L65.7085 339.553L64.6729 359.344Z" fill="#CAB5A0"/>
<path d="M102.54 357.586L103.395 385.357L95.0205 422.008H89.6623L89.122 383.373L83.2236 351.77L81.7827 341.672L98.2624 339.734L102.54 357.586Z" fill="#CAB5A0"/>
<path d="M89.5273 282.885L70.8864 284.283L60.1701 301.594C63.1418 312.189 62.5565 308.537 64.3576 318.094L59.0444 344.422L66.0235 346.451L91.3284 346.902L99.6583 345.459L97.3619 320.348L98.5326 286.807L89.5273 282.885Z" fill="#D27186"/>
<path d="M88.5366 266.791C85.6999 258.541 74.8485 261.652 72.5972 268.955C71.1564 273.734 74.8485 279.955 79.8015 281.307C79.8015 281.488 79.8465 281.668 79.8465 281.803C79.8465 282.57 79.9365 283.336 80.0716 284.102C80.1166 284.373 84.4392 283.561 84.9345 283.471C85.1146 283.426 85.2947 283.381 85.3847 283.246C85.5648 282.975 85.2947 282.164 85.2497 281.848C85.2046 281.488 85.1596 281.127 85.1596 280.766C87.591 279.594 89.1219 277.025 89.5722 274.455C89.9324 271.885 89.3921 269.27 88.5366 266.791Z" fill="#EED5B9"/>
<path d="M80.7472 259.082C80.2069 259.713 80.0268 260.57 79.9367 261.381C79.8917 261.877 79.8017 262.373 79.9818 262.824C80.5221 264.672 82.3682 264.402 83.854 264.898C85.6551 265.484 87.2761 266.746 88.4017 268.234C90.1127 270.578 89.6625 273.779 89.2572 276.574C89.1221 277.566 88.7619 279.008 89.5724 279.82C90.3829 280.631 92.1389 280.361 92.9944 279.865C93.8049 279.414 94.3902 278.602 95.2908 278.377C96.2363 278.152 97.5421 278.467 97.9473 277.566C98.0374 277.295 98.0374 277.025 98.1725 276.754C98.6227 275.943 100.019 276.754 100.739 276.168C101.189 275.807 101.099 275.086 100.919 274.545C100.739 274.004 100.424 273.463 100.469 272.877C100.514 272.381 100.829 271.975 101.009 271.525C101.369 270.623 101.144 269.496 100.424 268.82C99.118 267.557 96.8667 267.963 95.5159 266.791C94.7955 266.16 94.4803 265.213 94.1651 264.311C93.8499 263.41 93.4897 262.463 92.7243 261.922C91.7787 261.201 90.563 261.471 89.6174 260.615C89.0771 260.119 88.6719 259.443 88.0865 259.037C87.2761 258.496 85.7902 258.135 84.8446 257.865C83.3588 257.459 81.7378 257.91 80.7472 259.082Z" fill="#292949"/>
<path d="M74.8937 272.742C75.0288 275.447 76.6047 278.287 75.5691 280.766C74.4884 283.246 71.3816 283.922 68.725 284.283C68.2748 284.328 62.7365 285.094 62.6465 285.139C59.6747 286.898 57.5135 285.816 56.3878 284.238C55.2621 282.66 54.2716 278.918 55.6224 277.025C56.1176 276.664 56.3878 276.213 56.2977 275.627C56.2077 275.086 55.8475 274.59 55.6674 274.049C55.1721 272.742 55.4422 271.164 56.3878 270.172C58.2339 268.143 61.9261 268.639 63.457 266.385C64.4025 264.988 64.1323 263.049 64.5826 261.426C65.4381 258.225 68.7701 257.324 71.2465 255.701C73.813 253.988 76.2895 252.996 79.4413 253.266C83.3586 253.627 86.5105 257.324 85.2948 261.156C83.7639 266.025 76.1094 266.205 75.0288 271.164C74.8937 271.66 74.8486 272.201 74.8937 272.742Z" fill="#292949"/>
<path d="M77.0552 283.697L82.5484 291.451L85.1149 291.271L88.627 282.795L77.0552 283.697Z" fill="#F5F5F5"/>
<path d="M82.9987 422.008L86.1955 426.111L83.2238 429.357L79.0814 425.66L77.0552 422.008H82.9987Z" fill="#766A5A"/>
<path d="M95.4259 422.008L98.6228 426.111L95.651 429.357L91.5086 425.66L89.4824 422.008H95.4259Z" fill="#766A5A"/>
<path d="M338.929 263.59C340.64 263.5 344.737 262.553 344.737 262.689C344.692 261.111 344.557 259.578 344.242 258.045C345.863 257.414 347.664 256.467 347.889 254.799C347.979 254.258 347.844 253.717 347.754 253.176C347.304 250.967 346.808 248.803 346.358 246.594C346.178 245.828 346.043 245.061 345.593 244.43C344.827 243.303 343.386 242.852 342.036 242.672C337.038 241.996 332.49 245.512 328.122 247.406C327.762 247.541 327.402 247.721 327.132 248.037C326.681 248.578 326.727 249.344 326.817 250.02C327.312 253.537 328.302 258.721 332.4 259.713C333.3 259.939 334.246 259.893 335.146 260.119C337.308 260.66 336.677 262.734 338.253 263.59C338.343 263.59 338.613 263.59 338.929 263.59Z" fill="#EDD3B8"/>
<path d="M318.442 242.176C317.946 240.418 317.766 238.66 317.901 237.217C318.262 233.926 320.558 228.201 324.835 230.545C327.177 231.807 328.978 233.115 331.86 232.619C335.146 232.078 336.948 231.266 340.324 232.348C343.296 233.295 347.214 233.385 349.915 234.738C351.041 235.324 351.941 236.225 352.662 237.262C355.183 240.869 355.363 245.918 353.157 249.705C352.662 250.561 352.031 251.328 351.401 252.094C350.095 253.627 348.519 255.566 346.628 256.152C346.538 254.439 347.889 249.029 346.493 247.721C344.332 245.602 339.694 246.549 337.173 247.18C334.381 247.857 331.995 249.93 329.248 250.471C327.267 250.832 324.7 249.975 322.944 248.984C320.828 247.811 319.252 245.016 318.442 242.176Z" fill="#292949"/>
<path d="M289.355 278.783L286.068 277.07L282.871 277.971L282.331 277.43L283.006 276.799C280.8 277.025 278.143 275.852 277.513 273.508C277.288 272.607 277.423 270.533 278.368 269.992C279.449 269.361 282.421 270.623 283.681 270.848L286.518 273.012L291.111 275.176L289.355 278.783Z" fill="#EDD3B8"/>
<path d="M287.914 273.012L318.532 279.008L330.734 266.025L340.955 271.434L327.627 294.967L284.312 278.828L287.914 273.012Z" fill="#8CA6D6"/>
<path d="M361.712 420.836L362.117 424.262L355.228 428.455L351.131 425.48L354.328 421.648L361.262 417.455L361.712 420.836Z" fill="#3C3A38"/>
<path d="M359.866 316.742L361.217 327.111L352.167 373.59L361.937 419.709L354.823 421.873L330.599 367.234L328.978 350.463L331.409 315.525L359.866 316.742Z" fill="#292949"/>
<path d="M314.434 320.709L313.849 364.529L323.44 420.971H330.824L335.507 368.857L345.593 316.787L314.434 320.709Z" fill="#292949"/>
<path d="M330.779 420.205V423.631L322.81 427.057L318.802 423.631L322.81 420.205H330.779Z" fill="#3C3A38"/>
<path d="M368.241 334.639C368.331 339.373 368.196 345.775 366.395 346C366.08 346.045 365.72 345.865 365.449 345.73C362.343 344.016 360.181 341.582 357.119 339.914C353.923 338.156 350.275 337.254 346.718 336.623C341.36 335.631 335.912 335 330.464 334.91C326.592 334.82 322.044 334.684 318.217 335.496C312.588 336.713 314.84 336.848 311.598 341.582C309.932 340.951 308.266 340.365 306.6 339.734C305.789 339.418 309.166 309.393 310.742 305.697C314.479 296.996 318.442 288.385 322.404 279.775C324.07 276.123 325.556 271.074 328.213 268.279C330.779 265.529 336.092 261.697 339.649 261.426C343.161 261.156 348.745 263.59 351.896 265.348C356.309 267.783 357.57 271.66 359.551 276.168C361.397 280.271 363.873 291.316 364.594 295.734C365.449 301.098 366.215 306.418 366.845 311.828C367.521 317.824 368.016 323.865 368.106 329.906C368.061 330.492 368.151 332.385 368.241 334.639Z" fill="#8CA6D6"/>
<path d="M331.409 269C331.409 269 321.729 282.57 316.866 294.246C314.389 300.197 311.283 319.492 310.067 322.152C308.851 324.811 307.726 340.139 307.726 340.139L311.598 341.582C311.598 341.582 316.641 307.365 318.802 300.557C320.963 293.75 324.385 288.656 324.881 283.066C325.376 277.475 332.895 269 332.895 269H331.409Z" fill="white"/>
<path d="M299.035 300.693L295.523 301.775L292.551 300.332L291.921 300.738L292.461 301.504L289.67 300.918L287.643 301.91L287.283 304.795L288.994 307.365L292.056 307.455L295.253 305.877L300.116 304.615L299.035 300.693Z" fill="#EDD3B8"/>
<path d="M296.019 300.963L322.314 291.451L344.737 261.787L353.562 264.898L357.885 272.381L332.985 303.037L296.424 307.771L296.019 300.963Z" fill="#8CA6D6"/>
<path d="M271.704 164.545C271.704 163.643 271.704 162.742 271.704 161.795L272.965 159.225C273.28 158.865 273.956 158.865 274.226 159.271L275.261 161.795V164.545C276.252 164.545 277.873 165.311 277.873 166.258C277.873 167.205 277.062 167.971 276.072 167.971H275.261V260.48C275.261 265.709 278.008 270.037 281.97 269.947C285.032 269.857 287.734 267.242 288.184 263.004C288.274 262.057 289.084 261.336 290.075 261.336H290.165C291.291 261.336 292.191 262.283 292.056 263.365C291.291 269.406 286.473 273.779 281.925 273.779C278.368 273.779 275.441 272.111 273.73 269.135C271.614 265.439 271.749 261.381 271.749 257.324C271.749 253.492 271.749 249.66 271.749 245.828C271.749 240.463 271.749 235.098 271.749 229.779C271.749 223.693 271.749 217.561 271.749 211.475C271.749 205.389 271.749 199.303 271.749 193.217C271.749 187.898 271.749 182.623 271.749 177.303C271.749 174.193 271.749 171.082 271.749 168.016H271.209C270.218 168.016 269.408 167.25 269.408 166.303C269.363 165.357 270.714 164.545 271.704 164.545Z" fill="#292949"/>
<path opacity="0.26" d="M271.704 216.434L275.306 212.648V206.471H271.704V216.434Z" fill="#040504"/>
<path d="M296.649 215.398L296.109 211.971C294.173 200.16 289.67 188.934 282.871 179.107L274.271 166.709C295.253 167.611 313.219 180.053 321.999 197.861C324.701 203.316 326.502 209.221 327.312 215.488C322.764 214.135 317.541 213.369 311.913 213.369C306.375 213.369 301.197 214.09 296.649 215.398Z" fill="#2F3A84"/>
<path d="M251.623 208.545L250.137 215.848H249.596C244.778 214.27 239.105 213.324 232.982 213.324C226.903 213.324 221.185 214.225 216.322 215.803C217.267 207.824 219.924 200.34 223.886 193.758C233.702 177.529 251.487 166.664 271.839 166.664C272.425 166.664 273.055 166.664 273.64 166.709L266.751 176.762C258.331 187.176 254.459 197.68 251.623 208.545Z" fill="#2F3A84"/>
<path d="M296.109 211.971L296.649 215.398C296.604 215.398 296.559 215.443 296.514 215.443C290.706 212.873 282.736 211.385 273.956 211.385C264.725 211.385 256.35 213.008 250.452 215.893H250.137L251.623 208.59C254.414 197.725 258.287 187.221 266.751 176.807L273.641 166.709C273.866 166.709 274.046 166.709 274.271 166.754L282.871 179.152C289.67 188.98 294.173 200.205 296.109 211.971Z" fill="#5861A5"/>
<path d="M296.649 215.398V215.533C296.604 215.488 296.559 215.488 296.469 215.443C296.559 215.443 296.604 215.398 296.649 215.398Z" fill="white"/>
<path d="M297.414 215.848H296.739L296.694 215.488C296.919 215.623 297.189 215.758 297.414 215.848Z" fill="white"/>
<path d="M296.694 215.533L296.739 215.893H295.163C295.613 215.758 296.064 215.623 296.514 215.488C296.559 215.443 296.604 215.488 296.694 215.533Z" fill="white"/>
<path d="M194.34 264.418L112.504 256.979L102.822 363.744L184.658 371.184L194.34 264.418Z" fill="#292949"/>
<g opacity="0.26">
<path d="M109.339 359.75L110.555 359.84L182.642 368.631L189.936 267.467L186.469 268.098L109.339 359.75Z" fill="#000100"/>
</g>
<path d="M189.897 267.452L116.312 260.763L107.354 359.536L180.94 366.226L189.897 267.452Z" fill="#F5F5F5"/>
<path d="M163.416 255.566L162.92 255.52L162.965 255.205C163.235 252.139 160.534 249.344 156.932 249.029L152.159 248.578C148.557 248.262 145.36 250.471 145.09 253.537L145.045 253.852L144.55 253.807C140.947 253.492 137.751 255.701 137.48 258.766L136.895 264.988L168.864 267.873L169.449 261.652C169.719 258.676 167.018 255.926 163.416 255.566ZM158.148 255.25L149.728 254.484C148.872 254.393 148.242 253.672 148.287 252.816C148.377 251.959 149.142 251.328 149.998 251.418L158.418 252.184C159.273 252.275 159.904 252.996 159.859 253.852C159.813 254.709 159.048 255.295 158.148 255.25Z" fill="#C4D2D2"/>
<g opacity="0.12">
<path d="M169.156 265.05L137.184 262.143L136.919 265.062L168.891 267.968L169.156 265.05Z" fill="#000100"/>
</g>
<path d="M177.913 302.755L122.623 297.729L122.493 299.166L177.783 304.192L177.913 302.755Z" fill="#CCCECF"/>
<path d="M176.966 313.487L121.676 308.461L121.546 309.898L176.836 314.924L176.966 313.487Z" fill="#CCCECF"/>
<path d="M175.975 324.215L120.685 319.189L120.555 320.626L175.845 325.652L175.975 324.215Z" fill="#CCCECF"/>
<path d="M175.029 334.947L119.739 329.921L119.608 331.357L174.898 336.384L175.029 334.947Z" fill="#CCCECF"/>
<path d="M138.001 353.504L117.688 351.657L117.643 352.151L137.957 353.998L138.001 353.504Z" fill="#CCCECF"/>
<path d="M167.423 346.992C166.478 346.541 165.397 346.541 164.407 346.902C164.271 346.811 164.136 346.721 164.001 346.676C162.56 346 160.849 346.316 159.724 347.443C158.643 348.525 158.373 350.193 159.048 351.545C159.724 352.943 161.21 353.754 162.786 353.619C163.146 353.574 163.506 353.484 163.821 353.348C164.497 353.754 165.352 353.98 166.163 353.889C167.919 353.754 169.314 352.311 169.495 350.598C169.675 349.066 168.864 347.623 167.423 346.992ZM163.236 352.898C161.975 353.213 160.624 352.717 159.904 351.68C159.138 350.643 159.138 349.201 159.904 348.164C160.669 347.127 162.065 346.676 163.326 347.037C163.506 347.082 163.641 347.172 163.821 347.217C163.596 347.352 163.371 347.533 163.191 347.713C162.11 348.795 161.84 350.463 162.515 351.816C162.696 352.221 163.011 352.582 163.326 352.898C163.281 352.898 163.281 352.898 163.236 352.898ZM165.532 350.238C165.397 351.275 164.812 352.176 163.911 352.627C163.686 352.447 163.461 352.221 163.281 351.996C162.515 350.959 162.515 349.516 163.281 348.48C163.551 348.119 163.911 347.803 164.316 347.578C165.172 348.209 165.622 349.201 165.532 350.238ZM166.658 353.213C165.937 353.393 165.172 353.303 164.497 352.988C165.397 352.402 166.027 351.41 166.163 350.283C166.253 349.156 165.802 348.074 165.037 347.307C165.577 347.172 166.208 347.127 166.748 347.307C168.189 347.713 169.089 349.066 168.954 350.508C168.819 351.77 167.919 352.852 166.658 353.213Z" fill="#CCCECF"/>
<path d="M114.427 329.59L119.605 330.176L119.83 331.98L123.117 334.189L121.721 336.307L114.967 334.143L114.427 329.59Z" fill="#EED5B9"/>
<path d="M60.1699 301.82L79.036 321.701L87.591 324.902L115.372 334.91L114.832 328.508L86.9156 313.676L70.8862 284.418L63.5019 288.475L60.1699 301.82Z" fill="#DB768C"/>
</g>
<defs>
<clipPath id="clip0_135_1116">
<rect width="440" height="462" fill="white" transform="matrix(1 0 0 -1 0 485)"/>
</clipPath>
<clipPath id="clip1_135_1116">
<rect width="440" height="462" fill="white" transform="translate(440 485) rotate(-180)"/>
</clipPath>
<clipPath id="clip2_135_1116">
<rect width="349" height="286" fill="white" transform="translate(35 159)"/>
</clipPath>
</defs>
</svg>
