<svg width="36" height="36" viewBox="0 0 36 36" fill="none" xmlns="http://www.w3.org/2000/svg">
<path d="M12.7012 12.7793C12.5549 12.2669 12.0809 11.9087 11.5474 11.9087H7.20045C6.53867 11.9087 6.00043 12.4469 6.00043 13.1087V16.1086C6.00043 16.7699 6.5386 17.3087 7.20045 17.3087H12.4048C12.7846 17.3087 13.1338 17.1346 13.363 16.831C13.5916 16.5274 13.663 16.144 13.5586 15.7792L12.7012 12.7793Z" fill="#272C49"/>
<path d="M8.40018 31.1082C8.73154 31.1082 9.00016 30.8395 9.00016 30.5082C9.00016 30.1768 8.73154 29.9082 8.40018 29.9082C8.06883 29.9082 7.80021 30.1768 7.80021 30.5082C7.80021 30.8395 8.06883 31.1082 8.40018 31.1082Z" fill="#272C49"/>
<path d="M11.4002 31.1082C11.7315 31.1082 12.0002 30.8395 12.0002 30.5082C12.0002 30.1768 11.7315 29.9082 11.4002 29.9082C11.0688 29.9082 10.8002 30.1768 10.8002 30.5082C10.8002 30.8395 11.0688 31.1082 11.4002 31.1082Z" fill="#272C49"/>
<path d="M14.4001 31.1082C14.7315 31.1082 15.0001 30.8395 15.0001 30.5082C15.0001 30.1768 14.7315 29.9082 14.4001 29.9082C14.0688 29.9082 13.8002 30.1768 13.8002 30.5082C13.8002 30.8395 14.0688 31.1082 14.4001 31.1082Z" fill="#272C49"/>
<path d="M17.4001 31.1082C17.7315 31.1082 18.0001 30.8395 18.0001 30.5082C18.0001 30.1768 17.7315 29.9082 17.4001 29.9082C17.0688 29.9082 16.8002 30.1768 16.8002 30.5082C16.8002 30.8395 17.0688 31.1082 17.4001 31.1082Z" fill="#272C49"/>
<path d="M20.4001 31.1082C20.7315 31.1082 21.0001 30.8395 21.0001 30.5082C21.0001 30.1768 20.7315 29.9082 20.4001 29.9082C20.0688 29.9082 19.8002 30.1768 19.8002 30.5082C19.8002 30.8395 20.0688 31.1082 20.4001 31.1082Z" fill="#272C49"/>
<path d="M28.7998 17.3084C28.7998 18.0938 29.0482 18.8402 29.5192 19.4672C29.7178 19.7329 30.0934 19.7864 30.3592 19.5872C30.6238 19.3886 30.6778 19.0124 30.4786 18.7472C30.1654 18.3296 29.9998 17.8322 29.9998 17.3084C29.9998 15.9847 31.0767 14.9084 32.3997 14.9084C33.7234 14.9084 34.7997 15.9848 34.7997 17.3084C34.7997 17.8328 34.6341 18.3308 34.3203 18.7484C34.1211 19.0136 34.1745 19.3898 34.4397 19.5889C34.5477 19.6699 34.6737 19.709 34.7991 19.709C34.9821 19.709 35.1615 19.6261 35.2796 19.4696C35.7507 18.842 35.9996 18.095 35.9996 17.3084C35.9996 15.5282 34.7001 14.0498 32.9996 13.7624V5.90846C32.9996 5.87429 32.9859 5.84427 32.9804 5.81129C33.0884 5.4939 33.1358 5.15493 33.11 4.81532C33.0591 4.12113 32.7176 3.47433 32.1747 3.0405C31.1493 2.21912 29.6499 2.3319 28.7601 3.29728L17.0999 15.5462L15.9005 10.1853C15.6533 9.0801 14.6897 8.3085 13.5575 8.3085H11.9999V7.10848C11.9999 5.78485 10.9235 4.70852 9.59992 4.70852C8.27693 4.70852 7.19996 5.78492 7.19996 7.10848V8.3085H5.40116C4.07754 8.3085 3.00001 9.38547 3.00001 10.7097V19.7084V20.9084V22.1084H13.7999C14.1317 22.1084 14.3999 22.3766 14.3999 22.7084C14.3999 23.0402 14.1317 23.3084 13.7999 23.3084H3.00001V24.5084H17.9999C18.3317 24.5084 18.5999 24.7766 18.5999 25.1084C18.5999 25.4402 18.3317 25.7083 17.9999 25.7083H3.00001V27.5083C1.34641 27.5083 0 28.8541 0 30.5083C0 32.1625 1.34641 33.5084 3.00001 33.5084H25.7999C27.4541 33.5084 28.7999 32.1626 28.7999 30.5083C28.7999 28.8542 27.4541 27.5083 25.7999 27.5083H24.9773L26.9891 21.7976C27.1985 21.347 27.1684 20.8304 26.9063 20.4056C26.6363 19.9694 26.1689 19.7084 25.6559 19.7084H19.9853L31.7998 7.38446V13.7624C30.1 14.0498 28.7998 15.5282 28.7998 17.3084ZM8.39997 7.10848C8.39997 6.4467 8.93814 5.90846 9.59999 5.90846C10.2618 5.90846 10.8 6.44663 10.8 7.10848V8.3085H8.40004V7.10848H8.39997ZM4.19995 19.7084V10.7097C4.19995 10.0472 4.73875 9.50844 5.40116 9.50844H7.19996H12H13.5576C14.1239 9.50844 14.6063 9.89481 14.7294 10.4468L16.1736 16.904V16.9046L16.8012 19.7083H4.19995V19.7084ZM3.00001 32.3083C2.00762 32.3083 1.20002 31.5007 1.20002 30.5083C1.20002 29.516 2.00762 28.7084 3.00001 28.7084C3.99302 28.7084 4.79999 29.516 4.79999 30.5083C4.79999 31.5007 3.99295 32.3083 3.00001 32.3083ZM25.7998 28.7084C26.7928 28.7084 27.5998 29.516 27.5998 30.5083C27.5998 31.5007 26.7928 32.3083 25.7998 32.3083C24.8074 32.3083 23.9998 31.5007 23.9998 30.5083C23.9998 29.516 24.8074 28.7084 25.7998 28.7084ZM23.4155 28.7084C23.0344 29.2112 22.7999 29.8303 22.7999 30.5083C22.7999 31.1864 23.0345 31.8055 23.4155 32.3083H5.38499C5.76538 31.8055 6.00001 31.1864 6.00001 30.5083C6.00001 29.8303 5.76538 29.2112 5.38499 28.7084H23.4155ZM31.5748 5.88568L18.3227 19.7084H18.0311L17.9075 19.1576L17.4149 16.955L29.6326 4.12106C29.635 4.11923 29.6374 4.11628 29.6398 4.11389C30.1047 3.6075 30.8884 3.54689 31.4254 3.97706C31.7127 4.20684 31.8862 4.53625 31.9137 4.90406C31.9414 5.2713 31.8184 5.62286 31.5748 5.88568Z" fill="#272C49"/>
<path d="M35.9821 23.7629L35.3822 21.3629C35.3396 21.1931 35.225 21.0503 35.0684 20.9717L32.6684 19.7717C32.4374 19.6559 32.1578 19.7009 31.976 19.8839L29.5761 22.2838C29.4267 22.4326 29.3673 22.6493 29.4183 22.8532L30.0183 25.2532C30.0741 25.4782 30.2553 25.651 30.4821 25.6966L33.4821 26.2966C33.5216 26.3037 33.5607 26.3079 33.6003 26.3079C33.7575 26.3079 33.9105 26.2461 34.0244 26.1322L35.8244 24.3322C35.9731 24.1835 36.0331 23.9675 35.9821 23.7629Z" fill="#272C49"/>
</svg>
