<svg width="22" height="22" viewBox="0 0 22 22" fill="none" xmlns="http://www.w3.org/2000/svg">
<path d="M17.9838 8.8697C17.9214 8.85784 17.4422 8.76678 16.752 8.6445V5.71428C16.752 2.56339 14.1886 0 11.0377 0C7.88686 0 5.32348 2.56339 5.32348 5.71424V8.63096C4.59314 8.76 4.08095 8.85732 4.01628 8.86965C3.80964 8.90905 3.66016 9.08974 3.66016 9.30016V14.2361C3.66016 15.7738 4.87475 17.5462 7.27026 19.5039C9.00306 20.9202 10.7073 21.901 10.779 21.942C10.8465 21.9807 10.9217 22 10.9968 22C11.0719 22 11.147 21.9807 11.2144 21.9421C11.2863 21.901 12.9921 20.9202 14.7265 19.5041C17.1242 17.5462 18.34 15.7738 18.34 14.2361V9.30016C18.34 9.08978 18.1905 8.9091 17.9838 8.8697ZM6.19995 5.71424C6.19995 3.0467 8.37018 0.876477 11.0377 0.876477C13.7053 0.876477 15.8755 3.04674 15.8755 5.71424V8.49247C15.5437 8.43623 15.1904 8.37792 14.829 8.32055V5.71424C14.829 3.62373 13.1282 1.92294 11.0377 1.92294C8.9472 1.92294 7.24641 3.62373 7.24641 5.71424V8.30827C6.88612 8.36516 6.53296 8.42321 6.19995 8.47945V5.71424ZM13.9525 5.71424V8.18645C12.7977 8.01685 11.6706 7.88257 10.9972 7.88257C10.9971 7.88257 10.9969 7.88257 10.9968 7.88257C10.3394 7.88262 9.24906 8.01092 8.12293 8.17502V5.71424C8.12293 4.107 9.43047 2.79941 11.0378 2.79941C12.6451 2.79941 13.9525 4.107 13.9525 5.71424ZM17.4636 14.2361H17.4635C17.4635 15.4784 16.3284 17.0628 14.1808 18.8181C12.8541 19.9025 11.5105 20.7428 10.9969 21.0524C10.4851 20.7438 9.14924 19.9076 7.82499 18.8253C5.67376 17.0671 4.53668 15.4802 4.53668 14.2361V9.66419C5.72511 9.44496 9.55792 8.75922 10.9969 8.75909C10.9971 8.75909 10.9971 8.75909 10.9973 8.75909C12.4379 8.75909 16.2744 9.44505 17.4636 9.66423V14.2361Z" fill="#627792"/>
<path d="M12.1739 14.3031C12.4615 14.0085 12.6273 13.6099 12.6273 13.192C12.6273 12.3155 11.9141 11.6024 11.0376 11.6024C10.1612 11.6024 9.448 12.3155 9.448 13.192C9.448 13.6225 9.62129 14.0286 9.9222 14.3246L9.63165 15.9954C9.60947 16.1228 9.64475 16.2536 9.72803 16.3526C9.8113 16.4516 9.93406 16.5087 10.0634 16.5087H12.0119C12.1402 16.5087 12.262 16.4525 12.3453 16.3549C12.4285 16.2573 12.4648 16.1282 12.4446 16.0015L12.1739 14.3031ZM11.4493 13.7742C11.3132 13.8706 11.2438 14.0359 11.27 14.2006L11.4983 15.6323H10.5844L10.8294 14.2243C10.859 14.0536 10.7854 13.8815 10.6416 13.7851C10.4431 13.6521 10.3246 13.4304 10.3246 13.1921C10.3246 12.7988 10.6445 12.4789 11.0377 12.4789C11.4309 12.4789 11.7508 12.7988 11.7508 13.1921C11.7508 13.4226 11.6381 13.6402 11.4493 13.7742Z" fill="#627792"/>
<path d="M5.60963 10.0797C5.36758 10.0797 5.17139 10.2759 5.17139 10.518V11.0877C5.17139 11.3297 5.36758 11.5259 5.60963 11.5259C5.85167 11.5259 6.04786 11.3297 6.04786 11.0877V10.518C6.04786 10.2759 5.85167 10.0797 5.60963 10.0797Z" fill="#627792"/>
<path d="M5.60963 12.2709C5.36758 12.2709 5.17139 12.4671 5.17139 12.7092V14.2047C5.17139 14.4467 5.36758 14.6429 5.60963 14.6429C5.85167 14.6429 6.04786 14.4467 6.04786 14.2047V12.7092C6.04786 12.4671 5.85167 12.2709 5.60963 12.2709Z" fill="#627792"/>
</svg>
