<svg width="20" height="20" viewBox="0 0 20 20" fill="none" xmlns="http://www.w3.org/2000/svg">
<g clip-path="url(#clip0_141_2309)">
<path d="M15.6914 10.1525C15.5561 10.1525 15.4251 10.2074 15.3321 10.3004C15.239 10.3935 15.1841 10.5245 15.1841 10.6598C15.1841 10.7951 15.239 10.9262 15.3321 11.0192C15.4251 11.1122 15.5561 11.1672 15.6914 11.1672C15.8267 11.1672 15.9578 11.1122 16.0508 11.0192C16.1438 10.9262 16.1988 10.7951 16.1988 10.6598C16.1988 10.5245 16.1438 10.3935 16.0508 10.3004C15.9536 10.2032 15.8225 10.1525 15.6914 10.1525Z" fill="#627792"/>
<path d="M10.9394 4.23753C10.8802 4.51235 11.0577 4.77871 11.3326 4.8379C11.3664 4.84636 11.4044 4.85059 11.4383 4.85059C11.675 4.85059 11.8822 4.6857 11.9329 4.44893C11.9921 4.17411 11.8146 3.90775 11.5397 3.84856C11.2649 3.78937 10.9986 3.96272 10.9394 4.23753Z" fill="#627792"/>
<path d="M14.5626 6.2162C14.3301 6.37264 14.2709 6.68974 14.4273 6.92227C14.5246 7.06602 14.6852 7.14635 14.8501 7.14635C14.9474 7.14635 15.0446 7.11676 15.1334 7.05757C15.3659 6.90113 15.4251 6.58404 15.2687 6.3515C15.108 6.12319 14.7952 6.05977 14.5626 6.2162Z" fill="#627792"/>
<path d="M12.9432 4.87171C12.7868 5.10425 12.846 5.42135 13.0785 5.57778C13.1673 5.63697 13.2645 5.66234 13.3618 5.66234C13.5267 5.66234 13.6831 5.58624 13.7846 5.43826C13.941 5.20572 13.8818 4.88863 13.6493 4.73219C13.4167 4.57999 13.0996 4.63918 12.9432 4.87171Z" fill="#627792"/>
<path d="M15.163 8.66841C15.2137 8.90941 15.4251 9.07007 15.6577 9.07007C15.6915 9.07007 15.7253 9.06584 15.7634 9.05739C16.0382 8.99819 16.2158 8.73183 16.1566 8.45702C16.0974 8.1822 15.831 8.00463 15.5562 8.06382C15.2814 8.12724 15.1038 8.3936 15.163 8.66841Z" fill="#627792"/>
<path d="M9.34109 3.80206C9.2058 3.80206 9.07473 3.85703 8.98172 3.95004C8.8887 4.04306 8.83374 4.17412 8.83374 4.30942C8.83374 4.44471 8.8887 4.57578 8.98172 4.66879C9.07473 4.76181 9.2058 4.81677 9.34109 4.81677C9.47639 4.81677 9.60746 4.76181 9.70047 4.66879C9.79349 4.57578 9.84845 4.44471 9.84845 4.30942C9.84845 4.17412 9.79349 4.04306 9.70047 3.95004C9.60746 3.85703 9.47639 3.80206 9.34109 3.80206Z" fill="#627792"/>
<path d="M19.3614 10.275C19.2261 10.275 19.095 10.33 19.002 10.423C18.909 10.516 18.854 10.6471 18.854 10.7824C18.854 10.9177 18.909 11.0487 19.002 11.1418C19.095 11.2348 19.2261 11.2897 19.3614 11.2897C19.4967 11.2897 19.6277 11.2348 19.7207 11.1418C19.8137 11.0487 19.8687 10.9177 19.8687 10.7824C19.8687 10.6471 19.8137 10.516 19.7207 10.423C19.6235 10.3258 19.4924 10.275 19.3614 10.275Z" fill="#627792"/>
<path d="M19.0274 5.10001C18.9006 4.85056 18.5962 4.74909 18.3467 4.8717C18.0973 4.99854 17.9958 5.30295 18.1184 5.5524C18.2072 5.72997 18.3848 5.83144 18.5708 5.83144C18.6469 5.83144 18.723 5.81453 18.7991 5.77648C19.0528 5.65387 19.1543 5.34946 19.0274 5.10001Z" fill="#627792"/>
<path d="M14.4527 1.88254C14.5246 1.9206 14.6049 1.93751 14.681 1.93751C14.867 1.93751 15.0446 1.83604 15.1334 1.65846C15.2602 1.40901 15.1588 1.1046 14.9051 0.977762C14.6556 0.850924 14.3512 0.952395 14.2244 1.20607C14.1018 1.45129 14.199 1.75571 14.4527 1.88254Z" fill="#627792"/>
<path d="M11.0661 1.02005C11.0746 1.02005 11.0788 1.02005 11.083 1.02005C11.3536 1.02005 11.5819 0.804428 11.5904 0.529611C11.5988 0.250566 11.3832 0.0138001 11.0999 0.00534423C10.8209 -0.00733963 10.5841 0.212514 10.5757 0.491559C10.5672 0.770604 10.7871 1.00737 11.0661 1.02005Z" fill="#627792"/>
<path d="M12.8037 1.26951C12.8459 1.28219 12.8882 1.28642 12.9305 1.28642C13.1588 1.28642 13.3618 1.13421 13.4209 0.905901C13.4886 0.635312 13.3279 0.356267 13.0531 0.28862C12.7825 0.220972 12.5035 0.381635 12.4358 0.656452C12.3682 0.922813 12.5331 1.19763 12.8037 1.26951Z" fill="#627792"/>
<path d="M17.962 3.43846C17.7844 3.21861 17.4673 3.18479 17.2474 3.36236C17.0318 3.53994 16.9938 3.85703 17.1713 4.07689C17.2728 4.1995 17.4166 4.26714 17.5645 4.26714C17.6787 4.26714 17.7886 4.22909 17.8816 4.15299C18.1015 3.97541 18.1353 3.65832 17.962 3.43846Z" fill="#627792"/>
<path d="M18.9851 8.93899C18.9936 9.21381 19.2219 9.42943 19.4925 9.42943C19.4967 9.42943 19.5052 9.42943 19.5094 9.42943C19.7885 9.42098 20.0083 9.18421 19.9999 8.90517C19.9914 8.62612 19.7546 8.40627 19.4756 8.41473C19.1923 8.42318 18.9725 8.65572 18.9851 8.93899Z" fill="#627792"/>
<path d="M19.2261 7.58184C19.2684 7.58184 19.3106 7.57761 19.3529 7.56492C19.6235 7.49728 19.7884 7.21823 19.7207 6.94764C19.6531 6.67705 19.3741 6.51216 19.1035 6.57981C18.8329 6.64746 18.668 6.9265 18.7356 7.19709C18.7906 7.42963 18.9978 7.58184 19.2261 7.58184Z" fill="#627792"/>
<path d="M15.9283 2.83384C16.0213 2.90994 16.1354 2.94799 16.2454 2.94799C16.3933 2.94799 16.5413 2.88457 16.6386 2.75773C16.8161 2.53788 16.7823 2.22078 16.5625 2.04321C16.3426 1.86563 16.0255 1.89946 15.8479 2.11931C15.6746 2.33917 15.7084 2.65626 15.9283 2.83384Z" fill="#627792"/>
<path d="M9.22269 1.14691C9.35798 1.14691 9.48905 1.09195 9.58206 0.998933C9.67508 0.905918 9.73004 0.774851 9.73004 0.639557C9.73004 0.504262 9.67508 0.373196 9.58206 0.280181C9.48905 0.187166 9.35798 0.132202 9.22269 0.132202C9.08739 0.132202 8.95633 0.187166 8.86331 0.280181C8.7703 0.373196 8.71533 0.504262 8.71533 0.639557C8.71533 0.774851 8.7703 0.905918 8.86331 0.998933C8.95633 1.09618 9.08739 1.14691 9.22269 1.14691Z" fill="#627792"/>
<path d="M14.4146 13.0909C14.0341 12.7146 13.5817 12.5116 13.1124 12.5116C12.6431 12.5116 12.195 12.7103 11.8144 13.0866L11.713 13.1839C11.3409 13.5517 10.9604 13.928 10.5883 14.3127C10.5165 14.2747 10.4488 14.2409 10.3769 14.207C10.2036 14.1225 10.0429 14.0421 9.89495 13.9491C8.76608 13.2388 7.726 12.2918 6.71975 11.0572C6.23776 10.4653 5.89953 9.9368 5.66276 9.40831C5.99254 9.09121 6.31387 8.76143 6.63096 8.44433L6.87619 8.19911C7.67527 7.3958 7.67104 6.35995 6.87196 5.55241C6.63096 5.31142 6.38574 5.0662 6.14898 4.82943C6.04328 4.72373 5.93758 4.61803 5.83611 4.51656C5.72618 4.40663 5.61203 4.29248 5.5021 4.18255C5.26111 3.94156 5.01589 3.69211 4.76644 3.44689C4.38592 3.0706 3.93353 2.87189 3.46423 2.87189C2.99492 2.87189 2.54676 3.0706 2.16624 3.44689C1.98444 3.62446 1.80687 3.80627 1.62929 3.98384C1.37562 4.24174 1.11348 4.50811 0.847123 4.75756C0.348224 5.23109 0.0691793 5.83146 0.0142159 6.53752C-0.0703432 7.64525 0.238297 8.64727 0.517342 9.39562C1.14731 11.0868 2.10705 12.6892 3.45154 14.2916C5.13004 16.2872 7.151 17.8684 9.45947 18.9931C10.7321 19.6104 11.8229 19.9275 12.8883 19.9866C12.9687 19.9909 13.0448 19.9951 13.1209 19.9951C14.0257 19.9951 14.7698 19.678 15.3321 19.048C15.5731 18.7817 15.8268 18.5322 16.1016 18.2659C16.2369 18.1306 16.3806 17.9953 16.5202 17.8558C17.315 17.0524 17.3192 16.0166 16.5286 15.2217C15.8225 14.4903 15.108 13.7758 14.4146 13.0909ZM15.8099 17.1286C15.6788 17.2638 15.5393 17.3949 15.404 17.526C15.1334 17.7923 14.8501 18.0629 14.588 18.3589C14.1821 18.8113 13.6705 19.0015 12.9602 18.9635C12.0343 18.9127 11.0661 18.6295 9.92031 18.0714C7.73869 17.0102 5.83188 15.5177 4.2464 13.632C2.97378 12.1184 2.07323 10.6175 1.48554 9.03625C1.12617 8.06804 0.990873 7.3197 1.04161 6.6094C1.07543 6.14855 1.24032 5.7934 1.56165 5.48899C1.83646 5.22686 2.10283 4.95627 2.36496 4.69414C2.5383 4.52079 2.71588 4.33899 2.88923 4.16987C3.02029 4.04303 3.22746 3.8866 3.47691 3.8866C3.72636 3.8866 3.93353 4.0388 4.06882 4.16987C4.31405 4.41086 4.55927 4.65608 4.79603 4.89708C4.91019 5.01123 5.02011 5.12116 5.13427 5.23531C5.23997 5.34101 5.34567 5.44671 5.45137 5.54818C5.68813 5.78495 5.93335 6.02594 6.17012 6.26694C6.576 6.67705 6.58023 7.07447 6.17435 7.48459L5.92912 7.73404C5.58666 8.08073 5.23151 8.43588 4.87636 8.77834C4.69456 8.95591 4.51276 9.2561 4.69456 9.68735C4.96938 10.3511 5.37103 10.9896 5.95026 11.7041C7.02839 13.0274 8.1488 14.0464 9.37491 14.8159C9.56516 14.9342 9.75965 15.0315 9.94991 15.1245C10.0598 15.1795 10.1655 15.2302 10.267 15.2852C10.3981 15.357 10.5291 15.3909 10.6602 15.3909C10.8716 15.3909 11.0661 15.3021 11.2352 15.1245C11.6326 14.7144 12.0427 14.3085 12.4444 13.9111L12.5459 13.8138C12.6769 13.6828 12.8841 13.5306 13.1293 13.5306C13.3746 13.5306 13.586 13.687 13.717 13.8138C14.4062 14.4988 15.1207 15.2091 15.8352 15.9278C16.2115 16.321 16.2115 16.7269 15.8099 17.1286Z" fill="#627792"/>
</g>
<defs>
<clipPath id="clip0_141_2309">
<rect width="20" height="20" fill="white"/>
</clipPath>
</defs>
</svg>
