<svg width="30" height="30" viewBox="0 0 30 30" fill="none" xmlns="http://www.w3.org/2000/svg">
<path d="M15.0884 13.5967L7.84766 19.5724V25.051V26.9004V27.1229H22.3291V26.9222V25.051V19.5942L15.0884 13.5967ZM14.9794 24.244H12.2968V21.7359H14.9794V24.244ZM14.9794 21.4088H12.2968V18.9007H14.9794V21.4088ZM18.0108 24.244H15.3283V21.7359H18.0108V24.244ZM18.0108 21.4088H15.3283V18.9007H18.0108V21.4088Z" fill="white"/>
<path d="M15.0904 2.87695L8.00446 8.62995V5.98801H5.38211V10.7891L0 15.2134L1.66841 17.2429L5.3193 14.2398V24.0697H6.76787V23.6928V18.6758L15.0904 11.8059L18.5842 14.7226V12.5989H20.4057V16.2223L23.4049 18.6994V23.6928V24.0697H24.8025V14.3379L28.3316 17.2429L30 15.2134L15.0904 2.87695Z" fill="white"/>
</svg>
