<svg width="41" height="40" viewBox="0 0 41 40" fill="none" xmlns="http://www.w3.org/2000/svg">
<path d="M39.0909 20C39.0909 30.4913 30.5661 39 20.0455 39C9.5248 39 1 30.4913 1 20C1 9.50873 9.5248 1 20.0455 1C30.5661 1 39.0909 9.50873 39.0909 20Z" stroke="#272C49" stroke-width="2"/>
<path d="M24.385 18.7696C24.5542 18.7276 24.7152 18.615 24.8812 18.6118C25.137 18.6054 25.426 18.6028 25.6438 18.7114C26.0218 18.9 26.0518 19.3112 25.7062 19.5614C25.4294 19.7598 25.0958 19.8908 24.7728 20.0148C24.054 20.2924 23.9584 20.5014 24.3218 21.1822C24.9242 22.31 25.7676 23.1494 27.058 23.4602C27.1916 23.4918 27.4062 23.6392 27.3996 23.7168C27.385 23.8932 27.2984 24.1524 27.1648 24.2138C26.7308 24.417 26.271 24.5894 25.804 24.6898C25.5126 24.7498 25.4032 24.8574 25.3418 25.1318C25.2106 25.7106 25.0956 25.7826 24.5346 25.6702C23.6424 25.4904 22.858 25.6452 22.0978 26.194C20.5638 27.3038 19.4206 27.299 17.8898 26.1876C17.1434 25.6436 16.3702 25.4914 15.4912 25.672C14.9018 25.7926 14.8006 25.7214 14.6598 25.1216C14.6016 24.8764 14.51 24.75 14.2242 24.6958C13.7806 24.6124 13.3378 24.4666 12.929 24.2748C12.7638 24.1988 12.6328 23.9364 12.6004 23.743C12.5874 23.6636 12.8636 23.4816 13.0326 23.4346C14.4218 23.055 15.2678 22.1046 15.8368 20.8448C15.9712 20.5468 15.8578 20.3356 15.611 20.1972C15.3908 20.0758 15.1414 20.007 14.9066 19.909C14.7584 19.8466 14.607 19.7844 14.471 19.7002C14.1942 19.5294 13.9618 19.3172 14.122 18.9498C14.2524 18.6478 14.6822 18.4876 15.0206 18.596C15.2124 18.6568 15.4002 18.736 15.5954 18.779C15.8512 18.834 15.9954 18.7612 15.9856 18.4478C15.963 17.7362 15.9224 17.019 15.98 16.3106C16.1014 14.8138 16.9766 13.826 18.3236 13.3006C20.2706 12.5444 22.5956 13.1152 23.6456 14.999C24.014 15.6596 24.0698 16.3744 24.1006 17.1038C24.0714 17.5612 24.048 18.0178 24.0116 18.4728C23.9892 18.7696 24.1446 18.8294 24.385 18.7696Z" fill="#272C49"/>
</svg>
