<svg width="41" height="40" viewBox="0 0 41 40" fill="none" xmlns="http://www.w3.org/2000/svg">
<path d="M39.091 20C39.091 30.4913 30.5662 39 20.0456 39C9.52492 39 1.00012 30.4913 1.00012 20C1.00012 9.50873 9.52492 1 20.0456 1C30.5662 1 39.091 9.50873 39.091 20Z" stroke="#272C49" stroke-width="2"/>
<g clip-path="url(#clip0_230_16995)">
<path d="M26.4244 15.8018C26.2145 15.8947 25.9987 15.9731 25.7781 16.0368C26.0392 15.7422 26.2383 15.3955 26.3598 15.0161C26.3871 14.9311 26.3588 14.838 26.2888 14.7824C26.2188 14.7268 26.1216 14.7201 26.0446 14.7656C25.5762 15.0428 25.0709 15.242 24.541 15.3585C24.0073 14.8381 23.2824 14.542 22.533 14.542C20.9511 14.542 19.6642 15.826 19.6642 17.4042C19.6642 17.5285 19.6721 17.6521 19.6877 17.774C17.7247 17.6021 15.8998 16.6395 14.6467 15.1057C14.602 15.0511 14.5332 15.0216 14.4628 15.0272C14.3923 15.0327 14.3289 15.0724 14.2933 15.1333C14.0392 15.5685 13.9048 16.0662 13.9048 16.5725C13.9048 17.2622 14.1516 17.9166 14.5875 18.4279C14.455 18.3821 14.3264 18.3248 14.2036 18.2568C14.1377 18.2202 14.0572 18.2208 13.9917 18.2582C13.9262 18.2957 13.8851 18.3646 13.8834 18.4399C13.8831 18.4526 13.8831 18.4653 13.8831 18.4782C13.8831 19.5076 14.4384 20.4345 15.2875 20.9396C15.2145 20.9324 15.1416 20.9218 15.0692 20.908C14.9945 20.8938 14.9178 20.9199 14.8674 20.9767C14.817 21.0335 14.8003 21.1126 14.8235 21.1849C15.1378 22.1638 15.9469 22.8838 16.925 23.1034C16.1138 23.6103 15.186 23.8759 14.2121 23.8759C14.0089 23.8759 13.8045 23.864 13.6045 23.8404C13.5051 23.8286 13.4101 23.8871 13.3763 23.9814C13.3424 24.0757 13.3783 24.1809 13.4628 24.2349C14.714 25.0353 16.1607 25.4584 17.6464 25.4584C20.5672 25.4584 22.3943 24.0842 23.4128 22.9314C24.6827 21.4939 25.4111 19.5912 25.4111 17.7113C25.4111 17.6327 25.4099 17.5534 25.4075 17.4744C25.9085 17.0977 26.3399 16.6419 26.6909 16.118C26.7443 16.0384 26.7385 15.9333 26.6767 15.86C26.615 15.7867 26.5122 15.763 26.4244 15.8018Z" fill="#272C49"/>
</g>
<defs>
<clipPath id="clip0_230_16995">
<rect width="13.3636" height="13.3333" fill="white" transform="translate(13.3638 13.3335)"/>
</clipPath>
</defs>
</svg>
