<svg width="100" height="100" viewBox="0 0 100 100" fill="none" xmlns="http://www.w3.org/2000/svg">
<g clip-path="url(#clip0_250_17267)">
<g filter="url(#filter0_f_250_17267)">
<path d="M31.0632 78.8656L32.3363 79.6198C37.6834 82.7932 43.8144 84.4719 50.0666 84.4748H50.0797C69.2803 84.4748 84.9065 68.852 84.9144 49.6503C84.9179 40.3454 81.2978 31.5953 74.7209 25.0132C71.4951 21.7671 67.6574 19.193 63.4301 17.4401C59.2028 15.6871 54.6698 14.7901 50.0934 14.8008C30.878 14.8008 15.2513 30.4218 15.2445 49.6224C15.235 56.1789 17.0813 62.6041 20.57 68.1554L21.3988 69.4724L17.879 82.3221L31.0632 78.8656ZM7.81592 92.277L13.7623 70.5661C10.095 64.2124 8.16567 57.0043 8.16795 49.6196C8.17763 26.5176 26.9778 7.72314 50.0803 7.72314C61.2912 7.72884 71.814 12.0917 79.7279 20.0112C87.6418 27.9308 91.9961 38.4576 91.9921 49.6532C91.9819 72.7534 73.1789 91.5513 50.0797 91.5513H50.0615C43.0476 91.5484 36.1557 89.7889 30.0338 86.4508L7.81592 92.277Z" fill="#B3B3B3"/>
</g>
<path d="M7.38586 91.8463L13.3323 70.1354C9.65865 63.7664 7.72902 56.5414 7.7379 49.1889C7.74758 26.0869 26.5477 7.29248 49.6503 7.29248C60.8612 7.29818 71.384 11.661 79.2979 19.5806C87.2118 27.5002 91.566 38.027 91.5621 49.2225C91.5518 72.3228 72.7488 91.1206 49.6497 91.1206H49.6315C42.6176 91.1178 35.7256 89.3582 29.6038 86.0201L7.38586 91.8463Z" fill="white"/>
<path d="M49.6628 14.3702C30.4474 14.3702 14.8207 29.9912 14.8139 49.1918C14.8044 55.7483 16.6507 62.1735 20.1394 67.7248L20.9682 69.0423L17.4484 81.8921L30.6331 78.435L31.9062 79.1892C37.2534 82.3626 43.3843 84.0407 49.6366 84.0442H49.6497C68.8503 84.0442 84.477 68.4214 84.4844 49.2197C84.4989 44.6431 83.6054 40.109 81.8557 35.88C80.1059 31.651 77.5347 27.8111 74.2908 24.5826C71.065 21.3364 67.2272 18.7623 62.9998 17.0094C58.7724 15.2564 54.2393 14.3594 49.6628 14.3702Z" fill="url(#paint0_linear_250_17267)"/>
<path fill-rule="evenodd" clip-rule="evenodd" d="M39.1748 31.673C38.3898 29.9294 37.5639 29.894 36.8182 29.8638L34.8108 29.8394C34.1125 29.8394 32.9777 30.1014 32.0185 31.1495C31.0592 32.1976 28.3529 34.7308 28.3529 39.8831C28.3529 45.0354 32.1056 50.014 32.6286 50.7135C33.1515 51.413 39.8731 62.3232 50.5178 66.5208C59.3637 70.0092 61.1637 69.3154 63.0845 69.1411C65.0053 68.9668 69.2804 66.608 70.1525 64.1625C71.0246 61.7171 71.0252 59.622 70.7637 59.1839C70.5022 58.7459 69.8039 58.4856 68.7558 57.9615C67.7076 57.4374 62.5599 54.9043 61.6 54.5545C60.6402 54.2048 59.9424 54.031 59.2435 55.0792C58.5445 56.1273 56.54 58.485 55.9288 59.1839C55.3176 59.8829 54.7075 59.9706 53.6594 59.4471C52.6112 58.9236 49.239 57.8174 45.2379 54.2498C42.1249 51.474 40.0235 48.0459 39.4117 46.9984C38.8 45.9508 39.3468 45.3835 39.872 44.8617C40.3419 44.3923 40.919 43.6387 41.4436 43.0275C41.9682 42.4163 42.1408 41.9794 42.4895 41.2816C42.8381 40.5838 42.6643 39.9708 42.4023 39.4473C42.1403 38.9238 40.1056 33.7448 39.1748 31.6736" fill="white"/>
</g>
<defs>
<filter id="filter0_f_250_17267" x="0.753918" y="0.661145" width="98.3001" height="98.6777" filterUnits="userSpaceOnUse" color-interpolation-filters="sRGB">
<feFlood flood-opacity="0" result="BackgroundImageFix"/>
<feBlend mode="normal" in="SourceGraphic" in2="BackgroundImageFix" result="shape"/>
<feGaussianBlur stdDeviation="3.531" result="effect1_foregroundBlur_250_17267"/>
</filter>
<linearGradient id="paint0_linear_250_17267" x1="48.9399" y1="18.5513" x2="49.2931" y2="78.0921" gradientUnits="userSpaceOnUse">
<stop stop-color="#57D163"/>
<stop offset="1" stop-color="#23B33A"/>
</linearGradient>
<clipPath id="clip0_250_17267">
<rect width="99.8086" height="100" fill="white"/>
</clipPath>
</defs>
</svg>
