<svg width="542" height="411" viewBox="0 0 542 411" fill="none" xmlns="http://www.w3.org/2000/svg">
<path d="M110.882 132.941C113.431 132.391 115.05 129.886 114.498 127.346C113.945 124.807 111.43 123.194 108.881 123.745C106.331 124.295 104.713 126.8 105.265 129.339C105.818 131.879 108.332 133.491 110.882 132.941Z" fill="#A2A4A8"/>
<path d="M404.899 184.926C407.461 185.365 409.903 183.651 410.383 181.099C410.823 178.547 409.102 176.115 406.54 175.636C403.978 175.198 401.537 176.912 401.056 179.464C400.616 182.056 402.337 184.488 404.899 184.926Z" fill="#006FC4"/>
<path d="M115.045 107.575C117.487 108.452 120.209 107.216 121.09 104.744C121.97 102.312 120.729 99.6006 118.247 98.7234C115.806 97.8462 113.084 99.0822 112.203 101.554C111.322 103.986 112.563 106.698 115.045 107.575Z" fill="#A2A4A8"/>
<path d="M397.333 209.926C399.775 210.803 402.497 209.567 403.378 207.095C404.259 204.663 403.018 201.952 400.536 201.074C398.094 200.197 395.372 201.433 394.491 203.905C393.611 206.338 394.892 209.049 397.333 209.926Z" fill="#006FC4"/>
<path d="M128.901 84.0519C131.422 83.3844 132.923 80.8076 132.253 78.2964C131.582 75.7853 128.995 74.2908 126.474 74.9583C123.953 75.6258 122.453 78.2027 123.123 80.7138C123.793 83.2249 126.38 84.7195 128.901 84.0519Z" fill="#A2A4A8"/>
<path d="M391.91 231.605C393.285 229.396 392.601 226.496 390.384 225.127C388.166 223.758 385.255 224.439 383.88 226.648C382.506 228.856 383.19 231.757 385.407 233.126C387.624 234.494 390.536 233.814 391.91 231.605Z" fill="#006FC4"/>
<path d="M144.905 62.3059C147.222 61.1106 148.127 58.2714 146.926 55.9642C145.726 53.6571 142.876 52.7557 140.56 53.951C138.243 55.1463 137.339 57.9856 138.539 60.2927C139.739 62.5999 142.589 63.5012 144.905 62.3059Z" fill="#A2A4A8"/>
<path d="M373.287 255.163C375.886 254.937 377.808 252.655 377.581 250.066C377.354 247.478 375.063 245.563 372.464 245.789C369.865 246.016 367.943 248.298 368.17 250.886C368.397 253.475 370.688 255.39 373.287 255.163Z" fill="#006FC4"/>
<path d="M165.951 40.1174C166.175 37.5286 164.251 35.2486 161.652 35.0248C159.053 34.8011 156.763 36.7183 156.539 39.3072C156.314 41.896 158.239 44.176 160.838 44.3998C163.437 44.6235 165.726 42.7062 165.951 40.1174Z" fill="#A2A4A8"/>
<path d="M359.053 269.349C359.28 266.76 357.358 264.478 354.759 264.252C352.16 264.025 349.869 265.94 349.642 268.529C349.415 271.117 351.337 273.399 353.936 273.626C356.535 273.852 358.826 271.938 359.053 269.349Z" fill="#006FC4"/>
<path d="M178.612 27.1136C179.933 29.3464 182.815 30.1439 185.057 28.8281C187.298 27.5123 188.099 24.6415 186.778 22.4087C185.457 20.1759 182.575 19.3784 180.333 20.6942C178.052 21.9701 177.291 24.8409 178.612 27.1136Z" fill="#A2A4A8"/>
<path d="M201.989 15.3515C202.87 17.7837 205.592 19.0596 208.034 18.1824C210.476 17.3052 211.757 14.5939 210.876 12.1617C209.995 9.72954 207.273 8.45364 204.831 9.33082C202.35 10.208 201.069 12.8794 201.989 15.3515Z" fill="#A2A4A8"/>
<path d="M304.745 296.528C305.626 298.96 308.348 300.236 310.79 299.359C313.231 298.481 314.512 295.77 313.632 293.338C312.751 290.906 310.029 289.63 307.587 290.507C305.105 291.384 303.824 294.096 304.745 296.528Z" fill="#7900C4"/>
<path d="M227.048 7.8151C227.488 10.3669 229.97 12.0814 232.532 11.6428C235.094 11.2042 236.815 8.73216 236.375 6.18035C235.934 3.62855 233.452 1.91405 230.891 2.35265C228.329 2.79124 226.607 5.22343 227.048 7.8151Z" fill="#A2A4A8"/>
<path d="M279.206 302.469C279.647 305.021 282.128 306.735 284.69 306.297C287.252 305.858 288.973 303.386 288.533 300.834C288.093 298.282 285.611 296.568 283.049 297.006C280.487 297.485 278.766 299.917 279.206 302.469Z" fill="#7900C4"/>
<path d="M262.159 6.50526C263.158 4.10456 262.013 1.35227 259.603 0.357852C257.193 -0.63657 254.43 0.503436 253.431 2.90413C252.433 5.30483 253.577 8.05712 255.988 9.05154C258.398 10.046 261.161 8.90595 262.159 6.50526Z" fill="#A2A4A8"/>
<path d="M262.171 305.745C263.17 303.345 262.025 300.593 259.615 299.598C257.205 298.604 254.442 299.744 253.443 302.144C252.445 304.545 253.589 307.297 256 308.292C258.41 309.286 261.173 308.146 262.171 305.745Z" fill="#7900C4"/>
<path d="M279.206 6.18026C278.766 8.73206 280.487 11.1643 283.049 11.6427C285.611 12.0813 288.053 10.3668 288.533 7.81501C288.973 5.2632 287.252 2.83102 284.69 2.35255C282.128 1.87409 279.687 3.58858 279.206 6.18026Z" fill="#A2A4A8"/>
<path d="M227.048 300.834C226.607 303.386 228.329 305.818 230.891 306.297C233.452 306.775 235.894 305.021 236.375 302.469C236.815 299.917 235.094 297.485 232.532 297.006C229.97 296.568 227.528 298.282 227.048 300.834Z" fill="#7900C4"/>
<path d="M304.745 12.1217C303.864 14.5539 305.105 17.2652 307.587 18.1424C310.029 19.0195 312.751 17.7835 313.632 15.3114C314.512 12.8793 313.271 10.168 310.789 9.29078C308.348 8.4136 305.626 9.6895 304.745 12.1217Z" fill="#A2A4A8"/>
<path d="M201.989 293.298C201.108 295.731 202.349 298.442 204.831 299.319C207.273 300.196 209.995 298.96 210.876 296.488C211.756 294.056 210.515 291.345 208.034 290.468C205.592 289.59 202.87 290.866 201.989 293.298Z" fill="#7900C4"/>
<path d="M328.803 22.4087C327.482 24.6415 328.283 27.5521 330.524 28.828C332.766 30.1438 335.688 29.3464 336.969 27.1136C338.29 24.8807 337.489 21.9701 335.248 20.6942C333.006 19.3784 330.124 20.136 328.803 22.4087Z" fill="#A2A4A8"/>
<path d="M184.804 293.473C190.119 292.322 193.49 287.098 192.334 281.804C191.179 276.51 185.934 273.152 180.619 274.303C175.305 275.455 171.933 280.679 173.089 285.973C174.245 291.266 179.49 294.624 184.804 293.473Z" fill="#7900C4"/>
<path d="M114.356 161.422C118.302 157.695 118.467 151.487 114.725 147.556C110.983 143.625 104.75 143.461 100.804 147.188C96.8579 150.916 96.6926 157.124 100.435 161.055C104.177 164.985 110.41 165.15 114.356 161.422Z" fill="#E3412C"/>
<path d="M417.74 155.631C418.485 150.265 414.721 145.313 409.334 144.571C403.947 143.829 398.975 147.577 398.23 152.943C397.485 158.31 401.248 163.261 406.636 164.003C412.023 164.746 416.995 160.997 417.74 155.631Z" fill="#7AB51D"/>
<path d="M335.419 293.365C340.672 291.963 343.789 286.585 342.382 281.352C340.974 276.12 335.575 273.015 330.322 274.417C325.069 275.819 321.952 281.197 323.359 286.429C324.766 291.661 330.166 294.767 335.419 293.365Z" fill="#006FC4"/>
<path d="M354.755 44.4005C357.354 44.174 359.277 41.892 359.049 39.3034C358.822 36.7148 356.531 34.8 353.932 35.0265C351.333 35.2529 349.411 37.535 349.638 40.1235C349.866 42.7121 352.157 44.627 354.755 44.4005Z" fill="#A2A4A8"/>
<path d="M157.637 265.906C155.955 267.9 156.236 270.85 158.237 272.525C160.239 274.2 163.201 273.921 164.882 271.927C166.563 269.933 166.283 266.983 164.282 265.308C162.28 263.673 159.318 263.913 157.637 265.906Z" fill="#E3412C"/>
<path d="M369.833 54.5454C367.832 56.22 367.591 59.1705 369.233 61.1641C370.914 63.1577 373.876 63.3969 375.878 61.7622C377.879 60.0876 378.119 57.1371 376.478 55.1435C374.797 53.1499 371.835 52.8708 369.833 54.5454Z" fill="#A2A4A8"/>
<path d="M147.416 250.892C147.646 248.303 145.726 246.019 143.128 245.79C140.529 245.561 138.236 247.473 138.006 250.061C137.776 252.65 139.696 254.934 142.294 255.163C144.893 255.392 147.186 253.48 147.416 250.892Z" fill="#E3412C"/>
<path d="M390.662 83.3144C392.77 81.7832 393.232 78.84 391.695 76.7408C390.157 74.6415 387.203 74.181 385.095 75.7123C382.988 77.2435 382.525 80.1867 384.063 82.2859C385.6 84.3852 388.555 84.8457 390.662 83.3144Z" fill="#A2A4A8"/>
<path d="M130.415 232.993C132.549 231.498 133.062 228.563 131.561 226.438C130.06 224.313 127.114 223.802 124.98 225.297C122.847 226.792 122.334 229.726 123.834 231.852C125.335 233.977 128.281 234.488 130.415 232.993Z" fill="#E3412C"/>
<path d="M397.333 98.7234C394.892 99.6006 393.611 102.312 394.491 104.744C395.372 107.176 398.094 108.452 400.536 107.575C402.978 106.698 404.259 103.986 403.378 101.554C402.497 99.0822 399.775 97.8462 397.333 98.7234Z" fill="#A2A4A8"/>
<path d="M115.045 201.074C112.603 201.952 111.322 204.663 112.203 207.095C113.084 209.527 115.806 210.803 118.247 209.926C120.689 209.049 121.97 206.338 121.09 203.905C120.209 201.433 117.487 200.197 115.045 201.074Z" fill="#E3412C"/>
<path d="M404.899 123.723C402.337 124.162 400.616 126.634 401.056 129.186C401.497 131.737 403.978 133.452 406.54 133.013C409.102 132.575 410.823 130.103 410.383 127.551C409.903 124.959 407.461 123.245 404.899 123.723Z" fill="#A2A4A8"/>
<path d="M109.041 175.676C106.479 176.115 104.758 178.587 105.198 181.139C105.638 183.691 108.12 185.405 110.682 184.966C113.244 184.528 114.965 182.056 114.525 179.504C114.084 176.912 111.603 175.198 109.041 175.676Z" fill="#E3412C"/>
<path d="M473.109 196.649C496.588 196.649 515.621 177.691 515.621 154.305C515.621 130.919 496.588 111.961 473.109 111.961C449.631 111.961 430.598 130.919 430.598 154.305C430.598 177.691 449.631 196.649 473.109 196.649Z" fill="#7AB51D"/>
<path d="M395.479 369.982C412.081 353.446 412.081 326.636 395.479 310.1C378.878 293.563 351.961 293.563 335.36 310.1C318.758 326.636 318.758 353.446 335.36 369.982C351.961 386.519 378.878 386.519 395.479 369.982Z" fill="#006FC4"/>
<path d="M180.197 369.969C196.798 353.433 196.798 326.623 180.197 310.086C163.595 293.55 136.679 293.55 120.077 310.086C103.476 326.623 103.476 353.433 120.077 369.969C136.679 386.505 163.595 386.505 180.197 369.969Z" fill="#7900C4"/>

<path d="M72.5527 184.242C89.1542 167.706 89.1542 140.895 72.5527 124.359C55.9511 107.823 29.0346 107.823 12.4331 124.359C-4.16848 140.895 -4.16848 167.706 12.4331 184.242C29.0346 200.778 55.9511 200.778 72.5527 184.242Z" fill="#E3412C" />



<path d="M257.813 279.636C327.297 279.636 383.626 223.529 383.626 154.318C383.626 85.1075 327.297 29.001 257.813 29.001C188.328 29.001 132 85.1075 132 154.318C132 223.529 188.328 279.636 257.813 279.636Z" fill="url(#paint0_linear_249_17170)"/>
<path d="M257.79 281.856C223.605 281.856 191.421 268.578 167.244 244.496C143.066 220.413 129.736 188.396 129.736 154.305C129.736 120.215 143.066 88.1975 167.244 64.1149C191.421 40.0322 223.565 26.7549 257.79 26.7549C291.976 26.7549 324.159 40.0322 348.337 64.1149C372.515 88.1975 385.845 120.215 385.845 154.305C385.845 188.396 372.515 220.413 348.337 244.496C324.159 268.578 291.976 281.856 257.79 281.856ZM257.79 31.2205C189.62 31.2205 134.179 86.4432 134.179 154.345C134.179 222.247 189.62 277.43 257.79 277.43C325.961 277.43 381.402 222.207 381.402 154.305C381.402 86.4033 325.961 31.2205 257.79 31.2205Z" fill="url(#paint1_linear_249_17170)"/>
<path d="M182.695 298.601C174.569 298.601 167.964 292.022 167.964 283.928C167.964 275.834 174.569 269.255 182.695 269.255C190.821 269.255 197.426 275.834 197.426 283.928C197.426 291.982 190.821 298.601 182.695 298.601ZM182.695 270.97C175.53 270.97 169.725 276.751 169.725 283.888C169.725 291.025 175.53 296.807 182.695 296.807C189.86 296.807 195.665 291.025 195.665 283.888C195.665 276.751 189.86 270.97 182.695 270.97Z" fill="#7900C4"/>
<path d="M107.64 169.018C99.5136 169.018 92.9087 162.439 92.9087 154.345C92.9087 146.251 99.5136 139.672 107.64 139.672C115.766 139.672 122.37 146.251 122.37 154.345C122.37 162.439 115.766 169.018 107.64 169.018ZM107.64 141.386C100.474 141.386 94.67 147.168 94.67 154.305C94.67 161.442 100.474 167.223 107.64 167.223C114.805 167.223 120.609 161.442 120.609 154.305C120.609 147.208 114.805 141.386 107.64 141.386Z" fill="#E3412C"/>
<path d="M332.886 298.601C324.76 298.601 318.155 292.022 318.155 283.928C318.155 275.834 324.76 269.255 332.886 269.255C341.012 269.255 347.617 275.834 347.617 283.928C347.657 291.982 341.012 298.601 332.886 298.601ZM332.886 270.97C325.72 270.97 319.916 276.751 319.916 283.888C319.916 291.025 325.72 296.807 332.886 296.807C340.051 296.807 345.855 291.025 345.855 283.888C345.855 276.751 340.051 270.97 332.886 270.97Z" fill="#006FC4"/>
<path d="M408.021 169.018C399.895 169.018 393.29 162.439 393.29 154.345C393.29 146.251 399.895 139.672 408.021 139.672C416.147 139.672 422.752 146.251 422.752 154.345C422.752 162.439 416.147 169.018 408.021 169.018ZM408.021 141.386C400.856 141.386 395.052 147.168 395.052 154.305C395.052 161.442 400.856 167.223 408.021 167.223C415.186 167.223 420.991 161.442 420.991 154.305C420.991 147.208 415.146 141.386 408.021 141.386Z" fill="#7AB51D"/>
<path d="M64.2876 176.009C76.3245 164.02 76.3245 144.581 64.2876 132.591C52.2507 120.602 32.735 120.602 20.6981 132.591C8.66117 144.581 8.66117 164.02 20.6981 176.009C32.735 187.999 52.2507 187.999 64.2876 176.009Z" fill="white"/>
<path d="M171.932 361.737C183.969 349.747 183.969 330.308 171.932 318.319C159.895 306.329 140.379 306.329 128.342 318.319C116.305 330.308 116.305 349.747 128.342 361.737C140.379 373.726 159.895 373.726 171.932 361.737Z" fill="white"/>
<path d="M387.214 361.75C399.251 349.76 399.251 330.322 387.214 318.332C375.177 306.343 355.662 306.343 343.625 318.332C331.588 330.322 331.588 349.76 343.625 361.75C355.662 373.739 375.177 373.739 387.214 361.75Z" fill="white"/>
<path d="M494.881 176.008C506.918 164.019 506.918 144.58 494.881 132.59C482.844 120.601 463.328 120.601 451.291 132.59C439.254 144.58 439.254 164.019 451.291 176.008C463.328 187.998 482.844 187.998 494.881 176.008Z" fill="white"/>
<defs>
<linearGradient id="paint0_linear_249_17170" x1="131.997" y1="154.337" x2="383.637" y2="154.337" gradientUnits="userSpaceOnUse">
<stop stop-color="#EBEAEA"/>
<stop offset="1" stop-color="white"/>
</linearGradient>
<linearGradient id="paint1_linear_249_17170" x1="129.759" y1="154.324" x2="385.829" y2="154.324" gradientUnits="userSpaceOnUse">
<stop stop-color="white"/>
<stop offset="1" stop-color="#EBEAEA"/>
</linearGradient>
</defs>
</svg>
